<?xml version="1.0" encoding="UTF-8"?>
<svg width="41px" height="48px" viewBox="0 0 41 48" version="1.1" xmlns="http://www.w3.org/2000/svg" xmlns:xlink="http://www.w3.org/1999/xlink">
    <title>6C817E23-8FB1-46F0-AC65-E6254B7E4D01</title>
    <g id="Android-" stroke="none" stroke-width="1" fill="none" fill-rule="evenodd">
        <g id="UI-KIT" transform="translate(-36.000000, -802.000000)" stroke="#FFFFFF">
            <g id="Group-3" transform="translate(37.000000, 803.000000)">
                <path d="M22,0 C19.2385763,0 17,2.23857625 17,5 C17,7.76142375 19.2385763,10 22,10 C24.7614237,10 27,7.76142375 27,5 C27,2.23857625 24.7614237,0 22,0 Z" id="Shape" fill-rule="nonzero"></path>
                <path d="M14,43.2021065 L14.8791501,45 L19.2083333,43.6145644 L17.4844645,37.4615385 L14,43.2021065 Z M36.7864583,17 L23.5052083,17 C23.2572917,17 23.0292969,17.0692308 22.8057292,17.1476923 L29.6588542,27.1584615 C29.9466146,27.5461538 30.1458333,28.01 30.1458333,28.5384615 C30.1458333,29.8123077 29.1541667,30.8461538 27.9322917,30.8461538 C27.2328125,30.8461538 26.6351563,30.4861538 26.2300781,29.96 L21.2916667,23.9646154 L21.2916667,30.8461538 C21.2916667,32.12 22.2833333,33.1538462 23.5052083,33.1538462 L36.7864583,33.1538462 C38.0083333,33.1538462 39,32.12 39,30.8461538 L39,19.3076923 C39,18.0338462 38.0083333,17 36.7864583,17 Z" id="Shape" fill-rule="nonzero"></path>
                <path d="M18.2732166,11.5122296 C16.2754401,9.51628518 15.8999856,9.09621408 13.8130029,9.00370481 C12.4216811,8.94203195 11.0239356,9.65034694 9.61976641,11.1286498 C4.53873593,16.776383 1.64012675,20.5148332 0.923938869,22.3440002 C-0.150342945,25.0877508 -0.901880503,25.6572005 2.30332087,29.8150887 C4.44012178,32.5870141 7.21724929,34.2956878 10.6347034,34.9411097 L6.54952905,45.2825085 L8.37642418,46 C15.0634252,39.024334 17.6659552,34.3253285 16.1840144,31.9029833 C14.7020735,29.4806382 12.8424152,27.4799208 10.6050393,25.9008311 L16.777297,18.9658826 C17.1256603,18.4059553 17.3742727,17.9939906 17.5231342,17.7299886 C19.1983991,14.7589481 19.4484266,12.6863618 18.2732166,11.5122296 Z" id="Path" fill-rule="nonzero"></path>
                <line x1="17.0793457" y1="17.7058105" x2="22.0793457" y2="24.7058105" id="Path-2" stroke-width="0.7"></line>
                <line x1="19" y1="10" x2="23" y2="16" id="Path-2" stroke-width="0.7"></line>
            </g>
        </g>
    </g>
</svg>