<?xml version="1.0" encoding="UTF-8"?>
<svg width="46px" height="46px" viewBox="0 0 46 46" version="1.1" xmlns="http://www.w3.org/2000/svg" xmlns:xlink="http://www.w3.org/1999/xlink">
    <title>174A7FA9-519C-4CD7-B50A-3157CC00A361</title>
    <g id="Android-" stroke="none" stroke-width="1" fill="none" fill-rule="evenodd">
        <g id="UI-KIT" transform="translate(-216.000000, -527.000000)" stroke="#FFFFFF">
            <g id="icons8-service" transform="translate(216.000000, 528.000000)">
                <path d="M34.983,13.544 L35,10.547 L31.447,9.945 C31.249,9.116 30.925,8.311 30.478,7.556 L32.566,4.618 L30.458,2.487 L27.536,4.564 C26.789,4.106 25.988,3.768 25.16,3.556 L24.591,0.017 L21.594,0 L20.95,3.522 C20.115,3.723 19.308,4.048 18.548,4.497 L15.654,2.404 L13.522,4.511 L15.553,7.451 C15.094,8.203 14.76,9.007 14.55,9.841 L11.019,10.407 L11,13.407 L14.529,14.049 C14.731,14.88 15.057,15.685 15.507,16.439 L13.404,19.347 L15.512,21.479 L18.479,19.431 C19.227,19.882 20.03,20.215 20.855,20.419 L21.458,23.982 L24.456,24 L25.057,20.437 C25.882,20.236 26.68,19.914 27.429,19.468 L30.381,21.563 L32.513,19.456 L30.419,16.51 C30.872,15.766 31.203,14.972 31.413,14.149 L34.983,13.544 Z" id="Path" stroke-linecap="round" stroke-linejoin="round"></path>
                <path d="M22.9607111,8.0292969 C21.5259325,8.0292969 20.2001423,8.79474214 19.482753,10.0372969 C18.7653637,11.2798516 18.7653637,12.8107422 19.482753,14.0532969 C20.2001423,15.2958517 21.5259325,16.0612969 22.9607111,16.0612969 C24.3954897,16.0612969 25.7212799,15.2958517 26.4386692,14.0532969 C27.1560585,12.8107422 27.1560585,11.2798516 26.4386692,10.0372969 C25.7212799,8.79474214 24.3954897,8.0292969 22.9607111,8.0292969 Z" id="Path" stroke-linecap="round" stroke-linejoin="round" transform="translate(22.960711, 12.045297) rotate(-44.676000) translate(-22.960711, -12.045297) "></path>
                <path d="M29,31.625 L35.543,27.568 C35.771,27.421 36.596,27 37.375,27 M37.375,27 C39.5,27 40.125,28.25 40.125,28.25 M23.25,30.875 C23.25,30.875 29.576,26.927 29.813,26.787 C30.461,26.405 31.563,26.019 32.565,26.019 C34.626,26.019 35.501,27.5 35.501,27.5" id="Shape"></path>
                <path d="M5.845,40.627 L8.319,39.043 C9.687,38.185 10.446,38.037 12.215,38.934 C13.927,39.802 19.191,42.501 20.507,43.13 C24.552,45.062 26.287,43.332 28.241,42.221 C29.908,41.274 41.712,33.567 42.953,32.703 C44.89,31.356 45.483,29.987 44.602,28.856 C43.935,28.001 42.445,27.48 39.403,29.252" id="Path" stroke-linecap="round" stroke-linejoin="round"></path>
                <path d="M16,35 C16,35 19.778,36 22.25,36 C22.25,36 26.217,36 27.5,36 C29.796,36 31,35.064 31,33.5 C31,32.068 29.859,31 27.5,31 C25.25,31 22.5,30.75 20.016,29.64 C18.541,28.771 17.888,26 12.422,26 C9.954,26 9.041,26.53 7.675,27.06 C5.266,27.997 0.993,30.011 0.993,30.011 M39.397,29.253 L29.875,35.5" id="Shape" stroke-linecap="round" stroke-linejoin="round"></path>
            </g>
        </g>
    </g>
</svg>