<?xml version="1.0" encoding="UTF-8"?>
<svg width="43px" height="41px" viewBox="0 0 43 41" version="1.1" xmlns="http://www.w3.org/2000/svg" xmlns:xlink="http://www.w3.org/1999/xlink">
    <title>3F2B5E7B-23AD-4F04-947F-695B72F2496C</title>
    <g id="Android-" stroke="none" stroke-width="1" fill="none" fill-rule="evenodd">
        <g id="UI-KIT" transform="translate(-218.000000, -787.000000)">
            <g id="icons8-dog" transform="translate(219.000000, 788.000000)">
                <path d="M9,31.3529412 L9,36.0588235 C9,37.6611765 10.2845714,39 11.8417143,39 L15.2857143,39 C15.2857143,39 15.3474286,36.6470588 13,36.6470588 L13,33.7058824 C13,33.7058824 15.8571429,32.5294118 17,29" id="Path" stroke="#FFFFFF" stroke-linejoin="round"></path>
                <path d="M35.549399,3.71709649 C33.8489202,0.229306026 31.5004449,0.0187066017 30.2577197,0.0187066017 L28.3353885,0.0187066017 C26.3861306,0.0187066017 25.1041862,1.42750275 24.5363843,2.97009853 C24.251898,3.74349642 21.9268372,10.1958788 21.1207927,12.3444729 C20.3147482,14.492467 18.400612,15.0000656 16.9758391,15.0000656 L9.65880479,15.0000656 C9.40007445,15.0000656 8.19539793,15.0000656 8.19539793,15.0000656 C6.30233481,14.5530669 3.38664298,13.4838698 2.63445186,10.8000771 C1.9173825,8.24168411 2.69298813,5.2494923 4.75287963,2.05390104 C5.11346308,1.49410257 5.06663406,0.72130468 4.56205137,0.294105849 C3.98488371,-0.194892814 3.14254672,-0.0538931997 2.73864643,0.567105102 C0.211050096,4.45269448 -0.521824059,8.35388381 0.353878606,11.4534753 C1.17924007,14.3688674 3.0957177,16.7988607 4.68322146,18.0000574 C4.00595677,19.0788545 3.51249597,19.8000525 3.51249597,22.2000459 C3.51249597,29.4000263 0,31.2000213 0,31.2000213 L0,36.0402081 C0,37.6746036 1.29338581,39 2.88849929,39 L6.43930969,39 C6.43930969,39 6.50252887,36.6000066 4.09785872,36.6000066 L4.09785872,33.6000148 C10.5953852,30.6402229 12.8782999,27.6000312 12.8782999,27.6000312 C16.4882319,27.6000312 17.0536923,30.0000246 22.8294665,30.0000246 L22.8294665,36 C22.8294665,37.6500037 24.1465327,38.997 25.7568656,38.9934 L29.288359,38.9844 C29.288359,38.9844 29.0934333,36.6000066 26.9275911,36.6000066 L26.9275911,28.8000279 L26.9275911,28.8000279 C29.8362586,28.8000279 32.1935143,26.3808345 32.1894168,23.3994427 C32.1859046,20.7498499 32.1894168,18.2658567 32.192929,15.597664 C32.1935143,14.2716676 33.2430697,13.2000706 34.5367214,13.2000706 L34.5367214,13.2000706 C41.7513172,13.2000706 40.9757116,7.20008696 40.9757116,7.20008696 C40.9757116,7.20008696 36.751734,6.18308974 35.549399,3.71709649 Z" id="Path" stroke="#FFFFFF" stroke-linejoin="round"></path>
                <path d="M25.812,7.53365579 C25.438,8.68954982 25,10.3595495 25,11.8411188 C25,13.2771273 26,15 28,15 C30,15 31,13.2771273 31,11.8411188 C31,10.3527998 30.3733333,8.71092401 29.7693333,7.47347055 C29.2186667,6.3445755 27.732,5.75341023 26.3333333,6.09764729" id="Path" stroke="#FFFFFF" stroke-linecap="round" stroke-linejoin="round"></path>
                <path d="M30,38.9936316 L33,39 C33,39 32.8488919,36.6842105 30.985225,36.6842105 L30.985225,28" id="Path" stroke="#FFFFFF" stroke-linejoin="round"></path>
                <path d="M39.8571429,6.14285714 C39.2259603,6.14285714 38.7142857,6.78245036 38.7142857,7.57142857 C38.7142857,8.36040679 39.2259603,9 39.8571429,9 C40.4883254,9 41,8.36040679 41,7.57142857 C41,6.78245036 40.4883254,6.14285714 39.8571429,6.14285714 Z M33.8571429,4 C33.3837559,4 33,4.47969491 33,5.07142857 C33,5.66316223 33.3837559,6.14285714 33.8571429,6.14285714 C34.3305298,6.14285714 34.7142857,5.66316223 34.7142857,5.07142857 C34.7142857,4.47969491 34.3305298,4 33.8571429,4 Z" id="Shape" fill="#FFFFFF" fill-rule="nonzero"></path>
            </g>
        </g>
    </g>
</svg>