<?xml version="1.0" encoding="UTF-8"?>
<svg width="41px" height="41px" viewBox="0 0 41 41" version="1.1" xmlns="http://www.w3.org/2000/svg" xmlns:xlink="http://www.w3.org/1999/xlink">
    <title>1EE67C40-18E0-4A61-966F-4651087679C2</title>
    <g id="Android-" stroke="none" stroke-width="1" fill="none" fill-rule="evenodd" stroke-linecap="round">
        <g id="UI-KIT" transform="translate(-510.000000, -528.000000)" stroke="#FFFFFF">
            <g id="icons8-tree_planting" transform="translate(511.000000, 529.000000)">
                <path d="M16.7111124,25.2337762 C16.7111124,23.7308489 18.0527785,22.8805937 19.7352357,23.3008627 C20.3969119,21.3655199 23.1001501,21.6740411 23.6790173,22.6554785 C24.0651941,21.729915 25.2372609,21.0059834 25.9960785,21.000315 C27.2971363,20.9905978 28.8641386,21.1962786 29.5202411,22.9356578 C32.4281132,21.5792983 34.0771283,23.7178926 34.0771283,25.3439045 M5,35.9648066 L7.14825818,34.5396169 C8.33624973,33.7679091 8.99553726,33.6342976 10.5314861,34.4416351 C12.018068,35.2222504 16.5892875,37.6507412 17.7318934,38.2167682 C21.2441123,39.9553377 22.7506003,38.3989658 24.4473898,37.3989037 C25.8949559,36.547029 36.1449661,29.6121856 37.2222802,28.8348094 C38.9039411,27.6225884 39.4191091,26.390933 38.6539215,25.3730561 C38.0750543,24.6037776 36.7811627,24.1349225 34.1392351,25.7293535" id="Shape" stroke-linejoin="round"></path>
                <path d="M13.8006781,31.1818182 C13.8006781,31.1818182 16.6444296,32 18.8330548,32 C18.8330548,32 22.4066186,32 23.5423332,32 C25.5750919,32 26.7895516,31.3765455 26.7895516,29.9545455 C26.7895516,28.6528182 25.6311064,27.9090909 23.5423332,27.9090909 C21.6313452,27.9090909 17.9124684,26.9559091 16.8416981,26.3087273 C15.5363163,25.5191818 14.9574996,23 10.1183325,23 C7.9337663,23 7.12520892,23.4819091 5.91562008,23.9638182 C3.78300941,24.8155455 0,26.6466364 0,26.6466364 M34,25.9577273 L26.6669691,30.929" id="Shape" stroke-linejoin="round"></path>
                <path d="M27,21 C28.415815,13.9345026 28.2240198,9.779554 27.0766217,5" id="Path"></path>
                <path d="M27.7816188,14.944515 C28.6938762,15.5851318 30.4558363,16.2578597 32.5401273,14.4532148 C34.9041772,12.406131 35.8876776,5.1377791 23.4601251,0 C23.9805462,3.45194533 18.0056945,6.17817937 19.1447131,12.0777948 C20.1568844,17.3135128 26.5904713,16.2193264 27.7816188,14.944515 Z" id="Path" stroke-linejoin="round"></path>
            </g>
        </g>
    </g>
</svg>