<?xml version="1.0" encoding="UTF-8"?>
<svg width="37px" height="45px" viewBox="0 0 37 45" version="1.1" xmlns="http://www.w3.org/2000/svg" xmlns:xlink="http://www.w3.org/1999/xlink">
    <title>8EB019E9-621D-4BF7-983E-2DABDDF91673</title>
    <g id="Android-" stroke="none" stroke-width="1" fill="none" fill-rule="evenodd">
        <g id="UI-KIT" transform="translate(-37.000000, -526.000000)">
            <g id="icons8-barbershop" transform="translate(38.000000, 527.000000)">
                <path d="M31.4705882,0.443298969 L28.8235294,0.443298969 L28.8235294,39.8969072 C28.8235294,41.5814433 30.2352941,43 31.9117647,43 L31.9117647,43 C33.5882353,43 35,41.5814433 35,39.8969072 L35,3.98969072 C35,2.03917526 33.4117647,0.443298969 31.4705882,0.443298969 Z M28.8235294,0.443298969 L20,0.443298969 M28.8235294,3.98969072 L20,3.98969072 M28.8235294,7.53608247 L20,7.53608247 M28.8235294,11.0824742 L20,11.0824742 M28.8235294,14.628866 L20,14.628866 M28.8235294,18.1752577 L20,18.1752577 M28.8235294,21.7216495 L20,21.7216495 M28.8235294,25.2680412 L20,25.2680412" id="Shape" stroke="#FCFFFF" stroke-linecap="round" stroke-linejoin="round"></path>
                <path d="M11,21 C9.8954305,21 9,21.8954305 9,23 C9,24.1045695 9.8954305,25 11,25 C12.1045695,25 13,24.1045695 13,23 C13,21.8954305 12.1045695,21 11,21 Z" id="Path" fill="#FCFFFF" fill-rule="nonzero"></path>
                <path d="M17.2941176,32.5924708 C16.4117647,32.4179268 15.5294118,32.5924708 14.8235294,32.9415589 L14.8235294,28.1415979 L14.8235294,17.0580515 C14.8235294,13.6544427 13.1470588,5.625417 12.4411765,2.3963523 C12.2647059,1.61090413 11.5588235,1 10.6764706,1 L10.2352941,1 C9.52941176,1.08727202 8.82352941,1.61090413 8.64705882,2.3963523 C7.85294118,5.625417 6,13.7417148 6,17.0580515 L6,25.0870772 C6,26.7452456 7.41176471,28.1415979 9.08823529,28.1415979 L9.08823529,28.1415979 C10.7647059,28.1415979 12.1764706,29.5379502 12.1764706,31.1961185 L12.1764706,36.8687997 L12.1764706,38.4396961 C12.1764706,40.7087686 13.8529412,42.716025 16.1470588,42.9778411 C18.7941176,43.2396571 21,41.1451287 21,38.6142401 L21,37.0433438 C21,34.8615433 19.5,32.9415589 17.2941176,32.5924708 Z" id="Path" stroke="#FCFFFF" stroke-linejoin="round"></path>
                <path d="M9,29.2380952 L9,37.3333333 C9,37.5761905 9,38.7095238 9,38.952381 C9,41.2190476 7.02,43 4.5,43 C1.98,43 0,41.2190476 0,38.952381 C0,38.7095238 0,37.5761905 0,37.3333333 C0,35.0666667 1.98,33.2857143 4.5,33.2857143 C5.13,33.2857143 5.76,33.447619 6.3,33.6095238 L6.279953,26.2648773" id="Path" stroke="#FCFFFF" stroke-linejoin="round"></path>
                <path d="M19,36.6666667 C19,35.75 18.2,35 17.2222222,35 C16.2444444,35 15.4444444,35.75 15.4444444,36.6666667 C15.4444444,37 15.4444444,38 15.4444444,38.3333333 C15.4444444,39.25 16.2444444,40 17.2222222,40 C18.2,40 19,39.25 19,38.3333333 C19,38 19,37 19,36.6666667 Z M6.55555556,36.6666667 C6.55555556,35.75 5.75555556,35 4.77777778,35 C3.8,35 3,35.75 3,36.6666667 C3,37 3,38 3,38.3333333 C3,39.25 3.8,40 4.77777778,40 C5.75555556,40 6.55555556,39.25 6.55555556,38.3333333 C6.55555556,38 6.55555556,37 6.55555556,36.6666667 Z" id="Shape" fill="#FCFFFF" fill-rule="nonzero"></path>
            </g>
        </g>
    </g>
</svg>