<?xml version="1.0" encoding="UTF-8"?>
<svg width="50px" height="50px" viewBox="0 0 50 50" version="1.1" xmlns="http://www.w3.org/2000/svg" xmlns:xlink="http://www.w3.org/1999/xlink">
    <title>8DA9242D-BE43-49ED-8680-B615A1E98464</title>
    <g id="Android-" stroke="none" stroke-width="1" fill="none" fill-rule="evenodd" stroke-linecap="round" stroke-linejoin="round">
        <g id="UI-KIT" transform="translate(-505.000000, -782.000000)" stroke="#FFFFFF">
            <g id="icons8-helping_hand" transform="translate(530.000000, 807.500000) rotate(37.000000) translate(-530.000000, -807.500000) translate(513.000000, 790.000000)">
                <path d="M23.507339,31.8202163 L27.2213391,31.8202163 C28.4451868,31.8202163 29.4655091,30.8344744 29.5713153,29.5506679 L29.5713153,29.5506679 C29.6899261,28.0993776 28.6035591,26.8524744 27.2206652,26.8524744 L26.6882645,26.8524744 M12.0506155,9.8202163 L10.8449638,9.8202163 C9.49307046,9.8202163 8.23013518,10.5320228 7.48073068,11.7164744 L4.63744148,16.2073131 L0.593892021,19.0460228 L3.28959166,31.8202163 L7.33314112,31.8202163 M28.2248133,16.9169905 L29.2350268,16.9169905 C30.4433741,16.9169905 31.4556094,15.9560873 31.5809594,14.6907324 L31.5809594,14.6907324 C31.7258532,13.2245389 30.6347688,11.9492486 29.2350268,11.9492486 L21.4855642,11.9492486 M27.5508884,21.8847324 L28.5570583,21.8847324 C29.7633839,21.8847324 30.7756191,20.9259582 30.902317,19.6627324 L30.902317,19.6627324 C31.0499066,18.1958292 29.9581482,16.9169905 28.5570583,16.9169905 L28.2248133,16.9169905 M26.8769635,26.8524744 L27.8851552,26.8524744 C29.0961982,26.8524744 30.1104552,25.8866034 30.2317617,24.6184099 L30.2317617,24.6184099 C30.3719381,23.155055 29.2815276,21.8847324 27.8851552,21.8847324 L27.5508884,21.8847324" id="Shape"></path>
                <path d="M10.3593893,28.4220921 L10.3593893,28.4220921 C9.26925771,28.4220921 8.38570508,29.393624 8.38570508,30.5923049 L8.38570508,32.0391134 C8.38570508,33.2377942 9.26925771,34.2093262 10.3593893,34.2093262 L10.3593893,34.2093262 C11.4495209,34.2093262 12.3330735,33.2377942 12.3330735,32.0391134 L12.3330735,30.5923049 C12.3330735,29.393624 11.4495209,28.4220921 10.3593893,28.4220921 Z M14.3067577,28.4220921 L14.3067577,28.4220921 C13.2166261,28.4220921 12.3330735,29.393624 12.3330735,30.5923049 L12.3330735,32.0391134 C12.3330735,33.2377942 13.2166261,34.2093262 14.3067577,34.2093262 L14.3067577,34.2093262 C15.3968893,34.2093262 16.2804419,33.2377942 16.2804419,32.0391134 L16.2804419,30.5923049 C16.2804419,29.393624 15.3968893,28.4220921 14.3067577,28.4220921 Z M18.2541261,28.4220921 L18.2541261,28.4220921 C17.1639946,28.4220921 16.2804419,29.393624 16.2804419,30.5923049 L16.2804419,32.0391134 C16.2804419,33.2377942 17.1639946,34.2093262 18.2541261,34.2093262 L18.2541261,34.2093262 C19.3442577,34.2093262 20.2278103,33.2377942 20.2278103,32.0391134 L20.2278103,30.5923049 C20.2278103,29.393624 19.3442577,28.4220921 18.2541261,28.4220921 Z M22.2014946,28.4220921 L22.2014946,28.4220921 C21.111363,28.4220921 20.2278103,29.393624 20.2278103,30.5923049 L20.2278103,32.0391134 C20.2278103,33.2377942 21.111363,34.2093262 22.2014946,34.2093262 L22.2014946,34.2093262 C23.2916261,34.2093262 24.1751788,33.2377942 24.1751788,32.0391134 L24.1751788,30.5923049 C24.1751788,29.393624 23.2916261,28.4220921 22.2014946,28.4220921 Z M33.3857051,5.99656021 L22.2014946,0.209326163 L20.2205735,2.93149638 C19.8021524,3.50660276 19.2008367,3.88421978 18.5376788,3.98838999 L18.3521524,4.01732616 C16.2560998,4.3464751 14.4791261,5.88226233 13.6929419,8.04379425 L10.8718893,15.7950708 C10.3317577,17.278773 10.9883367,18.9628581 12.3376788,19.556773 L12.3376788,19.556773 C13.6870209,20.1506879 15.2185998,19.4287304 15.7587314,17.9450283 L18.0001788,11.7837942 L23.9778103,11.7837942 L30.0962314,11.7837942 L33.3857051,5.99656021 Z" id="Shape"></path>
            </g>
        </g>
    </g>
</svg>