<?xml version="1.0" encoding="UTF-8"?>
<svg width="39px" height="40px" viewBox="0 0 39 40" version="1.1" xmlns="http://www.w3.org/2000/svg" xmlns:xlink="http://www.w3.org/1999/xlink">
    <title>4A2A15F9-DA59-4A97-93FA-2084EF4018CD</title>
    <g id="PC-(responsive-format)-V2" stroke="none" stroke-width="1" fill="none" fill-rule="evenodd">
        <g id="UI-KIT" transform="translate(-1577.000000, -298.000000)">
            <g id="icons8-about" transform="translate(1578.000000, 299.000000)">
                <path d="M17.921875,11.5219298 C17.7484375,11.5219298 17.575,11.4407895 17.575,11.1973684 L17.575,9.0877193 C17.575,8.9254386 17.6617188,8.76315789 17.921875,8.76315789 L20.003125,8.76315789 C20.1765625,8.76315789 20.35,8.84429825 20.35,9.0877193 L20.35,11.1973684 C20.35,11.3596491 20.2632812,11.5219298 20.003125,11.5219298 L17.921875,11.5219298 Z M18.0085937,26.2083333 C17.8351562,26.2083333 17.6617187,26.127193 17.6617187,25.8837719 L17.6617187,15.0109649 C17.6617187,14.8486842 17.7484375,14.6864035 18.0085937,14.6864035 L20.003125,14.6864035 C20.1765625,14.6864035 20.35,14.7675439 20.35,15.0109649 L20.35,25.9649123 C20.35,26.127193 20.2632812,26.2894737 20.003125,26.2894737 L18.0085937,26.2894737 L18.0085937,26.2083333 Z" id="Shape" fill="#B5B5B5" fill-rule="nonzero"></path>
                <path d="M18.5386221,0 C8.2651357,0 0,7.61600555 0,16.9957176 C0,21.8058264 2.16283925,26.1349243 5.71607516,29.261495 C4.71189979,33.5104244 -0.154488518,35.274131 0.154488518,36.4766582 C3.24425887,38.3205332 11.5866388,34.7931201 14.2129436,33.5905929 C15.6033403,33.9112668 16.993737,34.0716038 18.4613779,34.0716038 C28.7348643,34.0716038 37,26.4555982 37,17.0758861 C37,7.69617403 28.8121086,0 18.5386221,0 Z" id="Path" stroke="#B5B5B5" stroke-width="2" stroke-linecap="round"></path>
            </g>
        </g>
    </g>
</svg>