<?xml version="1.0" encoding="UTF-8"?>
<svg width="34px" height="33px" viewBox="0 0 34 33" version="1.1" xmlns="http://www.w3.org/2000/svg" xmlns:xlink="http://www.w3.org/1999/xlink">
    <title>5C979B52-0532-49B2-AC27-917448CB201B</title>
    <g id="PC-(responsive-format)-V2" stroke="none" stroke-width="1" fill="none" fill-rule="evenodd" stroke-linecap="round" stroke-linejoin="round">
        <g id="UI-KIT" transform="translate(-1238.000000, -301.000000)" stroke="#B5B5B5" stroke-width="2">
            <g id="icons8-tune" transform="translate(1239.000000, 302.000000)">
                <path d="M32,16.529979 L28.2597403,16.529979 M21.6935065,16.529979 L0,16.529979 M26.1818182,14.275891 L26.1818182,18.7840671 C26.1818182,19.6143229 25.5123117,20.2867925 24.6857143,20.2867925 L23.1896104,20.2867925 C22.363013,20.2867925 21.6935065,19.6143229 21.6935065,18.7840671 L21.6935065,14.275891 C21.6935065,13.4456352 22.363013,12.7731656 23.1896104,12.7731656 L24.6857143,12.7731656 C25.5123117,12.7731656 26.1818182,13.4456352 26.1818182,14.275891 Z M8.22857143,3.75681342 L0,3.75681342 M12.7168831,1.50272537 L12.7168831,6.01090147 C12.7168831,6.84115723 12.0473766,7.51362683 11.2207792,7.51362683 L9.72467532,7.51362683 C8.89807792,7.51362683 8.22857143,6.84115723 8.22857143,6.01090147 L8.22857143,1.50272537 C8.22857143,0.672469602 8.89807792,0 9.72467532,0 L11.2207792,0 C12.0473766,0 12.7168831,0.672469602 12.7168831,1.50272537 Z M31.5428571,27.3601677 L13.2571429,27.3601677" id="Shape"></path>
                <line x1="29" y1="4.5" x2="15" y2="4.5" id="Path"></line>
                <path d="M5.71428571,27.5 L0,27.5 M10,25.4 L10,29.6 C10,30.3735 9.36071429,31 8.57142857,31 L7.14285714,31 C6.35357143,31 5.71428571,30.3735 5.71428571,29.6 L5.71428571,25.4 C5.71428571,24.6265 6.35357143,24 7.14285714,24 L8.57142857,24 C9.36071429,24 10,24.6265 10,25.4 Z" id="Shape"></path>
            </g>
        </g>
    </g>
</svg>