<?xml version="1.0" encoding="UTF-8"?>
<svg width="28px" height="33px" viewBox="0 0 28 33" version="1.1" xmlns="http://www.w3.org/2000/svg" xmlns:xlink="http://www.w3.org/1999/xlink">
    <title>2BB8192D-9C35-43B1-AB85-939AE952CD14</title>
    <g id="PC-(responsive-format)-V2" stroke="none" stroke-width="1" fill="none" fill-rule="evenodd" stroke-linecap="round" stroke-linejoin="round">
        <g id="UI-KIT" transform="translate(-1409.000000, -409.000000)" stroke="#B5B5B5" stroke-width="2">
            <g id="icons8-thumbs_up" transform="translate(1410.000000, 410.000000)">
                <path d="M10.5575758,11.9230769 C10.5575758,11.9230769 13.3151515,5.72307692 13.7090909,4.61025641 C13.9454545,3.97435897 14.1818182,3.57692308 14.1818182,2.86153846 C14.1818182,0.794871795 12.6848485,0 11.8181818,0 C11.1878788,0 10.4787879,0.397435897 10.0060606,1.19230769 L1.18181818,13.4333333 C0.393939394,14.5461538 0,15.8179487 0,17.1692308 L0,24.6410256 C0,28.1384615 2.83636364,31 6.3030303,31 C6.3030303,31 19.6969697,31 21.2727273,31 C23.2424242,31 24.4242424,29.4102564 24.4242424,28.3769231 C24.4242424,27.1846154 23.8727273,26.3897436 23.8727273,26.3897436 C23.8727273,26.3897436 26,25.5948718 26,23.6871795 C26,22.0179487 24.4242424,21.3820513 24.4242424,21.3820513 C24.4242424,21.3820513 26,20.5076923 26,18.8384615 C26,17.0102564 24.1878788,16.374359 24.1878788,16.374359 C24.1878788,16.374359 24.4242424,15.0230769 24.4242424,14.2282051 C24.4242424,13.1948718 23.4,12.0025641 21.5878788,12.0025641 C18.9090909,11.9230769 10.5575758,11.9230769 10.5575758,11.9230769 Z" id="Path"></path>
            </g>
        </g>
    </g>
</svg>