<?xml version="1.0" encoding="UTF-8"?>
<svg width="33px" height="28px" viewBox="0 0 33 28" version="1.1" xmlns="http://www.w3.org/2000/svg" xmlns:xlink="http://www.w3.org/1999/xlink">
    <title>34C845E1-B4DC-45EE-A0C0-07DB40D29687</title>
    <defs>
        <filter id="filter-1">
            <feColorMatrix in="SourceGraphic" type="matrix" values="0 0 0 0 0.709804 0 0 0 0 0.709804 0 0 0 0 0.709804 0 0 0 1.000000 0"></feColorMatrix>
        </filter>
    </defs>
    <g id="PC-(responsive-format)-V2" stroke="none" stroke-width="1" fill="none" fill-rule="evenodd" stroke-linecap="round">
        <g id="icons8-handshake" transform="translate(-1575.000000, -199.000000)" filter="url(#filter-1)">
            <g transform="translate(1576.000000, 200.000000)">
                <path d="M1.16666667,11.6174437 L3.39990731,13 M14,3.2816197 L5.01992032,3.2816197 L0,2" id="Shape" stroke="#B5B5B5" stroke-width="2"></path>
                <path d="M20.7376102,6.49055973 L17.1512912,7.9008347 C15.0546739,8.74699968 12.6821859,8.1828897 11.1924842,6.49055973 L11.1924842,6.49055973 C10.8614393,6.15209374 10.9717876,5.58798375 11.4131807,5.41875076 L21.454874,0.398171869 C22.668705,-0.222349117 24.1032326,-0.109527119 25.2067154,0.680226863 L25.4825861,1.01869286 C26.3653723,1.63921384 27.413681,1.80844684 28.4068155,1.52639184 L31,0.962281857 M27.9315281,13.041013 L25.7245626,13.379479 L25.1176471,14" id="Shape" stroke="#B5B5B5" stroke-width="2"></path>
                <path d="M11.4633205,23.4961832 L11.4633205,23.4961832 C12.1428571,24.1679389 13.1930502,24.1679389 13.8725869,23.4961832 L14.4903475,22.8854962 C15.1698842,22.2137405 15.1698842,21.1755725 14.4903475,20.5038168 L14.4903475,20.5038168 C13.8108108,19.8320611 12.7606178,19.8320611 12.0810811,20.5038168 L11.4633205,21.1145038 C10.8455598,21.7862595 10.8455598,22.8854962 11.4633205,23.4961832 Z" id="Path" stroke="#B5B5B5" stroke-width="2"></path>
                <path d="M8.57653352,20.4821919 L8.57653352,20.4821919 C9.17527483,21.2752569 10.1031585,21.2733397 10.7052079,20.4777937 L11.2525255,19.75457 C11.8545749,18.9590239 11.8571312,17.7314608 11.2583899,16.9383958 L11.2583899,16.9383958 C10.6596486,16.1453308 9.73176484,16.147248 9.12971546,16.9427941 L8.58239785,17.6660177 C7.98034847,18.4615638 7.97779222,19.6891269 8.57653352,20.4821919 Z" id="Path" stroke="#B5B5B5" stroke-width="2" transform="translate(9.917462, 18.710294) rotate(14.000000) translate(-9.917462, -18.710294) "></path>
                <path d="M6.50381679,17.370229 L6.50381679,17.370229 C7.17557252,18.2099237 8.21374046,18.2099237 8.88549618,17.370229 L9.49618321,16.6068702 C10.1679389,15.7671756 10.1679389,14.4694656 9.49618321,13.629771 L9.49618321,13.629771 C8.82442748,12.7900763 7.78625954,12.7900763 7.11450382,13.629771 L6.50381679,14.3931298 C5.83206107,15.2328244 5.83206107,16.5305344 6.50381679,17.370229 Z" id="Path" stroke="#B5B5B5" stroke-width="2"></path>
                <path d="M3.50381679,15.370229 L3.50381679,15.370229 C4.17557252,16.2099237 5.21374046,16.2099237 5.88549618,15.370229 L6.49618321,14.6068702 C7.16793893,13.7671756 7.16793893,12.4694656 6.49618321,11.629771 L6.49618321,11.629771 C5.82442748,10.7900763 4.78625954,10.7900763 4.11450382,11.629771 L3.50381679,12.3931298 C2.83206107,13.2328244 2.83206107,14.5305344 3.50381679,15.370229 Z" id="Path" stroke="#B5B5B5" stroke-width="2"></path>
                <path d="M18.5211268,8 C18.5211268,8 25.1690141,14.9242054 25.4507042,15.2176039 C26.1830986,15.9804401 26.1830986,17.2127139 25.4507042,17.9755501 C24.7183099,18.7383863 23.5352113,18.7383863 22.8028169,17.9755501 C23.5352113,18.7383863 23.5352113,19.9706601 22.8028169,20.7334963 C22.0704225,21.4963325 20.8873239,21.4963325 20.1549296,20.7334963 C20.0985915,20.6748166 19.9295775,20.4987775 19.7605634,20.3227384 C20.4929577,21.0855746 20.4929577,22.3178484 19.7605634,23.0806846 C19.028169,23.8435208 17.8450704,23.8435208 17.1126761,23.0806846 C17.056338,23.0220049 16.8873239,22.8459658 16.7183099,22.6699267 C17.4507042,23.4327628 17.4507042,24.6650367 16.7183099,25.4278729 C15.9859155,26.190709 14.8028169,26.190709 14.0704225,25.4278729 C13.7887324,25.1344743 13,24.3129584 13,24.3129584" id="Path" stroke="#B5B5B5" stroke-width="2" stroke-linejoin="round"></path>
            </g>
        </g>
    </g>
</svg>