<?xml version="1.0" encoding="UTF-8"?>
<svg width="38px" height="38px" viewBox="0 0 38 38" version="1.1" xmlns="http://www.w3.org/2000/svg" xmlns:xlink="http://www.w3.org/1999/xlink">
    <title>163C767E-8D3D-4021-A7D7-E72FAADCC31F</title>
    <g id="PC-(responsive-format)-V2" stroke="none" stroke-width="1" fill="none" fill-rule="evenodd">
        <g id="UI-KIT" transform="translate(-1575.000000, -402.000000)">
            <g id="icons8-help" transform="translate(1576.000000, 403.000000)">
                <path d="M18,0 C8.0588745,0 0,8.0588745 0,18 C0,27.9411255 8.0588745,36 18,36 C27.9411255,36 36,27.9411255 36,18 C36,8.0588745 27.9411255,0 18,0 Z" id="Path" stroke="#B5B5B5" stroke-width="2" stroke-linecap="round"></path>
                <path d="M17.1933525,21.9463428 L17.1933525,20.7663846 C17.1933525,19.613718 17.4467848,19.0100931 18.0394386,18.1744901 L19.9315234,15.5256044 C20.9184927,14.1441704 21.2569271,13.481949 21.2569271,12.502664 C21.2569271,10.8619602 20.1282876,9.82568404 18.5187563,9.82568404 C16.9383461,9.82568404 15.9222557,10.8041664 15.5838212,12.5604578 C15.5554872,12.7330367 15.442938,12.8197276 15.2729337,12.7908306 L13.4949723,12.473767 C13.324968,12.4448701 13.2407529,12.330085 13.2682999,12.1567034 C13.6925236,9.39303271 15.6404893,7.57894737 18.5762114,7.57894737 C21.6236956,7.57894737 23.6842105,9.62260281 23.6842105,12.4729643 C23.6842105,13.855201 23.2056799,14.8625803 22.2454706,16.2159201 L20.3541729,18.8648058 C19.7898531,19.6418122 19.6198488,20.0447639 19.6198488,21.0232462 L19.6198488,21.9439347 C19.6198488,22.1165136 19.5072997,22.2313639 19.3380825,22.2313639 L17.4751189,22.2313639 C17.3059016,22.2345094 17.1933525,22.1189217 17.1933525,21.9463428 Z M17.0524693,24.7108162 C17.0524693,24.5382373 17.1650185,24.4234522 17.3350227,24.4234522 L19.4805398,24.4234522 C19.649757,24.4234522 19.7623061,24.53904 19.7623061,24.7108162 L19.7623061,27.1863202 C19.7623061,27.3597019 19.6489699,27.4736842 19.4805398,27.4736842 L17.3350227,27.4736842 C17.1642314,27.4736842 17.0524693,27.3588992 17.0524693,27.1863202 L17.0524693,24.7108162 Z" id="Shape" fill="#B5B5B5" fill-rule="nonzero"></path>
            </g>
        </g>
    </g>
</svg>