<?xml version="1.0" encoding="UTF-8"?>
<svg width="38px" height="38px" viewBox="0 0 38 38" version="1.1" xmlns="http://www.w3.org/2000/svg" xmlns:xlink="http://www.w3.org/1999/xlink">
    <title>3E16214B-DD56-4AC8-83C6-6EDD97E763B4</title>
    <g id="PC-(responsive-format)-V2" stroke="none" stroke-width="1" fill="none" fill-rule="evenodd" stroke-linecap="round" stroke-linejoin="round">
        <g id="UI-KIT" transform="translate(-1405.000000, -298.000000)" stroke="#B5B5B5" stroke-width="2">
            <g id="icons8-settings" transform="translate(1406.000000, 299.000000)">
                <path d="M36,20.2156364 L36,15.7156364 L30.6439384,14.8401818 C30.3264694,13.572 29.8289922,12.3799091 29.1727806,11.2876364 L32.2942861,6.83918182 L29.1114142,3.65890909 L24.7192145,6.81627273 C23.6244375,6.15354545 22.4241102,5.64790909 21.1468703,5.32963636 L20.2141006,0 L15.7138961,0 L14.8465839,5.31163636 C13.5685258,5.625 12.3616528,6.12409091 11.2636029,6.78354545 L6.88449475,3.65481818 L3.70244102,6.83509091 L6.78303559,11.2401818 C6.11700532,12.3422727 5.61052775,13.5474545 5.28896768,14.8336364 L0,15.714 L0,20.214 L5.28324015,21.1508182 C5.60234556,22.4337273 6.10882313,23.6389091 6.77730806,24.7434545 L3.65498432,29.1100909 L6.83540161,32.2936364 L11.2464203,29.2041818 C12.3477431,29.8652727 13.5513432,30.3684545 14.8294013,30.6834545 L15.7138961,36 L20.2141006,36 L21.1599618,30.6711818 C22.4314742,30.3488182 23.6326197,29.8423636 24.7233056,29.1788182 L29.1645984,32.2952727 L32.3458339,29.1117273 L29.1752352,24.7099091 C29.8314469,23.6176364 30.3297423,22.4239091 30.6439384,21.1557273 L36,20.2156364 Z" id="Path"></path>
                <path d="M18,12.3157895 C14.8606972,12.3157895 12.3157895,14.8606972 12.3157895,18 C12.3157895,21.1393028 14.8606972,23.6842105 18,23.6842105 C21.1393028,23.6842105 23.6842105,21.1393028 23.6842105,18 C23.6842105,14.8606972 21.1393028,12.3157895 18,12.3157895 Z" id="Path"></path>
            </g>
        </g>
    </g>
</svg>