<?xml version="1.0" encoding="UTF-8"?>
<svg width="43px" height="42px" viewBox="0 0 43 42" version="1.1" xmlns="http://www.w3.org/2000/svg" xmlns:xlink="http://www.w3.org/1999/xlink">
    <title>FE7E3B28-483B-4BB4-8A97-6D727B5F740F</title>
    <g id="Android-" stroke="none" stroke-width="1" fill="none" fill-rule="evenodd">
        <g id="UI-KIT" transform="translate(-982.000000, -779.000000)">
            <g id="Group" transform="translate(983.000000, 779.000000)">
                <g id="icons8-housekeeper" transform="translate(0.000000, 9.000000)">
                    <path d="M26.9942197,22 L25,24.1848739 C25,26.6218487 27.9479769,32 31.416185,32 L40,23.6806723 C40,23.6806723 34.7109827,25.3613445 26.9942197,22 Z" id="Path" stroke="#FFFFFF" stroke-linecap="round" stroke-linejoin="round"></path>
                    <path d="M21.177686,18.4166667 L23,20 M2,2 L17.1859504,15" id="Shape" stroke="#FFFFFF" stroke-linecap="round" stroke-linejoin="round"></path>
                    <path d="M39.5,16 C38.6715729,16 38,16.6715729 38,17.5 C38,18.3284271 38.6715729,19 39.5,19 C40.3284271,19 41,18.3284271 41,17.5 C41,16.6715729 40.3284271,16 39.5,16 Z" id="Path" stroke="#FFFFFF"></path>
                    <path d="M33.5,18 C32.6715729,18 32,18.6715729 32,19.5 C32,20.3284271 32.6715729,21 33.5,21 C34.3284271,21 35,20.3284271 35,19.5 C35,18.6715729 34.3284271,18 33.5,18 Z" id="Path" fill="#FFFFFF" fill-rule="nonzero"></path>
                    <path d="M27,21.5833333 L24.6566038,24 L22.4867925,21.4166667 L24.1358491,19.6666667 L27,21.5833333 Z M8.33962264,8 L4,20.8333333 L19.6226415,20.8333333 L17.8867925,15.4166667" id="Shape" stroke="#FFFFFF" stroke-linecap="round" stroke-linejoin="round"></path>
                    <path d="M16.5723841,9.27381252 L18.8044925,18.1117743 C18.9761932,18.8693139 19.6629958,19.3743403 20.4356487,19.3743403 C20.521499,19.3743403 20.6073493,19.3743403 20.6931997,19.3743403 C21.7234036,19.2059982 22.2385055,18.1959454 22.0668049,17.1858926 L19.1478938,4.89691715 C18.8044925,3.04515372 17.087486,1.69841669 15.0270782,1.69841669 L10.734562,1.69841669 C9.27510646,1.69841669 7.98735159,2.37178521 7.12884834,3.55018011 L5.92694379,5.31777247 L3.1797334,0.856706041 C2.66463145,0.099166458 1.72027788,-0.237517801 0.947624957,0.183337523 C0.00327138472,0.604192847 -0.25427959,1.78258775 0.260822359,2.6242984 L4.38163795,9.27381252 C4.63918892,9.7788389 5.41184185,10.1155232 5.92694379,10.1155232 C6.52789607,10.1155232 6.95714769,9.86300997 7.30054899,9.35798358 L8.15905224,8.09541761 M29.1065315,26.9497361 C29.1065315,26.9497361 30.823538,29.0540127 34,29.1381838 M12.7949698,21.0577616 L12.7949698,30.3165787 C12.7949698,31.2424604 13.5676227,32 14.5119763,32 L14.5119763,32 C15.4563298,32 16.2289828,31.2424604 16.2289828,30.3165787 L16.2289828,21.0577616 M9.36095679,21.0577616 L9.36095679,30.3165787 C9.36095679,31.2424604 10.1336097,32 11.0779633,32 L11.0779633,32 C12.0223169,32 12.7949698,31.2424604 12.7949698,30.3165787" id="Shape" stroke="#FFFFFF" stroke-linecap="round" stroke-linejoin="round"></path>
                </g>
                <circle id="Oval" stroke="#FFFFFF" fill="#D8D8D8" cx="13.5" cy="4.5" r="4"></circle>
            </g>
        </g>
    </g>
</svg>