<?xml version="1.0" encoding="UTF-8"?>
<svg width="44px" height="42px" viewBox="0 0 44 42" version="1.1" xmlns="http://www.w3.org/2000/svg" xmlns:xlink="http://www.w3.org/1999/xlink">
    <title>47738B97-7BB5-4069-90E1-73965DABB5DC</title>
    <g id="Android-" stroke="none" stroke-width="1" fill="none" fill-rule="evenodd">
        <g id="UI-KIT" transform="translate(-1163.000000, -501.000000)">
            <g id="icons8-confetti" transform="translate(1164.000000, 502.000000)">
                <path d="M16.7272275,22.5494597 C12.804738,18.4576828 10.6346508,13.9518404 11.4285198,11.8438072 L11.419818,11.8333333 L0.10952696,38.0556185 C-0.358360444,39.210533 0.756804669,40.3738266 1.86393738,39.8857461 L27,28.0859272 L26.9919676,28.0754534 C24.9718186,28.9049808 20.6503864,26.6419349 16.7272275,22.5494597 Z M19.6180856,2.93276984 C17.700769,1.10126587 15.0543223,1.00134127 14.5265449,1 L14.04,1 L14.04,3.68186905 L14.5691519,3.68253968 C15.0130897,3.69662302 16.5393837,4.0554127 17.5530188,5.03252778 C18.2622198,5.71791667 18.851159,6.73929365 18.851159,8.06983333 C18.851159,11.217123 16.7108991,15.4707596 16.5549023,15.7752279 C16.7012781,15.6793271 21.6,12.6858135 21.6,8.06983333 C21.5986256,5.91575397 20.9327188,4.18752778 19.6180856,2.93276984 Z" id="Shape" stroke="#FFFFFF" stroke-width="0.7" stroke-linejoin="round"></path>
                <path d="M40.9685517,23.4039979 C40.5223793,20.7168772 33.5307775,20 30.5713637,20 C24.3229844,20 22,22.6666619 22,22.6666619 C22,22.6666619 26.3571645,21.3648588 32.4279921,21.3648588 C32.4869576,21.3648588 38.3793103,21.9351038 38.3793103,23.785777 L38.3793103,24 L41,24 L41,23.785777 C40.9993448,23.654221 40.9888621,23.5271094 40.9685517,23.4039979 Z" id="Path" stroke="#FFFFFF" stroke-width="0.7" stroke-linejoin="round"></path>
                <polygon id="Path" stroke="#FFFFFF" stroke-width="0.7" stroke-linejoin="round" transform="translate(25.076032, 2.943231) rotate(-45.001000) translate(-25.076032, -2.943231) " points="23.1599511 1.02715041 27.0215619 0.997701956 26.9921134 4.85931067 23.1305027 4.88875913"></polygon>
                <polygon id="Path" stroke="#FFFFFF" stroke-width="0.7" stroke-linejoin="round" transform="translate(36.930194, 30.799602) rotate(-45.001000) translate(-36.930194, -30.799602) " points="35.2535802 29.1229897 38.6325749 29.0972216 38.6068069 32.4762146 35.2278121 32.5019826"></polygon>
                <polygon id="Path" stroke="#FFFFFF" stroke-width="0.7" stroke-linejoin="round" transform="translate(38.285032, 14.291666) rotate(-45.001000) translate(-38.285032, -14.291666) " points="36.6084189 12.6150532 39.9874136 12.5892851 39.9616456 15.9682781 36.5826508 15.9940461"></polygon>
                <path d="M20,17 C20,17 21.1158681,14.8037475 24.7393132,13.5323339 C26.4746211,12.9234953 28.0112509,12.726288 29.1331573,12.5822953 C30.6649243,12.3856096 30.7746836,12.3078744 30.8844428,12.0611044 C30.9566894,11.8972866 30.4572153,11.4136591 30.1328003,11.1220217 C29.3790736,10.4458822 27.9765169,9.1875114 29.4409001,7.86444826 C30.6795126,6.74589645 32.6489273,7.23108916 34.2327952,7.6218519 C34.7732553,7.75488861 36.0195093,8.20930028 36.4418741,8.21712597 C36.4418741,8.21712597 36.0111732,7.81905926 35.9007192,7.69541338 C35.3574803,7.08918334 34.7107342,6.09219056 35.2386902,4.90320755 C36.0070051,3.17112173 39.312982,3.00678226 40.6009167,3 L40.6106422,3 C41.3782624,3 42,3.46693277 42,4.04342519 C42,4.61991761 41.3782624,5.08685039 40.6106422,5.08685039 C38.1730139,5.0998932 38.082011,5.32162106 37.9729464,5.47813484 C37.7958033,5.73377401 38.0993779,6.33478692 38.5120172,6.89093255 C38.9899563,7.53576932 39.8812293,8.73570829 38.4175409,9.83495674 C37.1275222,10.8048205 34.9246953,10.0300772 33.3950124,9.65287904 C32.917768,9.53497199 32.1862711,9.30228818 31.7500128,9.26211631 C31.894506,9.42176036 32.0153801,9.62992369 32.1848817,9.78226376 C32.9267988,10.4484908 34.0493999,11.4548744 33.4853207,12.7247228 C32.8239863,14.2152557 31.0553338,14.4427224 29.4957797,14.64306 C28.4218061,14.7807922 26.1664452,15.2411415 24.6330274,15.5211023 C23.0631647,15.807717 20,17 20,17 Z" id="Path" stroke="#FFFFFF" stroke-width="0.7" stroke-linejoin="round"></path>
                <path d="M22.3246386,22.6778564 C22.3246386,22.6778564 23.6097185,21.727867 26.3901367,20.5 C25.5242475,19.3199905 24.6153106,17.3932712 23.4216309,16.2182617 C23.4020504,16.1989758 23.2007328,15.967406 23.1811523,15.9481201 C21.7018204,16.3966064 20,17 20,17 C20,17 20.5668818,15.9117324 21.7018204,14.5645788 C20.9969256,13.9474309 20.2891301,13.383855 19.5907621,12.8795652 C18.3586467,14.7124371 16.7661067,15.6524446 16.6718307,15.714588 C16.7798855,15.5017291 17.371649,13.7860011 17.7647076,11.6845556 C15.9401035,10.6116899 14.7582226,10.0085715 13.5,10 C12.7849524,9.99499996 12.6288046,10.1399271 12.2263184,10.5356445 C10.4539287,12.2813728 11.9282951,17.5096024 16.6522503,22.1617827 C21.3754802,26.8139629 26.64116,29.1696961 28.4150001,27.4239678 C29.5231062,26.3325304 28.697694,24.7744742 27,21.9658802 C23.5901079,22.3887407 22.3246386,22.6778564 22.3246386,22.6778564 Z" id="Shape" stroke="#FFFFFF" stroke-width="0.7" stroke-linejoin="round"></path>
                <path d="M4.06456236,33.4455484 C3.91048116,33.7792108 4.04164119,34.1806798 4.35744399,34.3431472 L5.50222911,34.9319237 C5.81866861,35.0943911 6.19941472,34.9560924 6.35349592,34.6231014 C6.50757712,34.289439 6.37641709,33.8879699 6.0606143,33.7255025 L4.91582917,33.136726 C4.59938968,32.9735873 4.21864357,33.111886 4.06456236,33.4455484 Z M5.46020697,30.4284885 C5.30612577,30.7621509 5.4372858,31.1636199 5.75308859,31.3260873 L6.89787372,31.9148638 C7.21431321,32.0773312 7.59505932,31.9390325 7.74914052,31.6060414 C7.90322172,31.2723791 7.77206169,30.87091 7.4562589,30.7084426 L6.31147377,30.1196661 C5.99503428,29.9565274 5.61428817,30.0948261 5.46020697,30.4284885 Z M6.85585157,27.4114286 C6.70177037,27.7450909 6.8329304,28.14656 7.1487332,28.3090274 L8.29351832,28.8978039 C8.60995781,29.0602713 8.99070392,28.9219726 9.14478513,28.5889815 C9.29886633,28.2553191 9.1677063,27.8538501 8.8519035,27.6913827 L7.70711838,27.1026062 C7.39067888,26.9394675 7.00993277,27.0777662 6.85585157,27.4114286 Z M8.25085948,24.3943686 C8.09677828,24.728031 8.22793831,25.1295001 8.5437411,25.2919675 L9.68852623,25.8807439 C10.0049657,26.0432113 10.3857118,25.9049127 10.539793,25.5719216 C10.6938742,25.2382592 10.5627142,24.8367902 10.2469114,24.6743228 L9.10212628,24.0855463 C8.78632349,23.9224076 8.40557738,24.0607062 8.25085948,24.3943686 Z M9.64650408,21.3773087 C9.49242288,21.7109711 9.62358291,22.1124401 9.9393857,22.2749075 L11.0841708,22.863684 C11.4006103,23.0261514 11.7813564,22.8878527 11.9354376,22.5548617 C12.0895188,22.2211993 11.9583588,21.8197303 11.642556,21.6572629 L10.4977709,21.0684864 C10.1819681,20.9053476 9.80122198,21.0436463 9.64650408,21.3773087 Z" id="Shape" fill="#FFFFFF" fill-rule="nonzero"></path>
            </g>
        </g>
    </g>
</svg>