<?xml version="1.0" encoding="UTF-8"?>
<svg width="44px" height="43px" viewBox="0 0 44 43" version="1.1" xmlns="http://www.w3.org/2000/svg" xmlns:xlink="http://www.w3.org/1999/xlink">
    <title>959FF442-4FBF-4A4D-9E80-42B9350373ED</title>
    <g id="Android-" stroke="none" stroke-width="1" fill="none" fill-rule="evenodd">
        <g id="UI-KIT" transform="translate(-1163.000000, -761.000000)">
            <g id="icons8-garden_shears" transform="translate(1164.000000, 761.000000)">
                <polygon id="Path" points="0 0 43 0 43 43 0 43"></polygon>
                <path d="M26.5227958,39.3684556 C24.815281,42.6529593 23.1722165,42.1138769 22.2732601,41.6561654 C21.3743038,41.1984539 20.3698834,39.4320266 21.5082266,37.24264 C23.6995372,33.0274563 24.1172087,28.4011799 24.1741259,26.1922981 L23.2375038,26.2202694 L23.1178104,22.2313986 L30.8803066,22 L31,25.9888708 L29.7344302,26.0270134 C29.6381732,28.8656723 29.086579,34.4370381 26.5227958,39.3684556 Z" id="Path" stroke="#FFFFFF" stroke-linejoin="round"></path>
                <path d="M24.6712082,21.7240396 C23.6014335,18.9508317 22.6571103,17.1705839 22.6571103,14.9570751 C22.6571103,1.85134955 33.0670066,1 38,1 C37.2722095,1.23854646 32.8178221,3.66194245 31.3880188,7.64895569 C30.3577699,10.5190995 31.5830701,11.6014092 31.5830701,14.227949 C31.5830701,16.8544888 30.0690596,18.799106 30.0690596,18.799106 L30.0587485,21.5689423 M14.9555914,12.5412654 L15.1944648,13.7744578 C12.3331396,14.4437366 6.5065191,16.1363206 2.06072433,19.6184246 C-0.900274669,21.9372985 0.00710053059,23.4199954 0.668728281,24.1971679 C1.33035603,24.9743405 3.34445401,25.5896723 5.31730767,24.0437564 C9.11694132,21.0674047 14.0138459,19.6959733 16.2444766,19.1935927 L16.4214835,20.1064755 L20.2056506,19.4439401 L18.7397584,11.87873 L14.9555914,12.5412654 Z M22.7095249,11.9562787 C21.5392171,12.2555154 20.106836,12.7309225 19.2140682,13.1574401 M19.9538883,18.2394069 C19.9538883,18.2394069 21.5830392,18.0952675 23.1142349,18.0076038" id="Shape" stroke="#FFFFFF" stroke-linejoin="round"></path>
                <path d="M31,18 C35.0296996,16.3929847 36.259028,14.0953366 37.6722916,12.6203803 C40.1520418,10.0327378 41,9.05657194 41,9.05657194 C41,9.05657194 36.4834627,6.12182836 31.3965575,10.0345224" id="Path" stroke="#FFFFFF" stroke-linejoin="round"></path>
                <path d="M27.5,13 C26.6715729,13 26,13.6715729 26,14.5 C26,15.3284271 26.6715729,16 27.5,16 C28.3284271,16 29,15.3284271 29,14.5 C29,13.6715729 28.3284271,13 27.5,13 Z" id="Path" fill="#FFFFFF" fill-rule="nonzero"></path>
            </g>
        </g>
    </g>
</svg>