<?xml version="1.0" encoding="UTF-8"?>
<svg width="33px" height="28px" viewBox="0 0 33 28" version="1.1" xmlns="http://www.w3.org/2000/svg" xmlns:xlink="http://www.w3.org/1999/xlink">
    <title>7ECA59E1-888B-4F80-8458-E34C3303E09A</title>
    <g id="PC-(responsive-format)-V2" stroke="none" stroke-width="1" fill="none" fill-rule="evenodd" stroke-linejoin="round">
        <g id="UI-KIT" transform="translate(-1237.000000, -412.000000)" stroke="#B5B5B5" stroke-width="2">
            <g id="icons8-bulleted_list" transform="translate(1238.000000, 413.000000)">
                <path d="M7.18367351,1.95 L32,1.95 M7.18367351,13 L32,13 M7.18367351,24.05 L32,24.05 M1.95918373,0 C0.877156465,0 5.83882231e-08,0.873044738 5.83882231e-08,1.95 C5.83882231e-08,3.02695526 0.877156465,3.9 1.95918373,3.9 C3.04121099,3.9 3.9183674,3.02695526 3.9183674,1.95 C3.9183674,0.873044738 3.04121099,0 1.95918373,0 Z M1.95918373,11.05 C1.2592348,11.05 0.612455319,11.4216679 0.262480851,12.025 C-0.0874936169,12.6283321 -0.0874936169,13.3716679 0.262480851,13.975 C0.612455319,14.5783321 1.2592348,14.95 1.95918373,14.95 C2.65913265,14.95 3.30591214,14.5783321 3.65588661,13.975 C4.00586107,13.3716679 4.00586107,12.6283321 3.65588661,12.025 C3.30591214,11.4216679 2.65913265,11.05 1.95918373,11.05 L1.95918373,11.05 Z M1.95918373,22.1 C0.877156465,22.1 5.83882231e-08,22.9730447 5.83882231e-08,24.05 C5.83882231e-08,25.1269553 0.877156465,26 1.95918373,26 C3.04121099,26 3.9183674,25.1269553 3.9183674,24.05 C3.9183674,22.9730447 3.04121099,22.1 1.95918373,22.1 Z" id="Shape"></path>
            </g>
        </g>
    </g>
</svg>