<?xml version="1.0" encoding="UTF-8"?>
<svg width="72px" height="61px" viewBox="0 0 72 61" version="1.1" xmlns="http://www.w3.org/2000/svg" xmlns:xlink="http://www.w3.org/1999/xlink">
    <title>E82A67DA-32B8-40A9-BC99-7813C0526A11</title>
    <g id="PC-(responsive-format)" stroke="none" stroke-width="1" fill="none" fill-rule="evenodd" opacity="0.164624" stroke-linecap="round">
        <g id="04.2-Home-asso" transform="translate(-476.000000, -58.000000)">
            <g id="Asso-Icon" transform="translate(477.000000, 59.000000)">
                <path d="M42.0287107,19.25 C42.0287107,19.25 57.1143012,34.5409535 57.7535211,35.1888753 C59.415493,36.8734719 59.415493,39.5947433 57.7535211,41.2793399 C56.0915493,42.9639364 53.4068256,42.9639364 51.7448537,41.2793399 C53.4068256,42.9639364 53.4068256,45.6852078 51.7448537,47.3698044 C50.0828819,49.054401 47.3981582,49.054401 45.7361863,47.3698044 C45.6083424,47.24022 45.2248104,46.851467 44.8412784,46.4627139 C46.5032503,48.1473105 46.5032503,50.8685819 44.8412784,52.5531785 C43.1793066,54.2377751 40.4945829,54.2377751 38.8326111,52.5531785 C38.7047671,52.4235941 38.3212351,52.0348411 37.9377031,51.646088 C39.599675,53.3306846 39.599675,56.051956 37.9377031,57.7365526 C36.2757313,59.4211491 33.5910076,59.4211491 31.9290358,57.7365526 C31.2898158,57.0886308 29.5,55.2744499 29.5,55.2744499 C24.5304833,43.31151 20.507756,35.7200267 17.4318182,32.5 C14.5481601,29.4812601 9.63149338,27.7145934 2.68181818,27.2 L0,6 L27.5078341,9.96467623" id="Path" stroke="#2FD266" fill="#3AD06B" stroke-linejoin="round"></path>
                <path d="M24.9266409,53.8664122 L24.9266409,53.8664122 C26.2857143,55.3778626 28.3861004,55.3778626 29.7451737,53.8664122 L30.980695,52.4923664 C32.3397683,50.980916 32.3397683,48.6450382 30.980695,47.1335878 L30.980695,47.1335878 C29.6216216,45.6221374 27.5212355,45.6221374 26.1621622,47.1335878 L24.9266409,48.5076336 C23.6911197,50.019084 23.6911197,52.4923664 24.9266409,53.8664122 Z" id="Path" stroke="#3AD06B" fill="#FFFFFF"></path>
                <path d="M19.3701341,46.4741474 L19.3701341,46.4741474 C20.7246006,48.274846 22.8204232,48.2729288 24.1781978,46.4697491 L25.4125383,44.8304949 C26.7703128,43.0273153 26.7728691,40.2425003 25.4184026,38.4418017 L25.4184026,38.4418017 C24.0639361,36.6411031 21.9681135,36.6430203 20.6103389,38.4461999 L19.3759984,40.0854541 C18.0182238,41.8886338 18.0156676,44.6734488 19.3701341,46.4741474 Z" id="Path" stroke="#3AD06B" fill="#FFFFFF" transform="translate(22.394268, 42.457975) rotate(14.000000) translate(-22.394268, -42.457975) "></path>
                <path d="M14.0076336,38.6145038 L14.0076336,38.6145038 C15.351145,40.4618321 17.4274809,40.4618321 18.7709924,38.6145038 L19.9923664,36.9351145 C21.3358779,35.0877863 21.3358779,32.2328244 19.9923664,30.3854962 L19.9923664,30.3854962 C18.648855,28.5381679 16.5725191,28.5381679 15.2290076,30.3854962 L14.0076336,32.0648855 C12.6641221,33.9122137 12.6641221,36.7671756 14.0076336,38.6145038 Z" id="Path" stroke="#3AD06B" fill="#FFFFFF"></path>
                <path d="M9.00763359,34.6145038 L9.00763359,34.6145038 C10.351145,36.4618321 12.4274809,36.4618321 13.7709924,34.6145038 L14.9923664,32.9351145 C16.3358779,31.0877863 16.3358779,28.2328244 14.9923664,26.3854962 L14.9923664,26.3854962 C13.648855,24.5381679 11.5725191,24.5381679 10.2290076,26.3854962 L9.00763359,28.0648855 C7.66412214,29.9122137 7.66412214,32.7671756 9.00763359,34.6145038 Z" id="Path" stroke="#3AD06B" fill="#FFFFFF"></path>
                <path d="M46.3965034,14.8765676 L38.1479697,18.1089623 C33.3257499,20.0483991 27.8690276,18.7554413 24.4427136,14.8765676 L24.4427136,14.8765676 C23.6813105,14.1007929 23.9351115,12.807835 24.9503156,12.4199476 L48.0462102,0.912622482 C50.8380216,-0.509631189 54.1374351,-0.251039612 56.6754455,1.55910142 L57.3099481,2.33487615 C59.3403564,3.75712982 61.7514662,4.14501719 64.0356756,3.49853825 L70,2.20558036" id="Path" stroke="#FFFFFF"></path>
                <polyline id="Path" stroke="#3AD06B" fill="#FFFFFF" points="64 29 58.5098039 29.7058824 57 31"></polyline>
                <path d="M42.0287107,19.25 C42.0287107,19.25 57.1143012,34.5409535 57.7535211,35.1888753 C59.415493,36.8734719 59.415493,39.5947433 57.7535211,41.2793399 C56.0915493,42.9639364 53.4068256,42.9639364 51.7448537,41.2793399 C53.4068256,42.9639364 53.4068256,45.6852078 51.7448537,47.3698044 C50.0828819,49.054401 47.3981582,49.054401 45.7361863,47.3698044 C45.6083424,47.24022 45.2248104,46.851467 44.8412784,46.4627139 C46.5032503,48.1473105 46.5032503,50.8685819 44.8412784,52.5531785 C43.1793066,54.2377751 40.4945829,54.2377751 38.8326111,52.5531785 C38.7047671,52.4235941 38.3212351,52.0348411 37.9377031,51.646088 C39.599675,53.3306846 39.599675,56.051956 37.9377031,57.7365526 C36.2757313,59.4211491 33.5910076,59.4211491 31.9290358,57.7365526 C31.2898158,57.0886308 29.5,55.2744499 29.5,55.2744499 C24.5304833,43.31151 20.507756,35.7200267 17.4318182,32.5 C14.5481601,29.4812601 9.63149338,27.7145934 2.68181818,27.2 L0,6 L27.5078341,9.96467623" id="Path" stroke="#2FD266" fill="#FFFFFF" stroke-linejoin="round"></path>
                <path d="M24.9266409,53.8664122 L24.9266409,53.8664122 C26.2857143,55.3778626 28.3861004,55.3778626 29.7451737,53.8664122 L30.980695,52.4923664 C32.3397683,50.980916 32.3397683,48.6450382 30.980695,47.1335878 L30.980695,47.1335878 C29.6216216,45.6221374 27.5212355,45.6221374 26.1621622,47.1335878 L24.9266409,48.5076336 C23.6911197,50.019084 23.6911197,52.4923664 24.9266409,53.8664122 Z" id="Path" stroke="#3AD06B" fill="#FFFFFF"></path>
                <path d="M19.3701341,46.4741474 L19.3701341,46.4741474 C20.7246006,48.274846 22.8204232,48.2729288 24.1781978,46.4697491 L25.4125383,44.8304949 C26.7703128,43.0273153 26.7728691,40.2425003 25.4184026,38.4418017 L25.4184026,38.4418017 C24.0639361,36.6411031 21.9681135,36.6430203 20.6103389,38.4461999 L19.3759984,40.0854541 C18.0182238,41.8886338 18.0156676,44.6734488 19.3701341,46.4741474 Z" id="Path" stroke="#3AD06B" fill="#FFFFFF" transform="translate(22.394268, 42.457975) rotate(14.000000) translate(-22.394268, -42.457975) "></path>
                <path d="M14.0076336,38.6145038 L14.0076336,38.6145038 C15.351145,40.4618321 17.4274809,40.4618321 18.7709924,38.6145038 L19.9923664,36.9351145 C21.3358779,35.0877863 21.3358779,32.2328244 19.9923664,30.3854962 L19.9923664,30.3854962 C18.648855,28.5381679 16.5725191,28.5381679 15.2290076,30.3854962 L14.0076336,32.0648855 C12.6641221,33.9122137 12.6641221,36.7671756 14.0076336,38.6145038 Z" id="Path" stroke="#3AD06B" fill="#FFFFFF"></path>
                <path d="M9.00763359,34.6145038 L9.00763359,34.6145038 C10.351145,36.4618321 12.4274809,36.4618321 13.7709924,34.6145038 L14.9923664,32.9351145 C16.3358779,31.0877863 16.3358779,28.2328244 14.9923664,26.3854962 L14.9923664,26.3854962 C13.648855,24.5381679 11.5725191,24.5381679 10.2290076,26.3854962 L9.00763359,28.0648855 C7.66412214,29.9122137 7.66412214,32.7671756 9.00763359,34.6145038 Z" id="Path" stroke="#3AD06B" fill="#FFFFFF"></path>
                <path d="M46.3965034,14.8765676 L38.1479697,18.1089623 C33.3257499,20.0483991 27.8690276,18.7554413 24.4427136,14.8765676 L24.4427136,14.8765676 C23.6813105,14.1007929 23.9351115,12.807835 24.9503156,12.4199476 L48.0462102,0.912622482 C50.8380216,-0.509631189 54.1374351,-0.251039612 56.6754455,1.55910142 L57.3099481,2.33487615 C59.3403564,3.75712982 61.7514662,4.14501719 64.0356756,3.49853825 L70,2.20558036" id="Path" stroke="#FFFFFF"></path>
                <polyline id="Path" stroke="#3AD06B" fill="#FFFFFF" points="64 29 58.5098039 29.7058824 57 31"></polyline>
            </g>
        </g>
    </g>
</svg>