<?xml version="1.0" encoding="UTF-8"?>
<svg width="148px" height="54px" viewBox="0 0 148 54" version="1.1" xmlns="http://www.w3.org/2000/svg" xmlns:xlink="http://www.w3.org/1999/xlink">
    <title>CBF19855-16A2-40C0-80D8-C380D6B39154</title>
    <g id="PC-(responsive-format)" stroke="none" stroke-width="1" fill="none" fill-rule="evenodd">
        <g id="07.2-Fiche-profil_setting" transform="translate(-115.000000, -1511.000000)">
            <g id="Footer" transform="translate(0.000000, 1477.000000)">
                <g id="Group-24" transform="translate(115.000000, 34.000000)">
                    <path d="M76.487706,8.74596313 C76.6609062,10.8908871 76.8221872,13.0374308 77.0147561,15.180735 C77.0676473,15.7723405 77.1037773,16.4595098 77.7459218,16.6810075 C78.3199036,16.8790192 78.6085706,16.2805299 78.998178,15.9792606 C80.5595873,14.7705391 81.9943555,13.4152322 83.2998755,11.8793257 C84.1915773,10.8305523 87.8656568,10.9289507 88.8035453,11.9364211 C89.5037956,12.6887845 88.9354009,13.0625366 88.4251121,13.517275 C85.8401454,15.8209323 83.5308091,18.4452956 81.2460561,21.0818068 C79.8693937,22.6711643 80.1256555,23.2514316 81.606983,24.6642388 C84.5305282,27.4525995 87.1966942,30.53899 89.4952288,33.9541851 C90.5247458,35.4832077 89.9232009,36.2882122 88.2020004,36.5336009 C85.7988008,36.8765782 84.0492924,36.0217671 82.5351872,34.0108756 C81.2464286,32.2988237 79.7304611,30.7868082 78.2863809,29.2172924 C77.960839,28.863382 77.6110863,28.334541 77.0270477,28.631356 C76.4683373,28.9156182 76.5394798,29.5303047 76.5495366,30.0490224 C76.5834317,31.7999477 76.6661208,33.5492533 76.71268,35.2997736 C76.74732,36.598795 76.5115443,37.3179539 74.9858924,36.8632155 C71.4857581,35.820111 71.6623106,35.9023122 71.6433144,31.8906524 C71.5993625,22.8797042 72.0321768,13.8485093 71.0264981,4.86590622 C70.89427,3.6867447 71.2496098,3.22755199 72.2571509,3.16073823 C72.6895927,3.13198807 73.1197997,3.05748061 73.552614,3.03116004 C76.2742786,2.86432813 76.6545741,3.28586217 76.5748648,6.31718194 C76.5540063,7.12421111 76.571885,7.93245506 76.571885,8.74029409 C76.5439495,8.74231875 76.5156415,8.74393848 76.487706,8.74596313" id="Fill-1" fill="#40CE6A"></path>
                    <path d="M46.1377882,22.9496013 C45.9354844,24.5470225 46.8180718,26.2144127 47.8236532,27.7664155 C50.4459686,31.8127521 56.6007544,31.6854985 59.0678429,27.5961985 C59.9763015,26.0900234 60.2337405,24.3911267 60.5840612,22.7266007 C60.99291,20.783017 60.5547971,18.9081748 59.7358272,17.1556761 C59.0661465,15.7227434 57.4108178,16.1053225 56.1880886,15.7092407 C51.0541524,14.0471697 46.0873182,17.4596935 46.1377882,22.9496013 M65.9538064,21.7138913 C66.1349044,25.3404139 64.7929982,28.4685606 63.1151914,31.4911402 C62.5689287,32.4752073 61.5858255,33.1544386 60.5632794,33.5255608 C56.5909997,34.9679045 52.3871521,35.4887849 48.3211424,34.467892 C43.7640054,33.3238373 41.5170335,29.9109043 40.391427,25.5478658 C38.5295534,18.3332832 43.5074146,11.2831891 51.1283728,11.0143608 C54.0632624,10.9104302 56.8777028,11.3883472 59.7214072,11.8752661 C62.9353658,12.425198 66.4445098,17.9871207 65.9538064,21.7138913" id="Fill-3" fill="#40CE6A"></path>
                    <path d="M104.516324,19.8766998 C104.517558,19.9077504 104.519202,19.9383979 104.520846,19.9694485 C105.951427,19.9694485 107.383241,20.004935 108.811767,19.9529151 C109.436207,19.9303328 110.338953,20.2597925 110.573683,19.4040843 C110.771827,18.6814505 110.036804,18.2140774 109.544323,17.7870298 C107.802549,16.2780478 105.531708,16.2453841 103.421601,15.8481774 C101.430299,15.4735531 99.5536889,16.8712366 98.9921448,18.8133151 C98.7015067,19.817018 99.0270872,20.2218865 100.033016,20.1666405 C101.528137,20.0839731 103.022025,19.9746909 104.516324,19.8766998 M105.996647,11.036533 C111.932324,10.4381018 117.294124,17.305946 116.987454,23.2487222 C116.908114,24.7883516 115.895197,24.8528725 114.688658,24.7774637 C109.980074,24.482684 105.27149,24.1318517 100.547696,24.2887181 C99.7107239,24.3165427 98.5958575,23.8890919 98.1457178,24.8960208 C97.7001001,25.8944814 98.2595888,26.8372928 98.8864956,27.6772739 C101.770267,31.5444941 105.592549,32.5195659 109.139814,30.2827077 C110.272768,29.5677357 111.09083,28.6104071 111.445598,27.3155538 C112.042906,25.1355546 113.625589,26.3275778 114.800063,26.4437154 C116.194879,26.5816288 115.997969,27.6071075 115.761183,28.5906476 C115.028216,31.6315973 111.137283,34.4076081 107.033818,34.8886918 C101.858651,35.4947848 97.709144,33.6091622 94.6880698,29.6354826 C92.4369604,26.6743775 92.7843284,23.1704906 93.7355825,19.7952422 C94.1133709,18.4544177 94.8146844,17.1958573 95.4210369,15.9235862 C97.2129627,12.1608093 100.735151,11.4341429 104.430818,11.0433883 C104.90439,10.9933846 105.388239,11.036533 105.996647,11.036533" id="Fill-5" fill="#40CE6A"></path>
                    <path d="M12.2157973,34.6999667 C10.8320896,34.3858634 9.20389509,35.641851 8.19305934,34.5331259 C7.15924105,33.4001408 8.30717957,31.7168365 8.2988583,30.2535747 C8.26279948,23.9561864 8.31787834,17.6587981 7.62404322,11.389926 C7.60858944,11.2494733 7.58085188,11.1094462 7.57688937,10.9689935 C7.47386417,7.37127634 7.2369062,7.16102291 3.87788831,7.72028002 C3.35800729,7.80667971 2.83773001,7.89733554 2.32220774,8.01054893 C0.99595637,8.30166907 0.333425061,7.79476251 0.304102503,6.27531967 C0.280723707,5.07721559 0.0691257884,3.88464449 0.00612191388,2.68568918 C-0.0505419481,1.62165358 0.274383694,0.841502676 1.47462732,1.0274961 C6.32037814,1.77955646 11.2017915,1.00408732 16.0562599,1.42331734 C17.0080543,1.50546089 18.2269217,1.05260734 18.6211912,2.37754447 C19.0598408,3.85229781 19.1719798,5.49687123 18.6643825,6.94523649 C18.3533257,7.83306779 17.2438235,7.39936688 16.489362,7.39255705 C13.8681631,7.36872266 13.3930584,7.75390354 13.7088702,10.5191193 C14.2628288,15.3677167 14.5037493,20.238446 14.7204985,25.1074729 C14.8417512,27.8339578 14.598057,30.5532071 14.9170389,33.3099106 C15.1959994,35.7184616 13.1719504,34.32117 12.2157973,34.6999667" id="Fill-7" fill="#40CE6A"></path>
                    <path d="M142.767558,21.0481761 C142.451382,19.6018159 142.884995,17.389298 140.942772,16.3884167 C139.438033,15.6131676 137.57281,15.2838107 135.838359,15.1676887 C133.007832,14.9775956 129.337181,17.2318514 128.497916,19.6514054 C127.388075,22.8495145 127.690485,26.1125032 130.323994,28.4250265 C134.664852,32.2363924 139.362322,31.9231521 141.724393,26.4059077 C142.398471,24.8322677 142.756804,23.1226699 142.767558,21.0481761 M147.99586,20.7580776 C148.087056,25.5037921 146.660178,28.6899171 144.844855,31.7723174 C144.352309,32.6087268 143.602091,33.1244576 142.730994,33.4153826 C139.049158,34.6447888 135.241281,35.4415266 131.372751,34.7348764 C124.942121,33.5596054 121.729602,28.2460911 122.017816,21.9920295 C122.417015,13.3394894 129.213721,10.2335341 137.325031,11.1563119 C139.015604,11.3484712 140.773284,11.6298916 142.314588,12.2778609 C146.610708,14.0841582 147.590208,17.8459346 147.99586,20.7580776" id="Fill-9" fill="#40CE6A"></path>
                    <path d="M23.342424,21.6634065 C23.0906962,18.0101378 23.2217784,14.356055 23.0072044,10.701565 C22.9408284,9.56454925 23.3228035,8.99868749 24.582695,9.35448834 C26.1548459,9.79822166 28.1056322,8.71290694 29.3655237,10.5354703 C29.5955437,10.8684739 30.174142,10.546869 30.5039347,10.3298875 C32.015554,9.33454069 33.770552,9.271441 35.4812994,9.0446892 C37.066809,8.83422119 38.061614,9.34268259 37.9914809,11.0931902 C37.9672682,11.7013898 37.9735301,12.312032 37.9944031,12.9210458 C38.0470029,14.4643422 37.7614609,15.24515 35.7296875,14.927209 C33.2445536,14.5384334 31.6110362,16.4485222 30.8458337,18.3366279 C29.0044216,22.8781774 27.9044169,27.6069905 29.7090926,32.48765 C29.7783908,32.6753207 29.9073856,32.9326046 29.8339128,33.0665388 C28.796527,34.9623792 26.7083967,34.4494398 25.0798888,34.9237052 C23.8417051,35.2843912 23.35787,34.3073637 23.3511907,33.2297838 C23.3282304,29.374189 23.342424,25.5190013 23.342424,21.6634065" id="Fill-12" fill="#40CE6A"></path>
                    <path d="M109,0.979908926 C108.93407,1.72720154 108.515002,2.19156333 108.035362,2.59333355 C106.768269,3.65358402 105.536202,4.73751779 104.593403,6.13736982 C104.086154,6.89058326 103.415317,7.35705963 102.531855,6.65290445 C101.614191,5.92168265 102.054686,5.22556288 102.580066,4.4977244 C103.470533,3.26534711 104.313613,1.99744488 105.195015,0.75830093 C105.808576,-0.104447756 108.121483,-0.278266241 108.753999,0.482559683 C108.879678,0.633117787 108.935306,0.844575798 109,0.979908926" id="Fill-14" fill="#40CE6A"></path>
                    <path d="M53,38 C53,38 69.1538917,53 94.9998027,53 C112.230673,53 126.230739,48 137,38 L137,38" id="Stroke-22" stroke="#40CE6A" stroke-width="1.5"></path>
                </g>
            </g>
        </g>
    </g>
</svg>