<?xml version="1.0" encoding="UTF-8"?>
<svg width="136px" height="189px" viewBox="0 0 136 189" version="1.1" xmlns="http://www.w3.org/2000/svg" xmlns:xlink="http://www.w3.org/1999/xlink">
    <title>D04C5F3F-19A3-405B-AC89-58A652ACBB59</title>
    <defs>
        <polygon id="path-1" points="9.45725371 0.177305531 34.3776347 11.6219333 36.927095 14.5167262 34.8029045 19.8942718 0.399221959 59.189456 0.68201561 10.3795059"></polygon>
        <polygon id="path-3" points="0 0.266775031 30.4193143 0.266775031 30.4193143 93.152417 0 93.152417"></polygon>
    </defs>
    <g id="PC-(responsive-format)-V2" stroke="none" stroke-width="1" fill="none" fill-rule="evenodd">
        <g id="07.5-Fiche-profil_apropos" transform="translate(-186.000000, -751.000000)">
            <g id="Group-68" transform="translate(186.000000, 751.000000)">
                <polygon id="Fill-1" fill="#E2E2E2" points="59 181 108 181 108 9.09494702e-13 59 9.09494702e-13"></polygon>
                <g id="Group-67" transform="translate(0.000000, 15.000000)">
                    <g id="Group-4" transform="translate(59.037096, 3.622461)">
                        <mask id="mask-2" fill="white">
                            <use xlink:href="#path-1"></use>
                        </mask>
                        <g id="Clip-3"></g>
                        <polygon id="Fill-2" mask="url(#mask-2)" points="34.8029045 19.8942718 0.399221959 59.189456 0.68201561 10.3795059 9.45725371 0.177305531 34.3776347 11.6219333 36.927095 14.5167262"></polygon>
                    </g>
                    <path d="M45.3154159,75.2553219 C46.2328762,75.47816 48.0591619,75.5538409 48.5966857,75.6274195 C49.1320508,75.6988959 48.8989079,76.443091 48.2145905,76.6659291 C47.5281143,76.8887672 43.258146,77.0380266 43.258146,77.0380266 L45.3154159,75.2553219 Z" id="Fill-5" fill="#DD5737"></path>
                    <path d="M50.2062349,47.1951716 C50.8560127,46.703246 62.3944254,40.0811708 63.421981,39.7237889 C63.421981,39.7237889 68.0438222,40.2577594 68.3201397,40.390201 C68.6007746,40.518438 68.997981,42.4209707 68.3805841,43.4216398 C67.8171556,44.3319124 67.4955048,45.2127535 66.9061714,45.1454816 C66.3341079,45.0761075 66.7529016,44.1700394 66.8953778,43.8021464 C67.0443302,43.4342533 66.8867429,42.3326764 66.8867429,42.3326764 C66.8867429,42.3326764 66.7680127,44.5379325 66.1225524,45.3031501 C65.7771556,45.7214971 64.1991238,46.8504032 64.9719492,45.2800254 C65.6886476,43.8084531 65.7037587,42.8014772 65.7037587,42.8014772 C65.7037587,42.8014772 65.0129651,45.353604 64.2228698,46.1230261 C63.4414095,46.8882437 63.3399492,46.5434753 63.557981,45.6142825 C63.7673778,44.6829875 64.3502349,43.2219265 64.3502349,43.2219265 C64.3502349,43.2219265 64.1041397,46.7137572 61.3711873,47.6009051 C60.7516317,47.8006185 51.341727,51.2630178 51.341727,51.2630178 L50.2062349,47.1951716 Z" id="Fill-7" fill="#DD5737"></path>
                    <path d="M25.1258921,37.8799089 C25.1258921,37.8799089 25.4475429,43.7115396 27.2824635,45.4227679 C29.7930667,47.7688746 34.9589079,56.56257 39.190019,57.0608023 C46.2231619,57.8911896 53.3253841,53.2662481 58.7437968,51.1240593 C59.3504,50.882301 56.246146,43.5475644 56.246146,43.5475644 C56.246146,43.5475644 43.326146,47.5859791 41.9359238,46.7766144 C40.5478603,45.9693519 33.838527,35.1322732 31.7704635,34.2808635 C29.3375746,33.2738877 25.9008762,34.2976815 25.1258921,37.8799089" id="Fill-9" fill="#AFABA7"></path>
                    <path d="M15.1627048,152.290954 C16.0175619,154.525767 15.4541333,156.955963 15.1734984,159.993709 C14.8993397,163.035659 14.1999111,165.322903 17.3387048,165.980906 C20.4753397,166.628398 32.1173714,166.548512 32.1173714,166.548512 C32.1173714,166.548512 38.3345143,165.106372 31.8043556,162.451235 C26.7356571,160.393136 21.8590857,159.154913 22.2174349,153.390554 C22.2908317,152.255341 15.1627048,152.290954 15.1627048,152.290954" id="Fill-11" fill="#606060"></path>
                    <path d="M31.3048254,76.838103 C31.1839365,88.0577905 28.6927619,123.217857 28.515746,124.815564 C26.8492063,139.859237 26.8125079,159.393308 26.8125079,159.393308 L12.6231746,159.235639 C12.6231746,159.235639 13.7457143,133.386421 17.0291429,122.582978 C18.0221587,119.301372 12.6426032,87.3156976 12.6426032,87.3156976 L31.3048254,76.838103 Z" id="Fill-13" fill="#CED5D9"></path>
                    <path d="M2.00589206,158.478831 C1.7511619,161.007833 0.386844444,164.423983 1.25465397,167.882177 C1.55903492,169.078355 3.82570159,169.55977 5.6735746,169.965503 C6.43560635,170.131581 9.09947937,171.840707 10.470273,172.320019 C15.4267175,174.048065 17.7797333,172.700525 18.6907175,172.147635 C19.6168127,171.592642 19.8801778,170.259818 17.6502095,168.254275 C15.7375746,166.538842 13.0262095,165.620161 12.2641778,163.986715 C11.5043048,162.359577 11.8173206,157.240608 11.8173206,157.240608 L2.00589206,158.478831 Z" id="Fill-15" fill="#606060"></path>
                    <g id="Group-19" transform="translate(0.000000, 72.263616)">
                        <mask id="mask-4" fill="white">
                            <use xlink:href="#path-3"></use>
                        </mask>
                        <g id="Clip-18"></g>
                        <path d="M30.4193143,5.3310859 C30.2876317,16.5423644 27.4143619,29.2903848 23.157346,52.2469122 C21.6462349,60.4267518 18.6434413,67.2548472 14.2763302,92.6499801 L0.266171429,93.152417 C0.266171429,93.152417 -1.67236825,78.1991404 4.9096,52.4739548 C5.43848889,50.3969357 7.61233016,32.0842698 6.30845714,17.6796795 C5.53131429,9.14035584 9.16661587,0.266775031 9.16661587,0.266775031 L30.4193143,5.3310859 Z" id="Fill-17" fill="#CED5D9" mask="url(#mask-4)"></path>
                    </g>
                    <polygon id="Fill-20" fill="#AFABA7" points="30.6785778 28.4391421 32.852419 30.0284401 32.7013079 34.6807108 28.1032127 32.2463098"></polygon>
                    <path d="M23.4286984,16.8450446 C23.1372698,18.9578019 23.279746,21.6276545 21.2526984,24.2113149 L19.2256508,26.8012821 L29.4688254,31.2643506 C29.4688254,31.2643506 30.0085079,26.4628205 31.8909206,24.8335798 C33.7711746,23.2169525 23.4286984,16.8450446 23.4286984,16.8450446" id="Fill-22" fill="#DD5737"></path>
                    <path d="M40.203327,5.1256532 C37.6365968,-0.319164208 23.4558984,-3.06679987 22.003073,5.95604042 C19.3284063,22.395605 29.8586921,24.6912577 29.8586921,24.6912577 C33.4119619,24.6492128 34.2992,25.0465373 36.8810413,24.0816063 C38.1503746,23.6254189 38.9771683,21.8910659 39.7651048,19.5407548 C40.8854857,19.3137122 42.1656127,19.3032009 42.0490413,18.5148587 C41.4769778,17.4574289 41.2934857,15.5002377 41.0344381,14.7371224 C41.5913905,11.0413737 41.4251683,7.68829121 40.203327,5.1256532" id="Fill-24" fill="#DD5737"></path>
                    <path d="M32.8584635,24.8054097 C35.0430984,24.9672826 35.5007492,24.9630781 36.8607492,24.1978605 C38.0286222,23.544062 38.9482413,21.9989111 39.7361778,19.657009 C40.8651937,19.4299664 42.1388444,19.4089439 42.0244317,18.6311129 C41.4566857,17.5715808 41.2688762,15.6101852 41.0098286,14.8491721 C41.558146,11.1618324 42.6806857,8.33010694 41.4566857,5.77377568 C41.3293206,5.50048369 39.8937651,4.70373241 39.7059556,4.45146288 L34.1882413,5.48997246 C30.814146,14.1890668 29.454146,20.8111421 31.5761778,23.9582045 L26.1361778,30.1114788 L30.0132571,33.0020672 C30.0132571,33.0020672 31.8719238,26.9728254 32.8584635,24.8054097" id="Fill-26" fill="#DD5737"></path>
                    <path d="M30.9969905,12.7761472 C30.2608635,12.1728026 28.9246095,10.4405518 28.0740698,11.3066772 C27.2408,12.1833138 27.1566095,15.4607155 28.9375619,16.6295643 C30.6990857,17.7857997 30.9969905,12.7761472 30.9969905,12.7761472" id="Fill-30" fill="#DD5737"></path>
                    <path d="M21.3606349,23.7542866 C17.6692063,27.2187882 10.8864762,35.2787998 10.2841905,45.7038382 C9.25447619,63.4972492 5.28457143,71.6623731 8.11034921,75.7596508 C10.0186667,78.5430246 27.8411429,81.7363365 30.9907302,81.177139 C34.1446349,80.6263505 36.4587937,68.8642836 36.3983492,64.2540578 C36.335746,59.6333209 34.4360635,35.7349872 31.7549206,32.180089 C29.071619,28.6272931 21.3606349,23.7542866 21.3606349,23.7542866" id="Fill-38" fill="#AFABA7"></path>
                    <path d="M21.4577778,22.0329675 C22.8846984,23.378405 31.7268571,30.015196 31.7268571,30.015196 L31.0231111,36.7108498 L18.3513651,25.4827534 L21.4577778,22.0329675 Z" id="Fill-40" fill="#AFABA7"></path>
                    <path d="M74.7134349,23.6783955 C74.4457524,23.5291361 74.3550857,23.1969812 74.5083556,22.9363027 L76.8030857,19.0576586 C76.9261333,18.8516385 77.176546,18.7444239 77.4161651,18.8032868 L93.2310222,22.4464793 L95.409181,18.5510173 L93.9304508,17.7647772 L93.9347683,17.7647772 C93.6627683,17.6197223 93.5613079,17.2917719 93.712419,17.0310933 C93.857054,16.7662103 94.1981333,16.669507 94.4636571,16.814562 L96.4302603,17.8572761 C96.6979429,17.9981266 96.7950857,18.3302814 96.6526095,18.59096 L94.0081651,23.3252182 C93.8851175,23.5417495 93.6368635,23.6531686 93.3907683,23.5943057 L77.5608,19.9469087 L75.4754667,23.4807844 C75.3718476,23.6531686 75.1818794,23.7498719 74.9897524,23.7498719 C74.8947683,23.7498719 74.7997841,23.7267472 74.7134349,23.6783955" id="Fill-42" fill="#606060"></path>
                    <path d="M77.0111873,19.6782416 L65.5807111,8.5279283 C65.4036952,8.35974861 65.3669968,8.10117234 65.485727,7.88884549 L68.0805206,3.21975689 C68.1496,3.09151987 68.2704889,2.99902104 68.4129651,2.95487388 C68.5532825,2.9149312 68.7065524,2.93385142 68.8382349,3.00322554 L70.789727,4.06275757 L70.789727,4.06696207 C71.0574095,4.21411929 71.1523937,4.53996744 71.0034413,4.80485045 C70.8523302,5.06342672 70.5134095,5.15802779 70.245727,5.01087057 L68.7864254,4.21832379 L66.6579175,8.05071844 L77.7991238,18.9151263 C78.0171556,19.1274532 78.0171556,19.4659148 77.7991238,19.6782416 C77.6890286,19.783354 77.5465524,19.8380123 77.4040762,19.8380123 C77.2616,19.8380123 77.1212825,19.783354 77.0111873,19.6782416" id="Fill-44" fill="#606060"></path>
                    <path d="M94.1862603,19.4348015 C93.5386413,20.5868324 92.0620698,21.0072816 90.8790857,20.37871 L69.7688635,9.14010237 C68.5945143,8.51153078 68.1562921,7.06728771 68.8039111,5.91735909 L70.8482286,2.27416659 C71.4936889,1.12634021 72.9767365,0.703788747 74.1532444,1.33236033 L95.2613079,12.5730703 C96.4399746,13.2037441 96.8760381,14.6437827 96.2305778,15.7937113 L94.1862603,19.4348015 Z" id="Fill-46" fill="#00D65B"></path>
                    <path d="M95.2613079,12.57286 L74.1532444,1.33215011 C72.9767365,0.703578522 71.4936889,1.12612999 70.8482286,2.27605861 L69.5788952,4.53387093 L94.9655619,18.0471089 L96.2305778,15.7935011 C96.8760381,14.6435724 96.4399746,13.2014316 95.2613079,12.57286" id="Fill-48" fill="#00D65B"></path>
                    <path d="M17.7831873,121.080713 C17.4140444,121.730307 17.6558222,122.550183 18.329346,122.909667 C18.9920762,123.271254 19.833981,123.035802 20.2031238,122.384106 L76.6884571,22.8805931 C77.0576,22.2309991 76.817981,21.4111231 76.1444571,21.051639 C75.481727,20.6942572 74.6398222,20.9276065 74.2685206,21.5793028 L17.7831873,121.080713 Z" id="Fill-50" fill="#606060"></path>
                    <path d="M43.9431111,74.7707542 C44.1719365,74.4007589 39.7746032,73.923549 38.9262222,74.051786 C38.0843175,74.1674096 35.8068571,73.0532191 34.3475556,72.6579969 C34.3475556,72.6579969 29.8055873,76.391586 30.7554286,76.5912993 C31.7052698,76.7889105 35.7528889,78.6935454 36.4976508,79.3830822 C37.2424127,80.0726189 41.0417778,83.635926 41.616,83.9197293 C42.1902222,84.2035325 42.4060952,84.2098392 43.215619,84.1804078 C43.9625397,84.1488741 44.5151746,83.2722375 44.5151746,83.2722375 C45.5103492,83.1271825 46.0565079,81.8553236 46.1536508,81.7880517 C46.2680635,81.7144731 47.5287619,81.4180564 47.4510476,80.1188683 C47.4424127,79.9422796 48.2540952,79.4482518 47.4510476,78.5947399 C47.1747302,78.2983232 44.2043175,77.1441901 44.2043175,77.1441901 C44.2043175,77.1441901 42.8529524,76.5429477 43.9431111,74.7707542" id="Fill-52" fill="#DD5737"></path>
                    <path d="M15.7593778,33.7841028 C15.7593778,33.7841028 13.8899175,36.5317384 14.7534095,42.703933 C15.3341079,46.8474601 16.2645206,56.8079021 19.2910603,62.6962935 C22.693219,69.3225732 27.9389333,77.6432633 35.0649016,82.2724092 C35.7427429,82.7096764 41.1201397,73.8550158 41.1201397,73.8550158 C41.1201397,73.8550158 30.3631873,59.4609367 29.2320127,57.8590252 C28.1051556,56.2550114 29.4500444,39.056536 25.117473,33.0840548 C23.2329016,30.4856786 18.5268698,30.1577283 15.7593778,33.7841028" id="Fill-54" fill="#AFABA7"></path>
                    <path d="M58.1708698,44.6905556 C59.3624889,44.9407229 62.6847746,44.9070869 63.6691556,44.1649941 C64.6470603,43.4186967 66.0243302,43.0465991 66.4647111,43.0991553 C66.8964571,43.1517114 67.6995048,42.062748 66.257473,42.1005884 C64.8068063,42.1426333 61.6054095,42.0858727 59.6798222,42.3843916 C57.7628698,42.695524 58.1708698,44.6905556 58.1708698,44.6905556" id="Fill-56" fill="#DD5737"></path>
                    <path d="M135.189397,159.205577 C135.498095,159.562959 135.28654,159.861478 134.716635,159.861478 L72.8560635,159.861478 C72.284,159.861478 72.0832381,159.562959 72.3940952,159.205577 L79.4229206,151.219144 C79.6085714,151.006817 80.1072381,150.836535 80.5411429,150.836535 L127.195619,150.836535 C127.625206,150.836535 128.123873,151.006817 128.307365,151.219144 L135.189397,159.205577 Z" id="Fill-58" fill="#606060"></path>
                    <path d="M130.914248,172.471801 C130.914248,172.793445 130.657359,173.058328 130.340025,173.058328 L127.859644,173.058328 C127.542311,173.058328 127.285422,172.793445 127.285422,172.471801 L127.285422,160.770699 C127.285422,160.446953 127.542311,160.184173 127.859644,160.184173 L130.340025,160.184173 C130.657359,160.184173 130.914248,160.446953 130.914248,160.770699 L130.914248,172.471801 Z" id="Fill-60" fill="#AFABA7"></path>
                    <polygon id="Fill-62" fill="#AFABA7" points="107.414095 166.915144 129.184889 166.915144 129.184889 160.520112 107.414095 160.520112"></polygon>
                    <path d="M110.783657,172.047778 C110.783657,172.606975 110.31953,173.056856 109.749625,173.056856 L76.0540063,173.056856 C75.4841016,173.056856 75.0199746,172.606975 75.0199746,172.047778 L75.0199746,161.700523 C75.0199746,161.141325 75.4841016,160.689342 76.0540063,160.689342 L109.749625,160.689342 C110.31953,160.689342 110.783657,161.141325 110.783657,161.700523 L110.783657,172.047778 Z" id="Fill-64" fill="#606060"></path>
                    <polygon id="Fill-65" fill="#D8D8D8" points="110.872165 160.858153 107.239022 155.304018 82.0142603 155.304018 77.3492444 160.689973"></polygon>
                    <path d="M135.406565,161.27692 C135.406565,161.743619 134.940279,162.119921 134.366057,162.119921 L72.9480254,162.119921 C72.3738032,162.119921 71.9075175,161.743619 71.9075175,161.27692 L71.9075175,160.015572 C71.9075175,159.550976 72.3738032,159.174674 72.9480254,159.174674 L134.366057,159.174674 C134.940279,159.174674 135.406565,159.550976 135.406565,160.015572 L135.406565,161.27692 Z" id="Fill-66" fill="#D4CBBA"></path>
                </g>
                <path d="M46.5783135,21.1483404 C47.1331639,20.3142537 48.4877429,16.5332461 47.8182027,15.7647925 C47.3873412,15.2698098 41.5784602,13.1777562 40.8996208,13 C38.7450033,13.4840438 36.8172855,14.285314 34.6474794,13.5715545 C32.6106513,12.9015504 31.1382829,13.1750215 29.0090831,13.8450256 C26.7028891,14.5697239 23.6093655,14.7420107 21.5232519,15.7647925 C20.6522297,16.1914073 19.9578917,16.8614114 19.4154402,17.5997833 C17.537008,20.1567377 17.5277088,23.6845145 19.3906424,26.2524078 C19.809105,26.8294317 20.3081604,27.3544962 20.8351134,27.8576829 C21.9231161,28.896873 21.0658031,31.6144058 22.5626593,32 C22.5970663,30.818605 23.5349721,25.664445 24.5637702,24.6963574 C26.1945345,23.1621847 29.883205,23.6954533 31.9042245,24.0755781 C34.1112273,24.4885194 36.0764517,25.8668136 38.2648562,26.1621623 C39.8395155,26.3754697 43.4159565,28.0146497 44.7550369,27.2981555 C46.410289,26.4121093 45.6111999,23.2489556 46.5783135,21.846049" id="Fill-54" fill="#606060"></path>
            </g>
        </g>
    </g>
</svg>