<?xml version="1.0" encoding="UTF-8"?>
<svg width="133px" height="81px" viewBox="0 0 133 81" version="1.1" xmlns="http://www.w3.org/2000/svg" xmlns:xlink="http://www.w3.org/1999/xlink">
    <title>5DF8996D-F6B3-4D51-BDA5-DE24E1694354</title>
    <defs>
        <polygon id="path-1" points="3.33579488e-05 0.0290411472 132.95763 0.0290411472 132.95763 14.6347816 3.33579488e-05 14.6347816"></polygon>
        <polygon id="path-3" points="0.0711535637 0.0139445141 2.40511685 0.0139445141 2.40511685 3.30538829 0.0711535637 3.30538829"></polygon>
    </defs>
    <g id="PC-(responsive-format)" stroke="none" stroke-width="1" fill="none" fill-rule="evenodd">
        <g id="01.homepage" transform="translate(-823.000000, -527.000000)">
            <g id="Group-103" transform="translate(823.000000, 527.000000)">
                <g id="Group-7">
                    <g id="Group-3" transform="translate(0.000000, 65.718700)">
                        <mask id="mask-2" fill="white">
                            <use xlink:href="#path-1"></use>
                        </mask>
                        <g id="Clip-2"></g>
                        <path d="M60.9997606,0.03052606 C57.1059917,0.0415712197 53.2122228,0.135455077 49.3256353,0.567596949 C47.8606245,0.730513054 46.4257757,1.08948074 44.956456,1.23306782 C42.0221256,1.52162262 39.1409377,2.06007415 36.1965532,2.30859024 C33.8252465,2.50878376 31.4438859,2.62613858 29.0797606,2.88017725 C26.8635727,3.11764819 24.4089614,3.06380303 22.210009,2.67031922 C20.5812617,2.37900313 18.9453329,2.21470638 17.3453113,1.74791032 C15.5542638,1.22464588 13.6095338,0.850491101 11.7423632,0.864435615 C9.08092689,0.883764644 6.48986857,0.886525934 3.9433351,1.81017741 C3.04996577,2.13462898 1.95551652,2.66755793 1.27615367,3.3482159 C-0.277906803,4.90558341 -0.487604428,8.79209897 1.06358348,10.4074536 C3.67618607,13.1259435 9.25471739,14.193182 12.9172444,14.2442659 C16.9316612,14.2994917 20.829739,14.0011343 24.849901,13.8259305 C28.5856785,13.6630144 32.3114021,13.431066 36.0529247,13.4393499 C43.6939614,13.4559176 51.3364344,13.4393499 58.9645446,12.9285113 C66.130171,12.4494275 73.314469,12.6137242 80.4973308,12.6137242 C87.8624571,12.6137242 95.1776008,12.6717113 102.488148,13.6504505 C105.673972,14.0772079 108.919977,14.2261795 112.121456,14.5243988 C114.988281,14.792382 117.744512,14.5188762 120.599847,14.2717407 C122.998443,14.064644 125.38124,13.4488763 127.558648,12.40787 C129.283627,11.5837631 132.357133,9.02404732 132.887266,7.05787083 C134.369512,1.54509358 111.990754,1.6776355 108.55516,1.6900613 C104.711661,1.70386775 100.83642,1.83088709 96.9959377,1.68440066 C95.380117,1.6224097 93.7887131,1.30762265 92.211672,0.961080762 C90.6418124,0.615919522 89.0588826,0.7042808 87.4661861,0.559313079 C80.8246602,-0.0440287677 74.1676224,0.0443325096 67.5046958,0.0443325096 C65.3387779,0.0429518647 63.1685511,0.0236228352 60.9997606,0.03052606" id="Fill-1" fill="#E2E2E2" mask="url(#mask-2)"></path>
                    </g>
                    <g id="Group-6" transform="translate(114.759179, 0.000000)">
                        <mask id="mask-4" fill="white">
                            <use xlink:href="#path-3"></use>
                        </mask>
                        <g id="Clip-5"></g>
                        <polygon id="Fill-4" fill="#DD5737" mask="url(#mask-4)" points="1.87067516 3.30538829 2.40511685 2.25057554 2.03311901 0.0139307076 0.846603888 0.324575823 0.65557797 2.03381428 0.0711535637 2.34722069 0.243507775 3.19631734"></polygon>
                    </g>
                </g>
                <polygon id="Fill-8" fill="#C1755D" points="92 30.8282601 92.0570042 32.1195039 93.2698605 34 94 33.0319429 93.4177077 31.322811 93.7101273 30.695979 93.2260764 30"></polygon>
                <polygon id="Fill-9" fill="#BCBEC0" points="99 13 96.741915 13.7352941 88.4897169 22.9845938 88 26.0322129 91.9438333 33 93.0086781 30.4453782 91.3395374 25.2955182 93.9911823 23.2997199 97.5276393 14.7871148"></polygon>
                <polygon id="Fill-10" fill="#CED5D9" points="108.549852 42.4929713 109 53.3662052 107.681911 71.8542805 105.709842 72 103.314072 55.2086831 100 41"></polygon>
                <polygon id="Fill-11" fill="#606060" points="106.069588 73.1423267 108.092784 74 109 72.9293317 107.953608 72 106 72.1423267"></polygon>
                <polygon id="Fill-12" fill="#CED5D9" points="94.4403187 37.8547995 94 46.1703007 95.3080478 70.8968393 97.321753 71 100.339442 54.7837287 103 37"></polygon>
                <polygon id="Fill-13" fill="#606060" points="96.9507347 72.1001236 94.934745 73 94 71.9505562 95.0332757 71 97 71.1001236"></polygon>
                <g id="Group-102" transform="translate(29.000000, 1.000000)">
                    <path d="M76.3867877,4.21467746 C74.7994533,3.8553711 73.166253,3.5321341 71.5774808,3.8553711 C71.2295325,3.92612254 70.8555599,4.05097803 70.6673515,4.3603422 C70.5938798,4.47964855 70.5550591,4.61837688 70.5191141,4.75433064 C70.117967,6.28727861 69.6089848,8.56103584 70.5910042,9.97329017 C70.7779186,10.2424231 71.0295341,10.4560647 71.299841,10.6294751 C71.6607296,10.8611514 72.0604388,11.0193017 72.474526,11.103926 C72.3896956,11.4854289 72.270358,11.8586081 72.1193887,12.2179145 C72.4832966,12.7811514 74.1784662,12.8491283 74.4917635,12.3080879 C74.5090171,11.8405734 74.5264145,11.373059 74.5449622,10.9055445 C74.7520058,10.8195329 74.9505664,10.7154867 75.1374808,10.5892439 C75.8621334,10.0981457 76.3393402,9.35317457 76.61698,8.52080462 C76.9187748,7.61352139 77.3429267,6.75063121 77.6189848,5.82670058 C77.7197748,5.48959075 77.7987102,5.10531329 77.6261738,4.80011098 C77.4421351,4.47548671 77.0467393,4.36589133 76.6916019,4.28404162 C76.5880801,4.2604578 76.4874339,4.23687399 76.3867877,4.21467746" id="Fill-14" fill="#DD5737"></path>
                    <path d="M71.1044149,5.09148208 C71.8894553,4.57263815 73.065578,4.34928555 73.8031709,4.4033896 C76.0330595,4.56986358 76.8498753,6.25402543 76.9692129,8.36408324 C77.5831548,7.56084624 78.7362727,6.55090405 78.8065813,5.51737803 C78.8642372,4.67113526 78.7492129,3.51830289 78.289116,2.78720462 C77.8577751,2.10327399 76.7549803,1.72732023 76.0993422,1.33194451 C75.4809431,0.958765318 74.8628317,0.585586127 74.2445764,0.211019653 C74.116612,0.133331792 73.9841903,0.0542566474 73.8376782,0.0278982659 C73.663704,-0.00262196532 73.4867105,0.0431583815 73.3157557,0.0875514451 C71.854948,0.475990751 70.3941402,0.864430058 68.9331887,1.25286936 C68.6529609,1.32778266 68.3323309,1.43599075 68.2302468,1.71483468 C68.1668397,1.88408324 68.2043664,2.07414104 68.2417493,2.25032601 C68.4070966,3.02997919 68.7262889,3.82766705 68.805368,4.6184185 C68.8945118,5.07760925 69.1603616,7.43044162 69.9511532,7.1585341 C70.1827832,6.76870751 70.2187283,6.28732023 70.3984536,5.86974798 C70.5321693,5.56038382 70.7866604,5.30234913 71.1044149,5.09148208" id="Fill-16" fill="#606060"></path>
                    <path d="M77.603169,12.2775815 L71.3055922,11.5839399 C71.3055922,11.5839399 67.8016666,11.9696046 65.4251221,20.5277549 C64.1023435,25.288911 63.6997586,32.7913387 63.6034258,38.5097202 C63.7513758,39.3254428 64.6156391,42.8990844 68.2689525,42.2928416 C74.5436682,41.2523792 77.8821027,40.2105295 80.6153661,40.7307607 C82.9433128,41.2509919 82.7463338,37.9548069 82.4902611,35.4396624 L81.5628782,27.6556162 L77.603169,12.2775815 Z" id="Fill-18" fill="#BCBEC0"></path>
                    <polygon id="Fill-20" fill="#FD886D" points="44.8156409 6.86581734 45.0341869 4.60870751 44.0392273 4.47691561 43.5345585 5.99044162 43.094447 5.71714682 43.1506651 7.67044162 44.1656102 7.94234913"></polygon>
                    <polygon id="Fill-22" fill="#BCBEC0" points="30.026357 18.2109919 40.4504281 14.425096 43.055727 7.39295723 44.368441 7.85492254 44.1757754 16.5795468 34.4202827 23.4271769"></polygon>
                    <polygon id="Fill-24" fill="#CED5D9" points="29.1823523 43.8674775 20.2435317 41.2412116 22.9207207 55.9408647 22.6288467 68.7662983 22.6058418 68.8524486 22.6259711 68.8536971 22.6259711 68.8815815 24.362837 68.9453965 24.362837 68.9440092 24.4275381 68.9466451 27.6122716 57.3601942 28.9393637 45.1311538"></polygon>
                    <polygon id="Fill-26" fill="#606060" points="24.3067339 68.8385757 22.5123559 68.8939283 22.1414027 70.3770728 22.1874124 70.3866451 22.17591 70.3895584 25.2369924 71.9197318 26.6546661 71.9931191 26.7409342 70.4310382 26.3455384 69.9052578"></polygon>
                    <polygon id="Fill-28" fill="#CED5D9" points="34.9393152 69.2519168 33.2110761 69.4225526 30.6632893 55.8368879 26.8416092 42.3762173 36.0723039 43.7690497"></polygon>
                    <path d="M35.0040451,69.2380855 L37.2355152,70.3021318 C37.2973407,70.3312647 37.3332858,70.3964671 37.3232212,70.4630566 L37.2067591,71.2621318 C37.1952567,71.3439815 37.1176153,71.4022474 37.032785,71.395311 L33.2082292,71.052652 C33.1205233,71.0443283 33.0558221,70.9708023 33.0630111,70.8847908 L33.1909756,69.382363 C33.1981646,69.3019006 33.2671792,69.2408601 33.3491339,69.2394728 L34.9321549,69.2228254 C34.9565976,69.2228254 34.982478,69.2283746 35.0040451,69.2380855" id="Fill-30" fill="#606060"></path>
                    <path d="M31.1751184,16.4089526 C31.747364,16.2813225 32.2606596,15.9733457 32.6531798,15.5516116 C33.6610796,14.4709179 33.8666855,13.046178 33.8321782,11.6741549 C33.7502234,8.31692948 29.4396903,8.2073341 27.7790279,10.6517272 C26.2966532,12.8325364 28.0234544,17.1081434 31.1751184,16.4089526" id="Fill-32" fill="#FD886D"></path>
                    <path d="M31.3275399,10.1356301 C32.2506094,10.5448786 33.2326288,11.6380578 33.2038727,12.6812948 C33.1909325,13.1834913 32.9134365,13.5816416 32.9220633,14.1199075 C32.9335658,15.2838382 30.9680892,16.561526 32.7322733,17.6158613 C33.3131457,17.9640694 34.0219826,18.1319306 34.6862475,17.9696185 C34.7035011,17.9654566 34.7207548,17.9599075 34.7380084,17.9529711 C34.8760375,17.8919306 34.937863,17.7310058 34.930674,17.5867283 C34.923485,17.4410636 34.8602216,17.3051098 34.8113363,17.1663815 C34.2908517,15.7277688 34.9637435,14.014474 35.0054397,12.5328555 C35.047136,11.0540116 34.6388,9.4697341 33.3562798,8.54164162 C32.5223541,8.81216185 31.9055367,9.17146821 31.5144543,9.93169942 L31.3275399,10.1356301 Z" id="Fill-34" fill="#606060"></path>
                    <path d="M20.1601391,41.1386913 C21.4671019,41.3230613 20.4419485,39.9635237 20.197522,39.4155468 C20.4218192,39.3905757 20.6389275,39.3739283 20.8502845,39.3088647" id="Fill-36" fill="#F4D0C1"></path>
                    <polygon id="Fill-38" fill="#BCBEC0" points="24.4418874 15.9941272 13.0659908 29.9044162 18.0235352 38.7636069 20.3182687 38.1643006 17.8639391 30.702104 20.9954738 26.8093873 27.2412897 22.1245318"></polygon>
                    <path d="M25.7474124,17.0026821 C26.2779617,16.8417572 26.801322,16.6655723 27.202469,16.2174798 C27.8509181,15.4947052 28.0105142,14.1643006 28.3009504,13.2792139 C28.6057646,12.3455723 28.9695288,11.3356301 29.8250215,10.811237 C30.3843268,10.468578 30.9580102,10.478289 31.5834544,10.5684624 C32.0119197,10.6308902 32.0018551,10.7890405 32.4015643,10.6267283 C32.7078163,10.5018728 33.0327598,10.0329711 33.147784,9.74719075 C33.3418874,9.26441618 33.2254254,8.70395376 32.950805,8.25863584 C32.528091,7.5747052 31.9544076,7.17655491 31.163616,7.03089017 C28.3872186,6.52175723 26.0191572,7.78002312 24.7783333,10.2799075 C24.1816451,11.4812948 24.2175901,12.9323931 23.6050861,14.0838382 C23.2269439,14.7941272 22.6417582,15.2130867 22.3009989,15.9802543 C21.4181879,17.9696185 19.7719036,20.4292717 19.491532,22.5878844 C19.4785918,22.6891561 19.4728405,22.8056879 19.5835514,22.8639538 C19.6770086,22.9125087 19.7934706,22.8889249 19.8739876,22.8237225 C20.6705304,22.184185 21.4656354,21.5432601 22.2621782,20.9037225 C22.5612412,20.6637225 22.8646176,20.4181734 23.0831637,20.107422 C23.628091,19.3333179 23.6093995,18.2151676 24.3541814,17.6158613 C24.7596418,17.2884624 25.2556838,17.1511214 25.7474124,17.0026821" id="Fill-40" fill="#606060"></path>
                    <polygon id="Fill-42" fill="#E4D2B8" points="39.254133 24.5620162 39.1405465 25.6898775 36.9895934 26.1560046 35.9213058 25.1419006 36.09528 23.8350798 37.2469601 23.9155422 37.3217258 23.6325364 37.7271863 23.4466405"></polygon>
                    <polygon id="Fill-44" fill="#606060" points="5.00282084 68.6331884 4.84466252 69.8220902 7.14946058 71.3161942 8.53981599 70.2812809 7.46577722 68.939778 5.16097916 67.4442867"></polygon>
                    <polygon id="Fill-46" fill="#CED5D9" points="4.92517948 68.2350243 6.70230388 53.0749318 4.56285315 36.1027699 5.04451712 32.493059 14.6001553 32.1420763 14.9437901 38.0186081 13.3406399 53.0985156 7.3061811 69.0091283"></polygon>
                    <polygon id="Fill-48" fill="#CED5D9" points="21.6108535 33.8415121 21.6367339 49.1404717 18.4448115 68.8343445 16.1472024 68.812148 14.8848115 50.5998936 11.9301265 32.3709919"></polygon>
                    <polygon id="Fill-50" fill="#606060" points="16.151559 69.7472185 18.6231422 70.969415 19.8769063 69.7819006 18.6475848 68.5721896 16.1630614 68.5484671"></polygon>
                    <path d="M13.838091,16.1689526 C13.5160231,16.3215538 12.7568632,16.3770451 11.9660716,16.0773919 C11.8064754,16.0177387 11.6986402,15.8692994 11.7015158,15.7028254 C11.707267,15.2394728 11.7460877,14.7747329 11.8165401,14.3155422 C11.2227275,14.1143861 10.5368955,13.8119584 10.4333737,13.212652 C10.4003042,13.0239815 10.4348115,12.8311491 10.4678809,12.6424786 C10.6073478,11.8628254 10.7468147,11.0831723 10.8862816,10.3049064 C10.9351669,10.0357734 10.98549,9.75831676 11.1378971,9.52664046 C11.4038906,9.12155376 11.9214997,8.9439815 12.4117905,8.86213179 C13.662679,8.65265202 15.0257162,8.91346127 15.9947953,9.70421272 C16.2535998,9.91507977 16.4865239,10.1675653 16.6001103,10.4741549 C16.7755223,10.9472185 16.6446822,11.468837 16.5124044,11.9557734 C16.3901911,12.4038659 16.2679779,12.8533457 16.1457646,13.3014382 C16.0048599,13.8175075 15.8021297,14.4043283 15.2873963,14.5971607 C15.0142137,14.6998197 14.6907081,14.6692994 14.443406,14.8219006 C14.0077517,15.0924208 14.0652638,15.7194728 13.838091,16.1689526" id="Fill-52" fill="#FD886D"></path>
                    <path d="M21.0573569,8.39596301 C21.1795701,8.20174335 21.311848,8.01307283 21.4599417,7.83688786 C21.7805717,7.45538497 22.1759675,7.12798613 22.4333342,6.70486474 C22.690701,6.28174335 22.7827204,5.70740809 22.4721549,5.3175815 C22.2723003,5.06648324 21.9473569,4.94024046 21.632478,4.85006705 C20.5943843,4.55457572 19.4727543,4.53515376 18.4233019,4.79318844 C17.4238851,5.03873757 16.5297155,5.44521156 15.5232535,5.08313064 C14.5784732,4.74324624 13.8955168,4.88197457 12.90789,5.22185896 C11.8381646,5.58948902 10.4032373,5.67688786 9.43559596,6.19573179 C9.03157334,6.41214798 8.70950549,6.75203237 8.45788998,7.12659884 C7.58658142,8.42370867 7.58226801,10.213304 8.44638756,11.515963 C8.64049095,11.8086798 8.87197722,12.0750382 9.11640372,12.3302983 C9.62107254,12.8574659 10.223512,13.509489 10.917827,13.705096 C10.9337866,13.1057896 10.36873,11.2176971 10.8459368,10.7265988 C11.6023649,9.94833295 13.3133504,10.2188532 14.2507979,10.4116855 C15.2745136,10.6211653 16.1860806,11.3203561 17.2011695,11.4701827 C17.9315733,11.5783908 18.8632696,11.2315699 19.4844005,10.8681017 C20.2521872,10.418622 20.6087624,9.10763931 21.0573569,8.39596301" id="Fill-54" fill="#606060"></path>
                    <path d="M3.57506817,39.0438243 C3.59663522,38.3807029 3.6354559,37.8271769 3.64120711,37.6301827 C3.69009241,35.8516855 3.85400194,34.0773503 4.08548821,32.3113387 C4.29253183,30.7284486 4.55277415,26.8010497 4.83458352,25.2278705 C5.06606979,23.9293734 5.87411502,20.6886798 6.457863,19.4845179 C7.90860614,16.4893734 7.46001163,16.213304 13.8337919,15.3240555 C16.627443,14.9342289 17.2873945,16.6142289 19.5706255,18.5453272 C19.7963606,18.735385 19.7834204,19.8701827 19.8351813,20.1698358 C19.9272006,20.6983908 20.026409,21.2269457 20.1385577,21.752726 C20.2277015,22.1661364 20.3254721,22.5781595 20.4347451,22.9874081 C20.4347451,22.9874081 22.3513363,31.4054428 23.6194785,33.1936509 C24.8876207,34.981859 27.5058598,37.4803561 23.1248743,39.0063676 C22.3484607,39.2491422 21.5677338,39.4795699 20.7596885,39.6016509 C20.7596885,39.6016509 17.1766837,39.2172347 15.3334204,39.2312462 C13.6368129,39.2435931 11.9315787,39.4086798 10.2637273,39.6861364 C9.14799225,39.8664832 8.00925234,40.1274312 7.01141712,40.6308763 C6.0595916,41.1108763 5.37232181,41.8170035 4.40611826,42.3136509 C4.31409887,42.3608185 4.21489047,42.4093734 4.10993086,42.3955006 C3.55493893,42.3205873 3.52762068,40.4395699 3.57506817,39.0438243" id="Fill-56" fill="#86E4AE"></path>
                    <polygon id="Fill-58" fill="#86E4AE" points="8.53984475 16.4755422 4.56288191 19.8369295 0.127259935 28.832074 5.73037787 35.2649064 6.69370582 31.6676809"></polygon>
                    <path d="M59.5185847,67.2112231 C59.7342551,66.9824601 59.9844328,66.8574659 60.26768,66.9004717 C60.5394247,66.9422289 60.785289,67.1196624 60.8974376,67.3584139 C60.9736412,67.5205873 60.9908948,67.7023214 61.0052729,67.8786451 C61.084352,68.7955006 61.077163,70.9735353 59.8103149,71.2870613 C59.2784716,71.4188532 58.8385039,71.0539977 58.6960176,70.5934197 C58.4819288,69.899778 58.7996832,67.9756162 59.5185847,67.2112231" id="Fill-60" fill="#606060"></path>
                    <path d="M59.0685667,53.3744324 L59.1347057,58.9693457 C59.0570643,61.4539699 59.4596491,63.9539931 59.3820078,66.4386173 C59.3647541,67.0100393 59.2093276,67.612259 59.3590029,68.1796578 C59.5056588,68.7330451 59.9713632,68.8316809 60.4501515,68.551311 C61.0914116,68.1753572 60.9880336,67.2972069 61.0958688,66.6576694 C61.3891806,64.8985942 61.7342533,63.1464555 62.0405053,61.3889064 C62.1914746,60.5274035 61.8809092,59.3190798 61.9483422,58.4477272 L62.8859334,53.7588486 L59.0685667,53.3744324 Z" id="Fill-62" fill="#FD886D"></path>
                    <polygon id="Fill-64" fill="#CED5D9" points="65.6924241 44.3350058 63.16908 55.1502659 62.6329233 65.3648324 58.6315178 65.2788208 57.5429572 36.7063353 65.3013417 36.842289"></polygon>
                    <path d="M53.794605,67.0086798 C54.019046,66.7922636 54.2748312,66.6812809 54.5552027,66.7409341 C54.8255097,66.7978127 55.0614532,66.9906451 55.1619556,67.2348069 C55.2309701,67.4012809 55.2395969,67.5844023 55.2469297,67.7619746 C55.2841688,68.6845179 55.1807908,70.8639399 53.9054596,71.1053272 C53.3690153,71.2065988 52.9464451,70.8167723 52.8255258,70.346622 C52.6429249,69.6403561 53.0440719,67.7314543 53.794605,67.0086798" id="Fill-66" fill="#606060"></path>
                    <path d="M55.9038619,54.1596486 L55.5646842,59.7448509 C55.5372221,61.2972208 55.3229895,62.8371052 55.1563481,64.3797642 C55.0010654,65.8114405 55.2424725,67.3041572 54.466059,68.6068162 C54.2232141,69.0146775 53.7314855,69.286585 53.3877068,68.7913249 C53.1231511,68.4084347 53.2798716,67.7702844 53.2295485,67.337452 C53.0225048,65.5658913 52.7637003,63.8012671 52.5438603,62.0310936 C52.436025,61.1640416 52.8039588,59.9711168 52.7796599,59.0969896 L52.0735549,54.3719029 L55.9038619,54.1596486 Z" id="Fill-68" fill="#FD886D"></path>
                    <polygon id="Fill-70" fill="#CED5D9" points="50.8399488 43.6732023 50.5135675 54.1721618 52.2216774 64.7904277 56.2920974 64.9083468 56.1123721 53.4174798 58.2662008 43.8868439 58.9894157 37.6496185 52.530805 36.9143584"></polygon>
                    <polygon id="Fill-72" fill="#86E4AE" points="55.9499147 15.4267422 62.907443 15.2658173 66.9419179 22.5060486 65.5084284 29.287089 65.2524995 37.4013087 55.327346 37.5317133 52.0606578 37.0198058 52.927653 28.3492855 52.431611 16.7668578"></polygon>
                    <polygon id="Fill-74" fill="#83E5AC" points="54.8528855 20.1962081 52.3410438 27.6278844 48.5912538 28.9263815 38.3310922 26.2600231 39.711383 24.2012948 48.7335963 24.4856879 52.4445656 17.0914682"></polygon>
                    <path d="M56.3855977,9.80126705 C57.4351939,6.85883931 61.461042,7.96172948 62.2905105,10.5809202 C62.832706,12.2900532 61.4637738,14.5083191 59.6292811,14.9994173 C59.6206543,15.0660069 59.6149031,15.129822 59.6149031,15.1825387 C59.6134653,15.4572208 59.578958,15.727741 59.5358239,16.0010358 C59.5200081,16.1036948 57.9139822,15.8054289 57.7342569,15.7707468 C57.6708498,15.7582613 57.601979,15.7430012 57.5674717,15.6916717 C57.5027706,15.5945618 57.6077302,15.3073942 57.6192326,15.1991861 C57.6336107,15.0715561 57.6465509,14.943926 57.6609289,14.816296 C56.7549693,14.3904 56.1843053,13.4817295 56.0247092,12.5577988 C55.8651131,11.6297064 56.0692811,10.6849665 56.3855977,9.80126705" id="Fill-76" fill="#FD886D"></path>
                    <path d="M59.0124061,7.14185896 C59.2280766,7.35272601 59.3129069,7.64821734 59.3748763,7.93122312 C59.4121153,8.10047168 59.443747,8.27526936 59.4063641,8.44313064 C59.2568326,9.11180116 58.5695628,9.07573179 58.0390136,9.29214798 C57.384957,9.55711908 56.8197567,10.0468301 56.453117,10.6100671 C55.8794336,11.4909919 56.1368003,12.6257896 56.3697244,13.5982751 C56.4516792,13.9409341 56.6170265,14.4500671 56.3409683,14.7566566 C56.0605968,15.0674081 55.4135855,15.0188532 55.0785774,14.8593156 C54.7723254,14.7136509 54.5207099,14.4431306 54.184264,14.3890266 C53.8276889,14.332148 53.3476065,14.4819746 53.1821153,14.1670613 C53.1361057,14.0796624 53.131936,13.9728416 53.0728423,13.8923792 C52.8758633,13.6204717 52.3870103,13.9381595 52.1095144,13.7481017 C51.9384158,13.6301827 51.9399974,13.3790844 51.9973658,13.1807029 C52.0548779,12.9823214 52.1526485,12.7811653 52.11239,12.5800092 C52.0780265,12.4065988 51.9484805,12.2692578 51.8681073,12.1111075 C51.7098052,11.7989688 51.7644417,11.3938821 52.0002414,11.1302983 C52.4387712,10.6405873 53.287075,10.7335353 53.7572365,10.2729572 C54.001663,10.0329572 54.096558,9.6875237 54.1885774,9.36012486 C54.2805968,9.03272601 54.3900136,8.68729249 54.6515499,8.46532717 C54.9750556,8.19064509 55.4409037,8.23781272 55.760096,7.91318844 C55.9470103,7.72174335 56.0720992,7.47341965 56.2820184,7.30694566 C56.5595144,7.08775491 57.1001283,6.91989364 57.4453447,6.8075237 C57.9915661,6.62856416 58.6026323,6.7409341 59.0124061,7.14185896" id="Fill-78" fill="#606060"></path>
                    <path d="M61.8463013,12.2540116 C61.8649927,13.2223353 61.3660751,14.2697341 61.8290477,15.121526 C62.2963336,15.9816416 63.4596599,16.1370173 64.4501624,16.1814104 C64.6126341,16.1883468 66.7062189,16.3631445 66.7147019,16.3243006 C66.8714225,15.6500809 67.0338942,14.9619884 67.3990961,14.3696185 C67.7642981,13.7772486 68.3753643,13.2861503 69.0755743,13.2445318 C68.8742819,13.211237 68.7721979,12.9726243 68.7952027,12.7714682 C68.8182076,12.5703121 68.9260428,12.388578 68.9894499,12.1957457 C69.1431511,11.7212948 68.9936195,11.1677688 68.6226664,10.8334335 C67.8821979,10.1675376 66.5407278,10.4436069 65.9066567,9.67921387 C65.5126987,9.20476301 65.5601462,8.5180578 65.3545404,7.93817341 C64.956269,6.81863584 63.686689,6.58557225 62.7363013,6.07921387 C61.7342964,5.54510983 60.790954,5.25378035 59.6349604,5.4396763 C58.2014709,5.66996532 57.136059,7.0780578 57.6881753,8.40291329 C58.3970121,10.1023353 61.2323595,9.95528324 61.7629087,11.6810636 C61.817689,11.8697341 61.8421317,12.0597919 61.8463013,12.2540116" id="Fill-80" fill="#606060"></path>
                    <polygon id="Fill-82" fill="#83E5AC" points="60.849947 15.3878566 58.690367 18.3316717 57.6752782 18.2512092 55.984422 15.2657757"></polygon>
                    <path d="M79.2812144,42.6549503 C79.4796312,43.2598058 79.6665456,43.8688231 79.8475649,44.479089" id="Fill-84" fill="#3B455A"></path>
                    <path d="M49.1534779,17.0095908 C44.9018947,16.1758335 39.2340756,17.5506312 37.5173389,20.6442728 C36.656095,17.2357179 30.3340756,14.4320185 26.0005376,14.2183769 C14.5655473,13.6565272 9.25876058,24.3954867 13.0703761,32.5166428 C15.1221208,36.8879723 18.3699738,40.8875098 22.0048834,44.5667237 C25.0487121,47.6478798 33.0587121,54.3706543 33.0874682,54.3539495 C33.1119108,54.3762035 42.608599,49.7883191 46.3526378,47.5353711 C50.8240611,44.8454289 55.0037541,41.751926 58.1224924,38.0102844 C63.9154003,31.0599954 60.3725102,19.2084347 49.1534779,17.0095908" id="Fill-86" fill="#1FD461"></path>
                    <path d="M40.2822052,43.0518382 C36.9594426,44.9772486 33.1550162,46.5448786 29.1708643,46.7363237 C27.2571486,46.8292717 25.4297011,46.561526 23.7460339,45.9580578 C26.6115751,48.7520462 29.7459855,51.6334335 29.7632391,51.6238833 C29.7848061,51.6459191 38.2146446,47.0831445 41.5431583,44.8537803 C45.5186834,42.1915838 49.2424491,39.140948 52.0362439,35.4729711 C52.940622,34.2854566 53.5962601,32.9578266 54.0117851,31.5636069 C52.7522698,33.1451098 51.3387658,34.6239538 49.8320921,36.0084624 C44.7537722,40.6752832 40.6977302,42.8103121 40.2822052,43.0518382 Z" id="Fill-88" fill="#019F44"></path>
                    <path d="M58.1814567,38.6443006 C58.3151724,37.544185 57.50267,36.5467283 56.362636,36.4121618 C55.2194389,36.2775954 54.1800512,37.0627977 54.0404405,38.1656879 L54.0404405,38.1684624 L51.5819414,46.5767861 C51.002363,48.5564393 49.601943,50.2170173 47.71267,51.1674451 L40.7926683,54.6452254 L45.8767394,48.888 C45.9615698,48.8090636 46.0377733,48.721526 46.1067879,48.6271908 L46.1096635,48.6244162 C46.2836376,48.3844162 46.4013937,48.1014104 46.4403582,47.790659 C46.5681788,46.7765549 45.8205213,45.8553988 44.7696312,45.7319306 C44.2921368,45.6764393 43.8364971,45.7957457 43.4684195,46.0357457 L43.466838,46.0344971 L36.578468,50.7830289 C33.6007782,52.8348208 31.6539931,55.9992139 31.2125876,59.5034913 L30.720859,63.4073064 C30.3871449,66.0514682 32.3383872,68.4542428 35.0786958,68.7760925 C36.1383565,68.9010867 37.1579026,68.6929942 38.031943,68.2421272 C38.270762,68.1185202 38.4992289,67.9784046 38.7148994,67.8188671 L52.8673372,59.0567861 C54.7535908,57.8886936 56.0017475,55.9714682 56.2720544,53.825341 L58.1814567,38.6443006 Z" id="Fill-90" fill="#AFABA7"></path>
                    <path d="M8.51968675,30.6729711 C8.66346704,29.5742428 9.70012294,28.7932023 10.8403006,28.9263815 C11.983354,29.060948 12.7971504,30.0639538 12.6576835,31.1668439 L12.6576835,31.1696185 L12.9553087,39.9011792 C13.0257611,41.9571329 13.9718354,43.8937803 15.57211,45.2533179 L21.4268435,50.2308902 L17.92148,43.4651098 C17.8596544,43.368 17.8064557,43.2667283 17.7633216,43.1599075 L17.7618838,43.1571329 C17.6526108,42.8838382 17.6094767,42.5814104 17.6482974,42.270659 C17.7762619,41.2565549 18.730963,40.5351676 19.7819969,40.6586358 C20.2593475,40.7141272 20.6719969,40.9360925 20.9696221,41.2551676 L20.9710599,41.2537803 L26.4792829,47.456185 C28.8602845,50.1365549 29.9630793,53.6587283 29.5216738,57.1631445 L29.0299452,61.0669595 C28.696375,63.7111214 26.2046625,65.5922775 23.465648,65.271815 C22.4059872,65.1469595 21.4685397,64.7099653 20.7309468,64.0690405 C20.5296544,63.8942428 20.3427401,63.704185 20.1730793,63.5002543 L8.61170614,51.7208324 C7.07038142,50.1504277 6.33566414,48.0001387 6.60597108,45.8540116 L8.51968675,30.6729711 Z" id="Fill-92" fill="#AFABA7"></path>
                    <polygon id="Fill-94" fill="#FD886D" points="57.3863086 38.7580994 58.4084426 39.3157873 57.97437 41.4022613 56.5797011 41.9308162 55.413643 41.2454983 55.9585703 40.2633017 55.719895 40.0829549 55.7098304 39.6501225"></polygon>
                    <polygon id="Fill-96" fill="#86E4AE" points="63.2064628 16.7876809 65.5889023 20.6706867 65.4783352 30.2276809 59.2568183 39.7749642 57.0296616 38.6665249 61.9327132 30.2262936 61.0340864 23.6561202"></polygon>
                    <polygon id="Fill-98" fill="#BCBEC0" points="77.0395646 12.3413965 83.0366405 9.53076069 86.7995145 0.955963006 88.8728263 1.09469133 86.417059 11.1705295 84.2373498 13.7203561 76.846899 17.5339977"></polygon>
                    <polygon id="Fill-100" fill="#FD886D" points="7.62534459 35.5714821 9.66271131 36.6993434 10.2004496 35.879459 8.98263053 34.8098636 9.42259822 34.5351815 7.55776785 33.7749503 6.87912488 34.5546035"></polygon>
                </g>
            </g>
        </g>
    </g>
</svg>