<?xml version="1.0" encoding="UTF-8"?>
<svg width="46px" height="36px" viewBox="0 0 46 36" version="1.1" xmlns="http://www.w3.org/2000/svg" xmlns:xlink="http://www.w3.org/1999/xlink">
    <title>0CB0DE05-FA4C-419F-9E1A-7C09FC1B66A2</title>
    <g id="PC-(responsive-format)-V2" stroke="none" stroke-width="1" fill="none" fill-rule="evenodd">
        <g id="09_Creer-une-annonce" transform="translate(-531.000000, -274.000000)">
            <g id="icons8-add_camera-2" transform="translate(532.000000, 275.000000)">
                <polygon id="Path" stroke="#0091FF" points="39 16.8012221 39 15.4770508 39 12.8888889 39 3.22222222 28.4375 3.22222222 26 0 13 0 10.5625 3.22222222 0 3.22222222 0 29 39 29"></polygon>
                <circle id="Oval" stroke="#0091FF" stroke-width="0.9" cx="20.5" cy="17.5" r="7.05"></circle>
                <path d="M6.5,7 C5.67157288,7 5,7.67157288 5,8.5 C5,9.32842712 5.67157288,10 6.5,10 C7.32842712,10 8,9.32842712 8,8.5 C8,7.67157288 7.32842712,7 6.5,7 Z" id="Path" fill="#0091FF" fill-rule="nonzero"></path>
                <path d="M22.5407079,16.7499999 C20.4864307,20.3081123 20.4864307,24.6918877 22.5407079,28.2500001 C24.594985,31.8081125 28.3914457,34 32.5,34 C36.6085543,34 40.405015,31.8081125 42.4592921,28.2500001 C44.5135693,24.6918877 44.5135693,20.3081123 42.4592921,16.7499999 C40.405015,13.1918875 36.6085543,11 32.5,11 C28.3914457,11 24.594985,13.1918875 22.5407079,16.7499999 Z" id="Path" stroke="#0091FF" fill="#FFFFFF"></path>
                <polygon id="Path" fill="#0091FF" points="39 21.5941586 33.4004378 21.5941586 33.4004378 16 31.5503283 16 31.5503283 21.5941586 26 21.5941586 26 23.4456189 31.5503283 23.4456189 31.5503283 29 33.4004378 29 33.4004378 23.4456189 39 23.4456189"></polygon>
            </g>
        </g>
    </g>
</svg>