<?xml version="1.0" encoding="UTF-8"?>
<svg width="27px" height="27px" viewBox="0 0 27 27" version="1.1" xmlns="http://www.w3.org/2000/svg" xmlns:xlink="http://www.w3.org/1999/xlink">
    <title>805F74B1-147A-4D11-B2D1-FF3E5354AA0A</title>
    <g id="PC-(responsive-format)-V2" stroke="none" stroke-width="1" fill="none" fill-rule="evenodd">
        <g id="03.2-Home-log" transform="translate(-28.000000, -76.000000)">
            <g id="icons8-add_new" transform="translate(29.000000, 77.000000)">
                <path d="M18.852459,1.73237705 C18.5852459,1.57459016 18.3118852,1.42622951 18.0327869,1.28811475 M20.0819672,2.56106557 C19.947541,2.45819672 19.8106557,2.35819672 19.6721311,2.26106557 M16.8032787,0.760655738 C15.4614754,0.268852459 14.0122951,0 12.5,0 C5.59631148,0 0,5.59631148 0,12.5 C0,19.4036885 5.59631148,25 12.5,25 C19.4036885,25 25,19.4036885 25,12.5 C25,8.83114754 23.4192623,5.53114754 20.9016393,3.24467213" id="Shape" stroke="#2BD260" stroke-width="0.5" stroke-linecap="round" stroke-linejoin="round"></path>
                <path d="M18.0151515,11.4285714 L13.4848485,11.4285714 L13.4848485,6.07142857 C13.4848485,5.47957143 13.0440303,5 12.5,5 C11.9559697,5 11.5151515,5.47957143 11.5151515,6.07142857 L11.5151515,11.4285714 L6.98484848,11.4285714 C6.44081818,11.4285714 6,11.9081429 6,12.5 C6,13.0918571 6.44081818,13.5714286 6.98484848,13.5714286 L11.5151515,13.5714286 L11.5151515,18.9285714 C11.5151515,19.5204286 11.9559697,20 12.5,20 C13.0440303,20 13.4848485,19.5204286 13.4848485,18.9285714 L13.4848485,13.5714286 L18.0151515,13.5714286 C18.5591818,13.5714286 19,13.0918571 19,12.5 C19,11.9081429 18.5591818,11.4285714 18.0151515,11.4285714 Z" id="Path" fill="#37D065"></path>
            </g>
        </g>
    </g>
</svg>