<?xml version="1.0" encoding="UTF-8"?>
<svg width="88px" height="30px" viewBox="0 0 88 30" version="1.1" xmlns="http://www.w3.org/2000/svg" xmlns:xlink="http://www.w3.org/1999/xlink">
    <title>DE0F4815-6FE7-42F2-8E1E-D7A4913FB9B5</title>
    <defs>
        <linearGradient x1="50%" y1="0%" x2="50%" y2="100%" id="linearGradient-1">
            <stop stop-color="#1E79AF" offset="0%"></stop>
            <stop stop-color="#63FFD3" offset="100%"></stop>
        </linearGradient>
        <linearGradient x1="84.7178118%" y1="28.8026282%" x2="5.24419544%" y2="77.7602255%" id="linearGradient-2">
            <stop stop-color="#DC4057" offset="0%"></stop>
            <stop stop-color="#9E36BB" offset="100%"></stop>
        </linearGradient>
        <linearGradient x1="50%" y1="0%" x2="50%" y2="97.8256537%" id="linearGradient-3">
            <stop stop-color="#FF9676" offset="0%"></stop>
            <stop stop-color="#FFD074" offset="100%"></stop>
        </linearGradient>
        <linearGradient x1="17.4435371%" y1="20.1911988%" x2="100%" y2="79.8088012%" id="linearGradient-4">
            <stop stop-color="#51C6AD" offset="0%"></stop>
            <stop stop-color="#D5FFA1" offset="100%"></stop>
        </linearGradient>
    </defs>
    <g id="PC-(responsive-format)-V2" stroke="none" stroke-width="1" fill="none" fill-rule="evenodd">
        <g id="UI-KIT" transform="translate(-145.000000, -1308.000000)">
            <g id="google-play" transform="translate(145.000000, 1308.000000)">
                <rect id="bg" fill="#000000" x="0" y="0" width="88" height="30" rx="3"></rect>
                <g transform="translate(6.000000, 8.000000)">
                    <path d="M0.569344736,-0.0929831423 C0.31297313,-0.0119720784 0.147062383,0.250216439 0.147062383,0.646891303 L0.148642485,13.1313747 C0.148642485,13.5236598 0.3094179,13.7818576 0.558679045,13.8680566 L7.47360196,6.88194974 L0.569344736,-0.0929831423" id="left" fill="url(#linearGradient-1)"></path>
                    <path d="M0.558679045,13.8680566 C0.738020662,13.9295132 0.962790222,13.9007802 1.20770609,13.7650967 L9.64624269,9.07683078 L7.47360196,6.88194974 L0.558679045,13.8680566" id="bottom" fill="url(#linearGradient-2)"></path>
                    <path d="M9.64742777,9.07683078 L12.5247941,7.47855831 C13.1082469,7.15331685 13.1082469,6.62415098 12.5247941,6.29970766 L9.63676208,4.69544915 L7.47360196,6.88075253 L9.64742777,9.07683078" id="right" fill="url(#linearGradient-3)"></path>
                    <path d="M9.63636705,4.69544915 L1.20770609,0.0135683555 C0.968715606,-0.118523576 0.748291328,-0.149251911 0.569739762,-0.0929831423 L7.47360196,6.88075253 L9.63636705,4.69544915" id="top" fill="url(#linearGradient-4)"></path>
                </g>
                <path d="M51.4808156,16.2396566 L50.663199,16.7027358 L49.870542,16.7027358 C50.1636284,16.9445239 50.7751391,17.4577068 50.7751391,18.4309323 C50.7751391,19.3794855 50.2422891,19.8266227 49.7049009,20.2498467 C49.5400162,20.4164793 49.3471464,20.5971561 49.3471464,20.8765219 C49.3471464,21.1600631 49.5400162,21.3137902 49.6788068,21.4284213 L50.1398033,21.7855996 C50.7002602,22.2604456 51.2111761,22.6958159 51.2111761,23.5802213 C51.2111761,24.7849864 50.0494193,26 47.8541074,26 C46.0048266,26 45.1108184,25.1159742 45.1108184,24.1681801 C45.1108184,23.7069987 45.3396149,23.0537534 46.0944543,22.6062367 C46.8855985,22.1207627 47.9573494,22.0558556 48.5314207,22.0178983 C48.3521652,21.7855996 48.147572,21.5422932 48.147572,21.1452597 C48.147572,20.9281439 48.2126183,20.7987095 48.2753955,20.6461211 C48.1358485,20.6594061 47.995167,20.6730707 47.8673435,20.6730707 C46.5138515,20.6730707 45.7488014,19.6596105 45.7488014,18.6609536 C45.7488014,18.0718561 46.01655,17.4182312 46.566418,16.9445239 C47.2940287,16.3432801 48.1615645,16.2396566 48.8509794,16.2396566 L51.4808156,16.2396566 Z M48.6724803,22.3754562 C48.5567585,22.3754562 47.8673435,22.400508 47.333359,22.5804257 C47.0508615,22.6840492 46.2343794,22.9903647 46.2343794,23.9002015 C46.2343794,24.8081404 47.1159078,25.462904 48.4796105,25.462904 C49.7049009,25.462904 50.3553637,24.873427 50.3553637,24.0797396 C50.3553637,23.4264942 49.9344538,23.0818418 48.9663231,22.3891209 C48.8615683,22.3754562 48.7987911,22.3754562 48.6724803,22.3754562 Z M76.9282812,16.197524 L79.1096005,21.4485386 L81.2697421,16.197524 L82,16.197524 L78.8985783,23.5285994 C78.5767505,24.2839499 78.0703728,24.6472014 77.3749071,24.6472014 C77.1661539,24.6472014 76.8908417,24.6100032 76.7297387,24.5602791 L76.8405443,23.9624515 C76.9785786,24.0243219 77.2141822,24.0622792 77.3635618,24.0622792 C77.7583776,24.0622792 78.0333115,23.9002015 78.2802605,23.3278052 L78.7510897,22.2570294 L76.208234,16.197524 L76.9282812,16.197524 Z M65.3912648,16.0475926 C66.9920839,16.0475926 68.0702638,17.2664019 68.0702638,19.1957721 C68.0702638,21.1122369 66.9920839,22.3564776 65.3912648,22.3564776 C64.5486886,22.3564776 63.7938492,21.920348 63.3097839,21.2367368 L63.3097839,24.4991679 L62.6642374,24.4991679 L62.6642374,16.197524 L63.3097839,16.197524 L63.3097839,17.1430407 C63.7303156,16.5319279 64.4987693,16.0475926 65.3912648,16.0475926 Z M27.8327116,13.5257088 C28.4782581,13.5257088 29.0992231,13.6209816 29.6649745,13.7758475 C30.5616299,14.0286432 30.9810271,14.3402727 31.2431031,14.5228474 L30.2492565,15.4702619 L29.8302374,15.564396 L30.1289965,15.0865135 C29.7243481,14.6898596 28.9804759,13.957663 27.5687447,13.957663 C25.6812681,13.957663 24.2574353,15.3977634 24.2574353,17.500219 C24.2574353,19.7582995 25.8832141,21.8823907 28.4907379,21.8823907 C29.2569225,21.8823907 29.6513602,21.7279045 30.0094929,21.5836667 L30.0094929,19.6478437 L28.2029459,19.745394 L29.1604877,19.2291746 L31.6957798,19.2291746 L31.3856755,19.5286578 C31.3020986,19.6000175 31.2907533,19.6243102 31.2673064,19.7199626 C31.2548266,19.8292797 31.2431031,20.1769687 31.2431031,20.2991912 L31.2431031,21.7632048 L29.5322347,22.1564425 C28.839038,22.2661392 28.2165603,22.3625507 27.5573994,22.3625507 C24.2574353,22.3625507 23,19.9245525 23,18.0164384 C23,15.686239 24.7815873,13.5257088 27.8327116,13.5257088 Z M73.1869856,16.0449356 C73.8907712,16.0449356 74.4603043,16.2149844 74.8895341,16.5543228 C75.3183858,16.890245 75.5335679,17.375719 75.5335679,18.0103653 L75.5335679,20.9748314 C75.5335679,21.1877719 75.5437787,21.3935005 75.570251,21.5939152 C75.5974797,21.7947093 75.6409699,21.9951239 75.6988309,22.1890858 L74.9549586,22.1890858 C74.9118465,21.9807002 74.8793234,21.7969868 74.8554983,21.6436392 C74.8358331,21.4906713 74.8244879,21.3342871 74.8244879,21.175246 C74.6032549,21.5012993 74.2897469,21.7726941 73.8892585,21.9863938 C73.4883919,22.2016117 73.1075686,22.3071331 72.5853075,22.3071331 C71.9564008,22.3071331 71.4681755,22.1518876 71.1198754,21.836842 C70.7727098,21.5221758 70.5979925,21.0959152 70.5979925,20.5565418 C70.5979925,20.0179275 70.8509922,19.5806593 71.3554791,19.2462554 C71.8599659,18.9103331 72.5119414,18.743321 73.3189691,18.743321 L74.8244879,18.743321 L74.8244879,17.9967006 C74.8244879,17.5666443 74.6785119,17.2284446 74.3869382,16.9832404 C74.0942299,16.7376566 73.6835308,16.6135362 73.1510589,16.6135362 C72.6643463,16.6135362 72.2695305,16.7270285 71.9688806,16.9479401 C71.6708779,17.1734065 71.520742,17.4527723 71.520742,17.7894537 L70.8600685,17.7894537 L70.8464541,17.75719 C70.822629,17.3032205 71.0294913,16.9050483 71.4693101,16.5611551 C71.9072379,16.2176414 72.480931,16.0449356 73.1869856,16.0449356 Z M57.2854396,16.0741627 C57.7445453,16.0741627 58.2161308,16.189553 58.5996013,16.4328594 C59.2372061,16.8560834 59.4020909,17.4060848 59.4936095,17.7006336 L56.493539,18.9171655 L55.5110376,18.9938392 C55.8290837,20.6222079 56.9265505,21.5692429 58.1393611,21.5692429 C58.7451991,21.5692429 59.1948504,21.3707262 59.6074405,21.1661362 C59.6074405,21.1661362 59.690261,21.1228649 59.6312655,21.1820783 L59.0208894,21.7601682 C58.8798298,21.8379807 58.7395264,21.9283191 58.5996013,21.9924669 C58.175666,22.1856697 57.7445453,22.234255 57.361453,22.234255 C56.9537792,22.234255 56.3146617,22.2076849 55.6626862,21.7343572 C54.7569546,21.0940173 54.3610043,19.9932553 54.3610043,19.034074 C54.3610043,17.0481474 55.971656,16.0741627 57.2854396,16.0741627 Z M35.3591711,16.0741627 C37.2341679,16.0741627 38.4080263,17.5484248 38.4080263,19.096324 C38.4080263,20.6081637 37.2481604,22.2076849 35.1666795,22.2076849 C33.137765,22.2076849 32.0542907,20.6222079 32.0542907,19.1866624 C32.0542907,17.5093287 33.419128,16.0741627 35.3591711,16.0741627 Z M42.1497,16.0741627 C44.0258313,16.0741627 45.2008243,17.5484248 45.2008243,19.096324 C45.2008243,20.6081637 44.0394457,22.2076849 41.9583429,22.2076849 C39.9298067,22.2076849 38.8444415,20.6222079 38.8444415,19.1866624 C38.8444415,17.5093287 40.2089006,16.0741627 42.1497,16.0741627 Z M69.5969605,13.9052819 L69.5969605,22.2069257 L68.9517922,22.2069257 L68.9517922,13.9052819 L69.5969605,13.9052819 Z M53.9261018,13 C53.5305297,13.2300213 53.4121606,13.3700838 53.361485,13.8183597 L53.3584596,21.0830097 C53.3584596,21.5806301 53.4469528,21.658063 53.86635,21.697159 C54.0849358,21.72297 54.3027652,21.7343572 54.5183255,21.7601682 L54.0463618,22.042191 L51.7973489,22.042191 C52.0923262,21.658063 52.1430018,21.6197261 52.1430018,21.3638938 L52.1430018,21.0780753 L52.1380855,13.4623201 L51.1449953,13.4623201 L52.1010243,13 L53.9261018,13 Z M35.0275107,16.4715758 C34.6050881,16.4715758 34.1856908,16.6366901 33.8793683,16.906187 C33.3801759,17.3544629 33.2916827,17.9177494 33.2916827,18.4704079 C33.2916827,19.7359047 33.917564,21.8231773 35.4616568,21.8231773 C35.9597146,21.8231773 36.4683614,21.5806301 36.7629605,21.1714503 C37.0692831,20.7615113 37.1456747,20.2498467 37.1456747,19.7510876 C37.1456747,18.6229963 36.6086647,16.4715758 35.0275107,16.4715758 Z M41.8195523,16.4715758 C41.3986424,16.4715758 40.9747071,16.6366901 40.6691408,16.906187 C40.1707048,17.3544629 40.0818334,17.9177494 40.0818334,18.4704079 C40.0818334,19.7359047 40.7050676,21.8231773 42.2518076,21.8231773 C42.7509999,21.8231773 43.260403,21.5806301 43.5542458,21.1714503 C43.8628375,20.7615113 43.9377163,20.2498467 43.9377163,19.7510876 C43.9377163,18.6229963 43.4022191,16.4715758 41.8195523,16.4715758 Z M65.2823501,16.6325148 C64.450741,16.6325148 63.6554368,17.2884172 63.3097839,17.8604339 L63.3097839,20.5178253 C63.6554368,21.0909808 64.450741,21.7707962 65.2823501,21.7707962 C66.6214714,21.7707962 67.376689,20.6521942 67.376689,19.1957721 C67.376689,17.7416275 66.6214714,16.6325148 65.2823501,16.6325148 Z M74.8244879,19.2576426 L73.3117837,19.2576426 C72.7339307,19.2576426 72.255538,19.3859383 71.8792529,19.6448071 C71.5022114,19.9029169 71.3112325,20.2153056 71.3112325,20.578557 C71.3112325,20.9213116 71.4322488,21.1953634 71.6727688,21.4029899 C71.9140451,21.6128938 72.2438146,21.7168968 72.6643463,21.7168968 C73.2127016,21.7168968 73.606761,21.5939152 74.0095185,21.3506088 C74.4096287,21.1088207 74.6819155,20.7933954 74.8244879,20.4115449 L74.8244879,19.2576426 Z M48.0458426,16.6632602 C47.7149386,16.6632602 47.3564277,16.8298928 47.152969,17.087623 C46.9370305,17.3544629 46.8723624,17.7006336 46.8723624,18.0335192 C46.8723624,18.8913545 47.3707984,20.3139946 48.4671307,20.3139946 C48.7870677,20.3139946 49.1312079,20.15799 49.3331539,19.955298 C49.6281312,19.6596105 49.6538471,19.2511898 49.6538471,19.0192706 C49.6538471,18.0980467 49.1066264,16.6632602 48.0458426,16.6632602 Z M56.9265505,16.4966276 C56.4167692,16.4966276 55.4596057,16.8951794 55.4596057,18.279103 C55.4596057,18.4950801 55.4853216,18.7251015 55.4981796,18.9551228 L57.821315,17.9431808 C58.0648604,17.8543607 58.1915494,17.7776869 58.1915494,17.5992876 C58.1915494,17.087623 57.6148309,16.4966276 56.9265505,16.4966276 Z" id="logotype" fill="#FFFFFF"></path>
                <path d="M24.1826469,5 C24.9932997,5 25.5230873,5.35909954 25.853815,5.79884278 L25.2613099,6.11743965 C25.0369293,5.82777326 24.6438737,5.60247717 24.1826469,5.60247717 C23.3599179,5.60247717 22.7483249,6.1810867 22.7483249,6.99728777 C22.7483249,7.80155501 23.3599179,8.39209836 24.1826469,8.39209836 C24.6068665,8.39209836 24.9808342,8.21272941 25.167818,8.04493265 L25.167818,7.4486032 L23.9208695,7.4486032 L23.9208695,6.85227375 L25.8912118,6.85227375 L25.8912118,8.29373474 C25.4860801,8.71648133 24.8998078,9 24.1826469,9 C22.9727056,9 22,8.20730495 22,6.99728777 C22,5.78184613 22.9727056,5 24.1826469,5 Z M45.417779,5 C46.6581052,5 47.5439412,5.84513154 47.5439412,6.99728777 C47.5439412,8.14908236 46.6581052,8.9942139 45.417779,8.9942139 C44.1700514,8.9942139 43.2912273,8.14908236 43.2912273,6.99728777 C43.2912273,5.84513154 44.1700514,5 45.417779,5 Z M29.6429647,5.06364705 L29.6429647,5.66033812 L27.5226458,5.66033812 L27.5226458,6.65554651 L29.5993352,6.65554651 L29.5993352,7.25187596 L27.5226458,7.25187596 L27.5226458,8.32845132 L29.6429647,8.32845132 L29.6429647,8.92478076 L26.7934088,8.92478076 L26.7934088,5.06364705 L29.6429647,5.06364705 Z M33.6506518,5.06364705 L33.6506518,5.66033812 L32.3912377,5.66033812 L32.3912377,8.92478076 L31.6616112,8.92478076 L31.6616112,5.66033812 L30.4021971,5.66033812 L30.4021971,5.06364705 L33.6506518,5.06364705 Z M36.9154677,5.06364705 L36.9154677,8.92478076 L36.1862307,8.92478076 L36.1862307,5.06364705 L36.9154677,5.06364705 Z M40.9363995,5.06364705 L40.9363995,5.66033812 L39.6769854,5.66033812 L39.6769854,8.92478076 L38.9473589,8.92478076 L38.9473589,5.66033812 L37.6879447,5.66033812 L37.6879447,5.06364705 L40.9363995,5.06364705 Z M49.1442113,5.06364705 L51.2703734,7.7382696 L51.2703734,5.06364705 L52,5.06364705 L52,8.92478076 L51.2953046,8.92478076 L49.1251234,6.16372842 L49.1251234,8.92478076 L48.3958864,8.92478076 L48.3958864,5.06364705 L49.1442113,5.06364705 Z M45.417779,5.60247717 C44.5755726,5.60247717 44.0395523,6.19844499 44.0395523,6.99728777 C44.0395523,7.78998282 44.5755726,8.39209836 45.417779,8.39209836 C46.2529736,8.39209836 46.7956163,7.78998282 46.7956163,6.99728777 C46.7956163,6.19844499 46.2529736,5.60247717 45.417779,5.60247717 Z" id="get-it-on" fill="#FFFFFF"></path>
            </g>
        </g>
    </g>
</svg>