<?xml version="1.0" encoding="UTF-8"?>
<svg width="88px" height="30px" viewBox="0 0 88 30" version="1.1" xmlns="http://www.w3.org/2000/svg" xmlns:xlink="http://www.w3.org/1999/xlink">
    <title>6C33A32B-37FA-4718-BEF0-7B7A9DF6622E</title>
    <g id="PC-(responsive-format)-V2" stroke="none" stroke-width="1" fill="none" fill-rule="evenodd">
        <g id="UI-KIT" transform="translate(-37.000000, -1308.000000)">
            <g id="apple" transform="translate(37.000000, 1308.000000)">
                <rect id="bg" fill="#000000" x="0" y="0" width="88" height="30" rx="3"></rect>
                <path d="M34.4668949,22.3054614 L32.9575653,22.3054614 L32.1307903,19.611612 L29.257016,19.611612 L28.469453,22.3054614 L27,22.3054614 L29.8471898,13.1343824 L31.6057483,13.1343824 L34.4668949,22.3054614 L34.4668949,22.3054614 Z M39.1510671,15.5567105 C39.9034058,15.5567105 40.5314624,15.8647562 41.0339077,16.4815368 C41.5376821,17.0990065 41.7889048,17.9108138 41.7889048,18.9176477 C41.7889048,20.0423247 41.4958117,20.9313157 40.9096256,21.5839315 C40.3845836,22.1648768 39.732601,22.4550049 38.9543425,22.4550049 C38.1142753,22.4550049 37.5108093,22.1421352 37.1432799,21.5163958 L37.1166955,21.5163958 L37.1166955,25 L35.6997467,25 L35.6997467,17.8694653 C35.6997467,17.1624074 35.6818022,16.4367427 35.6472425,15.6924711 L36.8933865,15.6924711 L36.9724751,16.7406535 L36.9990595,16.7406535 C37.4715973,15.9508988 38.1887117,15.5567105 39.1510671,15.5567105 Z M46.4870338,15.5567105 C47.2387079,15.5567105 47.8667645,15.8647562 48.370539,16.4815368 C48.8723196,17.0990065 49.1242069,17.9108138 49.1242069,18.9176477 C49.1242069,20.0423247 48.8311138,20.9313157 48.244263,21.5839315 C47.7198856,22.1648768 47.0679031,22.4550049 46.2896446,22.4550049 C45.4495774,22.4550049 44.8461114,22.1421352 44.4792466,21.5163958 L44.4526622,21.5163958 L44.4526622,25 L43.0357134,25 L43.0357134,17.8694653 C43.0357134,17.1624074 43.0177689,16.4367427 42.9832092,15.6924711 L44.2293532,15.6924711 L44.3084418,16.7406535 L44.3350262,16.7406535 C44.8068994,15.9508988 45.5240137,15.5567105 46.4870338,15.5567105 Z M65.985366,15.5573996 C66.9211371,15.5573996 67.6741404,15.8792282 68.2423821,16.5235743 C68.7860332,17.1486246 69.0571941,17.9556079 69.0571941,18.9445242 C69.0571941,19.9610061 68.7767286,20.795555 68.2171269,21.4481709 C67.6302761,22.1200827 66.851353,22.4550049 65.8803576,22.4550049 C64.9445866,22.4550049 64.1995586,22.1331764 63.6439445,21.4895193 C63.0883304,20.8458623 62.8105234,20.0333659 62.8105234,19.0540975 C62.8105234,18.0293459 63.0963058,17.189973 63.6698643,16.5373571 C64.2420936,15.8840521 65.0143706,15.5573996 65.985366,15.5573996 Z M54.9774283,13 C55.7822712,13 56.450869,13.1454086 56.9845509,13.4355367 L56.6303137,14.6332625 C56.1318561,14.3520933 55.5682667,14.2115086 54.9375517,14.2115086 C54.4390941,14.2115086 54.0496326,14.3389996 53.7704963,14.5926032 C53.5345597,14.8193304 53.4162591,15.0956756 53.4162591,15.4230173 C53.4162591,15.7855051 53.551175,16.0852811 53.8223359,16.3209671 C54.0582725,16.5387354 54.4869461,16.7744214 55.1090211,17.0287142 C55.8699997,17.3464079 56.4289369,17.7178545 56.788491,18.1437432 C57.1467158,18.5682536 57.3254959,19.0995808 57.3254959,19.7335898 C57.3254959,20.5136967 57.0643042,21.1483949 56.5399268,21.6383736 C55.9637098,22.1738356 55.1615253,22.4412221 54.130715,22.4412221 C53.1789933,22.4412221 52.4160209,22.2510194 51.8384747,21.8699248 L52.1667921,20.6453225 C52.7888672,21.0353759 53.4714218,21.2310917 54.2151205,21.2310917 C54.7488024,21.2310917 55.1641838,21.1056682 55.4625937,20.8561994 C55.7596745,20.6067306 55.9078825,20.2718084 55.9078825,19.8541894 C55.9078825,19.4820536 55.7855943,19.1684948 55.5403531,18.914202 C55.2964412,18.6599093 54.8890352,18.4235341 54.3201289,18.2050767 C52.7715873,17.6062137 51.9979811,16.7289381 51.9979811,15.5753173 C51.9979811,14.8213978 52.269142,14.203239 52.8121285,13.722219 C53.3531212,13.24051 54.0748878,13 54.9774283,13 Z M60.448499,14.0447367 L60.448499,15.6910929 L62.0103328,15.6910929 L62.0103328,16.7950956 L60.448499,16.7950956 L60.448499,20.0058003 C60.448499,20.8224315 60.7236476,21.2304026 61.275274,21.2304026 C61.5284905,21.2304026 61.7385073,21.2076609 61.9046598,21.1621777 L61.9438718,22.2778958 C61.6647355,22.3860909 61.2972061,22.4405329 60.8419482,22.4405329 C60.2823464,22.4405329 59.845033,22.2634239 59.5293432,21.9098949 C59.2149826,21.5556768 59.0568054,20.9616379 59.0568054,20.127089 L59.0568054,16.7937173 L58.1263512,16.7937173 L58.1263512,15.6910929 L59.0568054,15.6910929 L59.0568054,14.4802734 L60.448499,14.0447367 Z M77.3501994,15.544306 C78.2693552,15.544306 78.965202,15.897835 79.4377398,16.6048929 C79.8119153,17.1665422 80,17.8611957 80,18.6860966 C80,18.9493482 79.9833847,19.1712514 79.9481604,19.3524953 L75.697314,19.3524953 C75.7139292,20.0058003 75.9192938,20.505427 76.3140722,20.8499971 C76.672297,21.1580428 77.1355303,21.3124103 77.7044366,21.3124103 C78.3338224,21.3124103 78.9080455,21.2083501 79.4244476,20.9995406 L79.6464274,22.0194682 C79.0429614,22.2923678 78.3304993,22.4281284 77.5083766,22.4281284 C76.5194367,22.4281284 75.7431721,22.126285 75.1782535,21.5232872 C74.6146641,20.9202894 74.3322048,20.1105496 74.3322048,19.0947568 C74.3322048,18.0975708 74.5947258,17.2671567 75.1204324,16.6048929 C75.6707296,15.897835 76.4144283,15.544306 77.3501994,15.544306 Z M73.3087051,15.5567105 C73.4396333,15.5567105 73.5579339,15.5663585 73.6629423,15.583587 L73.6629423,16.9846092 C73.5227096,16.9577327 73.3731723,16.9439499 73.2163243,16.9439499 C72.7178667,16.9439499 72.3323928,17.1389766 72.0612319,17.5297192 C71.8252953,17.8742893 71.7069947,18.309826 71.7069947,18.83564 L71.7069947,22.3054614 L70.2907105,22.3054614 L70.3040027,17.7750531 C70.3040027,17.012864 70.2860582,16.3188997 70.2508339,15.6931603 L71.4850149,15.6931603 L71.5368545,16.9584219 L71.5760665,16.9584219 C71.7256038,16.5235743 71.9615404,16.1734911 72.2845409,15.9109286 C72.6002307,15.6745535 72.9411757,15.5567105 73.3087051,15.5567105 Z M65.9348557,16.6317694 C65.3652848,16.6317694 64.9326236,16.8957101 64.6355428,17.4229024 C64.3809972,17.8598174 64.2553859,18.3911445 64.2553859,19.0196405 C64.2553859,19.6295297 64.3809972,20.1525871 64.6355428,20.5881238 C64.9419281,21.1160053 65.3699371,21.3792569 65.9222281,21.3792569 C66.4632207,21.3792569 66.8879066,21.1104922 67.1942919,20.574341 C67.4554837,20.1298455 67.5870765,19.6012749 67.5870765,18.9920749 C67.5870765,18.3821857 67.4614652,17.8591282 67.2069195,17.4229024 C66.9098387,16.895021 66.4851529,16.6317694 65.9348557,16.6317694 Z M38.6918215,16.7261816 C38.3422366,16.7261816 38.024553,16.8474703 37.7407644,17.086602 C37.4563113,17.3278011 37.2702204,17.6427382 37.1831565,18.0327916 C37.1392923,18.2147246 37.1173601,18.3635789 37.1173601,18.4807328 L37.1173601,19.5833573 C37.1173601,20.0643772 37.2595867,20.4702808 37.5440398,20.8017573 C37.828493,21.1332338 38.1980162,21.2986275 38.6526095,21.2986275 C39.1862915,21.2986275 39.6016728,21.084994 39.8987535,20.6591053 C40.1964989,20.2325274 40.3453716,19.6701889 40.3453716,18.9714007 C40.3453716,18.3277436 40.2058034,17.7971056 39.9253379,17.3794866 C39.6189527,16.9439499 39.207559,16.7261816 38.6918215,16.7261816 Z M46.0271236,16.7261816 C45.6768741,16.7261816 45.359855,16.8474703 45.0754019,17.086602 C44.7909488,17.3278011 44.6055225,17.6427382 44.5184586,18.0327916 C44.4752589,18.2147246 44.4526622,18.3635789 44.4526622,18.4807328 L44.4526622,19.5833573 C44.4526622,20.0643772 44.5948888,20.4702808 44.8780127,20.8017573 C45.1624658,21.1325447 45.5319891,21.2986275 45.9879116,21.2986275 C46.5215936,21.2986275 46.9369749,21.084994 47.2340556,20.6591053 C47.531801,20.2325274 47.6806736,19.6701889 47.6806736,18.9714007 C47.6806736,18.3277436 47.5404409,17.7971056 47.2599754,17.3794866 C46.9535901,16.9439499 46.5435257,16.7261816 46.0271236,16.7261816 Z M30.6879217,14.3589847 C30.9065784,15.2658933 31.0547864,15.8420146 31.1338751,16.0866594 L31.1338751,16.0866594 L31.8815615,18.4814219 L29.5069094,18.4814219 L30.2413036,16.0866594 C30.4340406,15.3251594 30.5742733,14.7490381 30.6613372,14.3589847 L30.6613372,14.3589847 Z M77.2445264,16.5628553 C76.7812931,16.5628553 76.4044592,16.7620169 76.116683,17.1617183 C75.8807464,17.4794119 75.7405136,17.8605065 75.697314,18.3043129 L78.6488476,18.3043129 C78.6581521,17.8694653 78.5657713,17.4931947 78.373699,17.1755011 C78.1284579,16.7668409 77.7516239,16.5628553 77.2445264,16.5628553 Z" id="app-store" fill="#FFFFFF"></path>
                <path d="M33.8958739,6.479811 C34.3510725,6.479811 34.7168101,6.64375716 34.9937444,6.97236541 C35.256865,7.29166667 35.3890831,7.7040378 35.3890831,8.20804696 C35.3890831,8.72709049 35.2529182,9.15234822 34.9805884,9.48596793 C34.6951026,9.82889462 34.3168668,10 33.8445654,10 C33.3893668,10 33.0269183,9.83605384 32.7565619,9.50672967 C32.4868633,9.17812142 32.352014,8.76360252 32.352014,8.26388889 C32.352014,7.74126575 32.4908101,7.31242841 32.7697179,6.97952463 C33.0486257,6.64662085 33.4235725,6.479811 33.8958739,6.479811 Z M48.5964195,6.479811 C49.0522759,6.479811 49.4173556,6.64375716 49.6949478,6.97236541 C49.9580684,7.29166667 50.0902865,7.7040378 50.0902865,8.20804696 C50.0902865,8.72709049 49.9541216,9.15234822 49.6817918,9.48596793 C49.396306,9.82889462 49.0174124,10 48.5457688,10 C48.0899124,10 47.7274639,9.83605384 47.4577653,9.50672967 C47.1880667,9.17812142 47.0532174,8.76360252 47.0532174,8.26388889 C47.0532174,7.74126575 47.1920135,7.31242841 47.4709213,6.97952463 C47.7498291,6.64662085 48.1247759,6.479811 48.5964195,6.479811 Z M52.1649921,6.479811 C52.9754034,6.479811 53.3819246,6.94516037 53.3819246,7.87585911 L53.3819246,9.11869989 C53.3819246,9.4558992 53.3970541,9.72436999 53.4266551,9.92339633 L52.807664,9.92339633 L52.7563555,9.53465063 L52.7372793,9.53465063 C52.5254672,9.8446449 52.2235364,10 51.8314868,10 C51.5387651,10 51.3019566,9.89762314 51.1236925,9.69430126 C50.9618733,9.50959336 50.8809637,9.27978236 50.8809637,9.00701604 C50.8809637,8.5946449 51.0388361,8.2803551 51.3565542,8.06271478 C51.6736144,7.84507446 52.1196038,7.73840206 52.6938644,7.74341352 L52.6938644,7.68041237 C52.6938644,7.23582474 52.4794211,7.01388889 52.0498768,7.01388889 C51.7439992,7.01388889 51.4743006,7.09765178 51.2414389,7.2637457 L51.1013272,6.77119129 C51.3894442,6.5771764 51.7453148,6.479811 52.1649921,6.479811 Z M61.747185,6.479811 C62.2017258,6.479811 62.5681211,6.64375716 62.8443977,6.97236541 C63.1075183,7.29166667 63.2397364,7.7040378 63.2397364,8.20804696 C63.2397364,8.72709049 63.1035715,9.15234822 62.8312417,9.48596793 C62.5457559,9.82889462 62.1681779,10 61.6952187,10 C61.2406779,10 60.8782294,9.83605384 60.6072152,9.50672967 C60.3375166,9.17812142 60.2026673,8.76360252 60.2026673,8.26388889 C60.2026673,7.74126575 60.3414634,7.31242841 60.6203712,6.97952463 C60.899279,6.64662085 61.2742258,6.479811 61.747185,6.479811 Z M57.3195238,5 L57.3195238,9.01417526 C57.3195238,9.34278351 57.3274174,9.64561856 57.3438625,9.92339633 L56.7321072,9.92339633 L56.6998749,9.3814433 L56.6807986,9.3814433 C56.4854316,9.79381443 56.1525841,10 55.6848873,10 C55.3112561,10 55.0001161,9.84034937 54.7534406,9.52104811 C54.506765,9.20174685 54.3837562,8.78722795 54.3837562,8.27820733 C54.3837562,7.73195876 54.5172899,7.2895189 54.7856728,6.95160367 C55.0455044,6.63659794 55.3638803,6.47909507 55.7427739,6.47909507 C56.1591621,6.47909507 56.4505682,6.63158648 56.6163341,6.93728522 L56.6294901,6.93728522 L56.6294901,5 L57.3195238,5 Z M70.8261599,5.70804696 L70.8261599,6.5478236 L71.5852627,6.5478236 L71.5852627,7.11053837 L70.8268177,7.11053837 L70.8268177,8.75 C70.8268177,9.16666667 70.9616669,9.375 71.2287343,9.375 C71.352401,9.375 71.455018,9.36354525 71.5359276,9.33991982 L71.5536882,9.90907789 C71.4175233,9.96491982 71.2386013,9.99284078 71.0182379,9.99284078 C70.7459081,9.99284078 70.534096,9.90263459 70.3808283,9.72222222 C70.2269028,9.54180985 70.1505978,9.23825888 70.1505978,8.81228522 L70.1505978,7.11053837 L69.6973727,7.11053837 L69.6973727,6.54853952 L70.1505978,6.54853952 L70.1505978,5.92998282 L70.8261599,5.70804696 Z M77.7100515,6.4733677 C78.1560408,6.4733677 78.4948085,6.65378007 78.7237234,7.01460481 C78.9085656,7.30097365 79,7.6553551 79,8.0763173 C79,8.21091065 78.9907908,8.32402635 78.9743457,8.4163803 L76.906876,8.4163803 C76.9160852,8.75 77.0147554,9.00415235 77.2061756,9.18026919 C77.3811508,9.33777205 77.6067766,9.41652348 77.8830532,9.41652348 C78.1889309,9.41652348 78.4678387,9.36354525 78.7191188,9.25687285 L78.8269982,9.77806415 C78.532961,9.91695304 78.1869575,9.98639748 77.7863564,9.98639748 C77.3061614,9.98639748 76.9279256,9.83247423 76.6542802,9.52462772 C76.3793192,9.21678121 76.2431544,8.80369416 76.2431544,8.28536655 C76.2431544,7.77634593 76.37011,7.35252005 76.6259948,7.01460481 C76.8930621,6.65378007 77.2541951,6.4733677 77.7100515,6.4733677 Z M29.1873315,5.20761741 C29.9405141,5.20761741 30.5081967,5.38588202 30.8910371,5.74241123 C31.3199236,6.14547537 31.5350247,6.72179267 31.5350247,7.47207904 C31.5350247,8.31471936 31.3028208,8.94902635 30.8390708,9.375 C30.4095265,9.76804124 29.7990868,9.96491982 29.0084095,9.96491982 C28.6163599,9.96491982 28.2808812,9.94630584 28,9.90907789 L28,5.30498282 C28.3663954,5.24054983 28.7610762,5.20761741 29.1873315,5.20761741 Z M36.7724394,6.54853952 L37.1230476,8.15292096 C37.2079039,8.53235968 37.2776309,8.89390034 37.333544,9.23611111 L37.3460422,9.23611111 C37.3973507,8.9540378 37.4822071,8.5946449 37.601927,8.16008018 L38.0419961,6.54925544 L38.6037585,6.54925544 L39.0254092,8.12571592 C39.1273684,8.51016609 39.2102514,8.88029782 39.2740581,9.23682703 L39.2931344,9.23682703 C39.3398383,8.88960481 39.410223,8.51947308 39.5036308,8.12571592 L39.8798932,6.54925544 L40.5567708,6.54925544 L40.5567708,6.54853952 L39.5865138,9.92339633 L38.9550244,9.92339633 L38.5531078,8.45790378 C38.4511486,8.09206758 38.3682656,7.72837915 38.3038011,7.36755441 L38.2913028,7.36755441 C38.2314429,7.73840206 38.1485599,8.10137457 38.0419961,8.45790378 L37.615083,9.92339633 L36.9763578,9.92339633 L36.0639873,6.54853952 L36.7724394,6.54853952 Z M43.0518115,6.47766323 C43.3412441,6.47766323 43.5819995,6.57932417 43.7734197,6.78336197 C44.0115438,7.03321879 44.1306058,7.4062142 44.1306058,7.9016323 L44.1306058,9.92339633 L43.44123,9.92339633 L43.44123,7.99040664 C43.44123,7.39475945 43.2333647,7.09693585 42.8163186,7.09693585 C42.6117424,7.09693585 42.4466342,7.17855097 42.318363,7.34249714 C42.1914073,7.5064433 42.1269428,7.69974227 42.1269428,7.9209622 L42.1269428,9.92268041 L41.4375669,9.92268041 L41.4375669,7.5128866 C41.4375669,7.21649485 41.4290155,6.89504582 41.4125705,6.54710767 L42.0184055,6.54710767 L42.0506378,7.07474227 L42.069714,7.07474227 C42.1499658,6.91079611 42.2696857,6.77548683 42.4269002,6.66738259 C42.6137158,6.5413803 42.8228966,6.47766323 43.0518115,6.47766323 Z M46.0316519,5 L46.0316519,9.92339633 L45.3429338,9.92339633 L45.3429338,5 L46.0316519,5 Z M65.8683107,6.47766323 C66.1570856,6.47766323 66.3978409,6.57932417 66.5892611,6.78336197 C66.828043,7.03321879 66.9464472,7.4062142 66.9464472,7.9016323 L66.9464472,9.92339633 L66.2577292,9.92339633 L66.2577292,7.99040664 C66.2577292,7.39475945 66.0498639,7.09693585 65.63216,7.09693585 C65.4275838,7.09693585 65.2624757,7.17855097 65.1348622,7.34249714 C65.0072487,7.5064433 64.943442,7.69974227 64.943442,7.9209622 L64.943442,9.92268041 L64.2534083,9.92268041 L64.2534083,7.5128866 C64.2534083,7.21649485 64.2455147,6.89504582 64.2290697,6.54710767 L64.8342469,6.54710767 L64.8664792,7.07474227 L64.8855555,7.07474227 C64.966465,6.91079611 65.0861849,6.77548683 65.2427416,6.66738259 C65.430215,6.5413803 65.6387381,6.47766323 65.8683107,6.47766323 Z M73.2310818,5 L73.2310818,7.03393471 L73.2442378,7.03393471 C73.4613122,6.66380298 73.7724523,6.47909507 74.1756846,6.47909507 C74.4611704,6.47909507 74.6973211,6.58075601 74.8847945,6.78479381 C75.118314,7.03894616 75.2354026,7.41695304 75.2354026,7.91666667 L75.2354026,9.92339633 L74.5453689,9.92339633 L74.5453689,8.00472509 C74.5453689,7.3997709 74.3375037,7.09693585 73.9211154,7.09693585 C73.6014239,7.09693585 73.3830339,7.27233677 73.263314,7.6231386 C73.2429222,7.69687858 73.2310818,7.78708477 73.2310818,7.89304124 L73.2310818,9.92268041 L72.5423637,9.92268041 L72.5423637,5 L73.2310818,5 Z M33.8708775,7.02749141 C33.5939431,7.02749141 33.3834466,7.16208477 33.2387303,7.43127148 C33.1150637,7.65392325 33.0538881,7.92525773 33.0538881,8.24599084 C33.0538881,8.55741695 33.1157215,8.8244559 33.2387303,9.04710767 C33.3880512,9.31629439 33.5959165,9.45088774 33.8642994,9.45088774 C34.12742,9.45088774 34.3339696,9.31414662 34.4826328,9.03994845 C34.6102462,8.81300115 34.674053,8.54381443 34.674053,8.23238832 C34.674053,7.9209622 34.6122196,7.65392325 34.4892108,7.43127148 C34.3444945,7.16208477 34.1386026,7.02749141 33.8708775,7.02749141 Z M48.5720808,7.02749141 C48.2944887,7.02749141 48.0839922,7.16208477 47.9399337,7.43127148 C47.816267,7.65392325 47.7550915,7.92525773 47.7550915,8.24599084 C47.7550915,8.55741695 47.8169248,8.8244559 47.9399337,9.04710767 C48.0892546,9.31629439 48.2971199,9.45088774 48.5655028,9.45088774 C48.8286234,9.45088774 49.0345152,9.31414662 49.1831783,9.03994845 C49.3114496,8.81300115 49.3745985,8.54381443 49.3745985,8.23238832 C49.3745985,7.9209622 49.3127652,7.65392325 49.1897564,7.43127148 C49.0456978,7.16208477 48.8391482,7.02749141 48.5720808,7.02749141 Z M52.7109672,8.24312715 C51.9505488,8.22880871 51.5703396,8.45575601 51.5703396,8.92325315 C51.5703396,9.09936999 51.6137545,9.23109966 51.7025577,9.31915808 C51.7913609,9.40721649 51.9045027,9.45088774 52.039352,9.45088774 C52.1906463,9.45088774 52.3320736,9.39862543 52.4610027,9.29481672 C52.5905896,9.1902921 52.6701835,9.05784651 52.6997846,8.89533219 C52.7070204,8.85882016 52.7109672,8.81443299 52.7109672,8.76360252 L52.7109672,8.24312715 Z M61.7215307,7.02749141 C61.4452542,7.02749141 61.2347577,7.16208477 61.0893836,7.43127148 C60.9657169,7.65392325 60.9045414,7.92525773 60.9045414,8.24599084 C60.9045414,8.55741695 60.9663747,8.8244559 61.0893836,9.04710767 C61.2387045,9.31629439 61.4465698,9.45088774 61.7149527,9.45088774 C61.9780733,9.45088774 62.1852807,9.31414662 62.3339438,9.03994845 C62.4608995,8.81300115 62.525364,8.54381443 62.525364,8.23238832 C62.525364,7.9209622 62.4635307,7.65392325 62.3405219,7.43127148 C62.1951477,7.16208477 61.9899137,7.02749141 61.7215307,7.02749141 Z M55.8999884,7.06257159 C55.642788,7.06257159 55.4415008,7.17353952 55.2934955,7.39619129 C55.1468058,7.61884307 55.0724742,7.90306415 55.0724742,8.25028637 C55.0724742,8.58390607 55.142859,8.85452463 55.2842863,9.06285796 C55.4336072,9.28479381 55.6348944,9.39576174 55.8868324,9.39576174 C56.113116,9.39576174 56.2940114,9.30340779 56.4314919,9.11798396 C56.5643678,8.94687858 56.6294901,8.74069301 56.6294901,8.50014318 L56.6294901,7.93742841 C56.6294901,7.840063 56.6229121,7.76131157 56.6104139,7.70117411 C56.5716036,7.52076174 56.4880628,7.36898625 56.3611072,7.24656357 C56.2328359,7.12414089 56.0782526,7.06257159 55.8999884,7.06257159 Z M29.2445602,5.79825315 C29.0274858,5.79825315 28.8426436,5.81400344 28.6893759,5.84693585 L28.6893759,9.34707904 C28.7742322,9.36139748 28.9294734,9.36784078 29.1550993,9.36784078 C29.682656,9.36784078 30.089835,9.20819015 30.3766364,8.88888889 C30.6634379,8.56958763 30.8081542,8.10423826 30.8081542,7.49284078 C30.8081542,6.94659221 30.6752783,6.52777778 30.4095265,6.23568156 C30.1437747,5.94430126 29.7556719,5.79825315 29.2445602,5.79825315 Z M77.6600586,6.99312715 C77.4350905,6.99312715 77.2515639,7.09478809 77.1114522,7.29882589 C76.9969948,7.46134021 76.9292412,7.6553551 76.906876,7.88230241 L78.3421986,7.88230241 C78.347461,7.65965063 78.3020727,7.46778351 78.2086649,7.30598511 C78.0889451,7.09765178 77.9067341,6.99312715 77.6600586,6.99312715 Z" id="download-on-the" fill="#FFFFFF"></path>
                <path d="M17.1533806,10.1008773 L17.401539,10.1148006 C17.9566531,10.1307933 19.5363336,10.331369 20.5555041,11.7993699 C20.473215,11.8480145 18.6736473,12.892874 18.6932078,15.0405667 C18.7154663,17.6147326 20.9723455,18.46568 21,18.4750091 C20.98651,18.5349819 20.6465617,19.7031188 19.8000633,20.8892475 L19.8000633,20.8892475 L19.5626373,21.2351053 C18.9232292,22.1479277 18.2218817,22.9563841 17.1762558,22.9729692 C16.0336517,22.9989574 15.6491863,22.3086038 14.3386316,22.3086038 C13.0159358,22.3086038 12.6065139,22.954311 11.5104504,22.9989574 C10.3901048,23.0396057 9.53416345,21.8841297 8.80165575,20.8492657 C7.33731484,18.736224 6.19740874,14.8946328 7.72582721,12.2804851 C8.46642893,10.9983998 9.81677923,10.1727743 11.2602106,10.1507842 C12.3819052,10.1281278 13.4226597,10.8991115 14.1119994,10.8991115 C14.787849,10.8991115 16.0747963,9.97686311 17.401539,10.1148006 Z M17.4157035,6 C17.5276707,7.00554397 17.1243193,7.99642793 16.5348057,8.72476429 C15.9196611,9.44177245 14.9355647,9.9901904 13.9770992,9.91955577 C13.8516421,8.95199457 14.3372826,7.92312784 14.8809301,7.29541251 C15.4954002,6.5830689 16.5624602,6.03731641 17.4157035,6 Z" fill="#FFFFFF"></path>
            </g>
        </g>
    </g>
</svg>