<?xml version="1.0" encoding="UTF-8"?>
<svg width="23px" height="15px" viewBox="0 0 23 15" version="1.1" xmlns="http://www.w3.org/2000/svg" xmlns:xlink="http://www.w3.org/1999/xlink">
    <title>1823A251-CBBF-4D56-9D87-DC2157F4AEE0</title>
    <g id="PC-(responsive-format)-V2" stroke="none" stroke-width="1" fill="none" fill-rule="evenodd">
        <g id="UI-KIT" transform="translate(-227.000000, -246.000000)" fill="#888787" fill-rule="nonzero">
            <g id="icons8-eye" transform="translate(227.000000, 246.000000)">
                <path d="M22.2333333,6.66666667 C21.809915,6.66666667 21.4666667,7.03976271 21.4666667,7.5 C21.4666667,7.96023729 21.809915,8.33333333 22.2333333,8.33333333 C22.6567516,8.33333333 23,7.96023729 23,7.5 C23,7.03976271 22.6567516,6.66666667 22.2333333,6.66666667 Z M0.766666667,6.66666667 C0.343248358,6.66666667 0,7.03976271 0,7.5 C0,7.96023729 0.343248358,8.33333333 0.766666667,8.33333333 C1.19008497,8.33333333 1.53333333,7.96023729 1.53333333,7.5 C1.53333333,7.03976271 1.19008497,6.66666667 0.766666667,6.66666667 Z M11.5,5 C10.2297451,5 9.2,6.11928813 9.2,7.5 C9.2,8.88071187 10.2297451,10 11.5,10 C12.7702549,10 13.8,8.88071187 13.8,7.5 C13.8,6.11928813 12.7702549,5 11.5,5 Z" id="Shape"></path>
                <path d="M22.9728728,7.056 C22.9728728,7.056 18.4751812,0 11.4996126,0 C4.524044,0 0.0263523882,7.056 0.0263523882,7.056 L1.20090079e-07,7.908 C-0.000774822959,7.908 3.74898082,15 11.4996126,15 C19.2502444,15 23.0000001,7.908 23.0000001,7.908 L22.9728728,7.056 Z M11.4996126,12.75 C8.50321835,12.75 6.07417035,10.3995 6.07417035,7.5 C6.07417035,4.6005 8.50321835,2.25 11.4996126,2.25 C14.4960068,2.25 16.9250548,4.6005 16.9250548,7.5 C16.9250548,10.3995 14.4960068,12.75 11.4996126,12.75 Z" id="Shape"></path>
            </g>
        </g>
    </g>
</svg>