<?xml version="1.0" encoding="UTF-8"?>
<svg width="23px" height="15px" viewBox="0 0 23 15" version="1.1" xmlns="http://www.w3.org/2000/svg" xmlns:xlink="http://www.w3.org/1999/xlink">
    <title>CFD29C9D-5DCE-4542-997B-E4D2F85D103F</title>
    <g id="PC-(responsive-format)-V2" stroke="none" stroke-width="1" fill="none" fill-rule="evenodd">
        <g id="UI-KIT" transform="translate(-210.000000, -245.000000)" fill="#888787" fill-rule="nonzero">
            <path d="M232.972873,252.056 C232.972873,252.056 228.475181,245 221.499613,245 C214.524044,245 210.026352,252.056 210.026352,252.056 L210,252.908 C209.999225,252.908 213.748981,260 221.499613,260 C229.250244,260 233,252.908 233,252.908 L232.972873,252.056 Z M221.499613,257.75 C218.503218,257.75 216.07417,255.3995 216.07417,252.5 C216.07417,249.6005 218.503218,247.25 221.499613,247.25 C224.496007,247.25 226.925055,249.6005 226.925055,252.5 C226.925055,255.3995 224.496007,257.75 221.499613,257.75 Z" id="Shape"></path>
        </g>
    </g>
</svg>