<?xml version="1.0" encoding="UTF-8"?>
<svg width="17px" height="17px" viewBox="0 0 17 17" version="1.1" xmlns="http://www.w3.org/2000/svg" xmlns:xlink="http://www.w3.org/1999/xlink">
    <title>4D006A03-681C-40E6-A728-71C31F78AFE7</title>
    <defs>
        <filter id="filter-1">
            <feColorMatrix in="SourceGraphic" type="matrix" values="0 0 0 0 0.227451 0 0 0 0 0.227451 0 0 0 0 0.227451 0 0 0 1.000000 0"></feColorMatrix>
        </filter>
    </defs>
    <g id="PC-(responsive-format)" stroke="none" stroke-width="1" fill="none" fill-rule="evenodd">
        <g id="01.homepage" transform="translate(-826.000000, -1026.000000)">
            <g id="icons8-instagram" transform="translate(0.000000, 977.000000)" filter="url(#filter-1)">
                <g transform="translate(827.000000, 50.000000)">
                    <path d="M4.28571429,15 L10.7142857,15 C13.0810714,15 15,13.0810714 15,10.7142857 L15,4.28571429 C15,1.91892857 13.0810714,0 10.7142857,0 L4.28571429,0 C1.91892857,0 0,1.91892857 0,4.28571429 L0,10.7142857 C0,13.0810714 1.91892857,15 4.28571429,15 Z" id="Path" stroke="#FFFFFF"></path>
                    <path d="M7.5,4 C5.56700338,4 4,5.56700338 4,7.5 C4,9.43299662 5.56700338,11 7.5,11 C9.43299662,11 11,9.43299662 11,7.5 C11,5.56700338 9.43299662,4 7.5,4 Z" id="Path" stroke="#FFFFFF"></path>
                    <path d="M12,2 C11.4477153,2 11,2.44771525 11,3 C11,3.55228475 11.4477153,4 12,4 C12.5522847,4 13,3.55228475 13,3 C13,2.44771525 12.5522847,2 12,2 Z" id="Path" fill="#FFFFFF" fill-rule="nonzero"></path>
                </g>
            </g>
        </g>
    </g>
</svg>