<?xml version="1.0" encoding="UTF-8"?>
<svg width="19px" height="26px" viewBox="0 0 19 26" version="1.1" xmlns="http://www.w3.org/2000/svg" xmlns:xlink="http://www.w3.org/1999/xlink">
    <title>7A5114B7-A1AC-4C17-8595-60AA6D2A7A36</title>
    <g id="PC-(responsive-format)-V2" stroke="none" stroke-width="1" fill="none" fill-rule="evenodd">
        <g id="07.8-paiement" transform="translate(-140.000000, -357.000000)" fill="#B5B5B5" fill-rule="nonzero">
            <g id="Group" transform="translate(140.000000, 357.000000)">
                <path d="M9.7506135,24.8748879 C8.45674847,24.0878924 7.19785276,23.2309417 5.99141104,22.3098655 C4.98312883,21.5403587 3.96319018,20.7533632 3.16472393,19.7623318 C1.96993865,18.2816143 1.2006135,16.3286996 1.2006135,14.4165919 C1.2006135,11.7466368 1.2006135,9.07668161 1.2006135,6.40089686 C1.2006135,5.44484305 1.2006135,4.48878924 1.2006135,3.53856502 C1.0607362,3.72511211 0.915030675,3.91165919 0.775153374,4.09820628 C3.35122699,3.24125561 5.93312883,2.39013453 8.50920245,1.53318386 C8.87638037,1.41076233 9.24355828,1.28834081 9.6107362,1.16591928 C9.50582822,1.16591928 9.40674847,1.16591928 9.30184049,1.16591928 C11.9070552,1.99955157 14.5064417,2.83901345 17.1116564,3.67264574 C17.4788344,3.78923767 17.8460123,3.9058296 18.2131902,4.02825112 C18.0733129,3.84170404 17.9276074,3.65515695 17.7877301,3.46860987 C17.7877301,5.82376682 17.7877301,8.17309417 17.7877301,10.5282511 C17.7877301,11.729148 17.7877301,12.9300448 17.7877301,14.1309417 C17.7877301,15.9206278 17.1874233,17.6986547 16.2257669,19.1910314 C15.9052147,19.6865471 15.543865,20.193722 15.1067485,20.5959641 C14.5180982,21.1439462 13.906135,21.6627803 13.2708589,22.1641256 C11.9828221,23.1784753 10.6015337,24.0820628 9.16196319,24.8748879 C8.50337423,25.2363229 9.09202454,26.244843 9.7506135,25.8834081 C11.0328221,25.1721973 12.2684049,24.3735426 13.4398773,23.4932735 C14.5355828,22.6654709 15.701227,21.8026906 16.5579755,20.7125561 C17.9509202,18.9461883 18.9242331,16.6726457 18.9533742,14.3932735 C18.9825153,11.7466368 18.9533742,9.0941704 18.9533742,6.44753363 C18.9533742,5.45650224 18.9533742,4.46547085 18.9533742,3.46860987 C18.9533742,3.20627803 18.7726994,2.98475336 18.5279141,2.90896861 C15.9110429,2.06950673 13.2941718,1.23004484 10.6831288,0.39058296 C10.3334356,0.279820628 9.98374233,0.139910314 9.62822086,0.0524663677 C9.31349693,-0.0233183857 8.94631902,0.169058296 8.65490798,0.268161435 C7.14539877,0.769506726 5.63006135,1.27085202 4.12055215,1.77219731 C2.90245399,2.17443946 1.69018405,2.57668161 0.47208589,2.97892377 C0.227300613,3.06053812 0.0466257669,3.27623318 0.0466257669,3.53856502 C0.0466257669,5.94618834 0.0466257669,8.34798206 0.0466257669,10.7556054 C0.0466257669,11.9390135 0.0466257669,13.1282511 0.0466257669,14.3116592 C0.0466257669,16.2762332 0.699386503,18.2524664 1.80674847,19.8672646 C2.16226994,20.3860987 2.56441718,20.8816143 3.00736196,21.3304933 C3.55521472,21.8901345 4.19631902,22.3681614 4.81411043,22.8520179 C6.20705521,23.9479821 7.66411043,24.9623318 9.17944785,25.8834081 C9.80306748,26.2681614 10.3917178,25.2654709 9.7506135,24.8748879 Z" id="Path"></path>
                <path d="M4.92484663,11.5192825 C5.65337423,12.393722 6.38773006,13.2623318 7.11625767,14.1367713 C7.26779141,14.3174888 7.6291411,14.3699552 7.82147239,14.2300448 C9.80306748,12.7668161 11.7846626,11.2977578 13.7662577,9.83452915 C14.0460123,9.62466368 14.3257669,9.4206278 14.6055215,9.21076233 C14.856135,9.02421525 14.9843558,8.70358744 14.8153374,8.41210762 C14.6696319,8.16143498 14.2733129,8.01569507 14.0168712,8.20224215 C12.0352761,9.66547085 10.053681,11.1345291 8.07208589,12.5977578 C7.79233129,12.8076233 7.51257669,13.0116592 7.23282209,13.2215247 C7.46595092,13.2506726 7.70490798,13.2798206 7.93803681,13.3147982 C7.2095092,12.4403587 6.47515337,11.5717489 5.74662577,10.6973094 C5.54263804,10.458296 5.12883436,10.4874439 4.92484663,10.6973094 C4.68588957,10.9304933 4.7208589,11.2744395 4.92484663,11.5192825 L4.92484663,11.5192825 Z" id="Path"></path>
            </g>
        </g>
    </g>
</svg>