<?xml version="1.0" encoding="UTF-8"?>
<svg width="163px" height="133px" viewBox="0 0 163 133" version="1.1" xmlns="http://www.w3.org/2000/svg" xmlns:xlink="http://www.w3.org/1999/xlink">
    <title>144B77C8-8E8F-4E2A-B7B7-C5A846B6E1B6</title>
    <g id="PC-(responsive-format)" stroke="none" stroke-width="1" fill="none" fill-rule="evenodd">
        <g id="07.4.3-Fiche-profil_Paramètres" transform="translate(-431.000000, -650.000000)">
            <g id="Group-51" transform="translate(431.000000, 650.000000)">
                <polygon id="Fill-1" fill="#F3F8FF" points="0 50 63 50 63 46 0 46"></polygon>
                <g id="Group-18" transform="translate(17.000000, 75.000000)">
                    <path d="M98.3558831,28.6349709 L115.661091,28.6349709 C116.126891,28.6349709 116.508383,28.2592241 116.508383,27.8004392 L116.508383,27.5803886 C116.508383,27.1210848 116.126891,26.745338 115.661091,26.745338 L98.3558831,26.745338 C97.8895562,26.745338 97.5085908,27.1210848 97.5085908,27.5803886 L97.5085908,27.8004392 C97.5085908,28.2592241 97.8895562,28.6349709 98.3558831,28.6349709" id="Fill-2" fill="#F3F8FF"></path>
                    <path d="M120.328154,5.25874304 C120.328154,7.5646038 122.226658,9.4339962 124.567777,9.4339962 C126.908896,9.4339962 128.806873,7.5646038 128.806873,5.25874304 C128.806873,2.95288228 126.908896,1.08297089 124.567777,1.08297089 C122.226658,1.08297089 120.328154,2.95288228 120.328154,5.25874304" id="Fill-4" fill="#F3F8FF"></path>
                    <path d="M113.661365,4.47367089 C113.661365,6.77901266 115.559869,8.64892405 117.900988,8.64892405 C120.242107,8.64892405 122.140084,6.77901266 122.140084,4.47367089 C122.140084,2.16729114 120.242107,0.297898734 117.900988,0.297898734 C115.559869,0.297898734 113.661365,2.16729114 113.661365,4.47367089" id="Fill-6" fill="#F3F8FF"></path>
                    <path d="M93.1535715,6.40061899 C93.1535715,8.70647975 95.0515485,10.5758722 97.3926677,10.5758722 C99.7337869,10.5758722 101.632291,8.70647975 101.632291,6.40061899 C101.632291,4.09475823 99.7337869,2.22484684 97.3926677,2.22484684 C95.0515485,2.22484684 93.1535715,4.09475823 93.1535715,6.40061899" id="Fill-8" fill="#F3F8FF"></path>
                    <path d="M104.095972,8.32756709 C104.095972,10.6334278 105.993949,12.5033392 108.335068,12.5033392 C110.676188,12.5033392 112.574692,10.6334278 112.574692,8.32756709 C112.574692,6.02170633 110.676188,4.15231392 108.335068,4.15231392 C105.993949,4.15231392 104.095972,6.02170633 104.095972,8.32756709" id="Fill-10" fill="#F3F8FF"></path>
                    <path d="M136.893298,6.01745063 C136.893298,6.01745063 136.206717,15.6285772 109.88164,15.6285772 C83.5565635,15.6285772 82.8705096,6.01745063 82.8705096,6.01745063 L136.893298,6.01745063 Z" id="Fill-12" fill="#E3EEFF"></path>
                    <path d="M2.04730692,23.374619 L16.8396185,23.374619 C17.8407723,23.374619 18.6601377,22.5675937 18.6601377,21.5815177 C18.6601377,20.5954418 17.8407723,19.7884165 16.8396185,19.7884165 L2.04730692,19.7884165 C1.04615308,19.7884165 0.226260769,20.5954418 0.226260769,21.5815177 C0.226260769,22.5675937 1.04615308,23.374619 2.04730692,23.374619" id="Fill-14" fill="#F3F8FF"></path>
                    <path d="M2.04757038,40.8473658 L16.839355,40.8473658 C17.8405088,40.8473658 18.6598742,40.0403405 18.6598742,39.0542646 C18.6598742,38.0681886 17.8405088,37.2611633 16.839355,37.2611633 L2.04757038,37.2611633 C1.04641654,37.2611633 0.227051154,38.0681886 0.227051154,39.0542646 C0.227051154,40.0403405 1.04641654,40.8473658 2.04757038,40.8473658" id="Fill-16" fill="#F3F8FF"></path>
                </g>
                <g id="Group-23" transform="translate(7.000000, 116.000000)">
                    <path d="M111.891023,2.32830937 L112.035502,0.164528125 L144.577049,3.40143437 C144.071635,4.75346562 144.409099,3.85565312 143.927678,5.49987187" id="Fill-19" fill="#606060"></path>
                    <polygon id="Fill-21" fill="#00A03F" points="112.499189 9.772025 0.988973022 16.9996813 0.234242806 14.33015 112.499189 7.0467125"></polygon>
                </g>
                <polygon id="Fill-24" fill="#606060" points="17 110 130 110 130 1 17 1"></polygon>
                <polygon id="Fill-25" fill="#FFFFFF" points="21 111 128 111 128 5 21 5"></polygon>
                <polygon id="Fill-26" fill="#0F264C" points="129 110.399499 129 112 72 112 84.3178965 99.3865283 101.281328 82"></polygon>
                <polygon id="Fill-27" fill="#0F264C" points="18 112 18 101.515805 52.2919073 67 97 112"></polygon>
                <g id="Group-50">
                    <path d="M109.426654,37.4332772 C109.426654,46.9206472 101.695125,54.6119858 92.1570131,54.6119858 C82.6194234,54.6119858 74.8878946,46.9206472 74.8878946,37.4332772 C74.8878946,27.9459071 82.6194234,20.2545685 92.1570131,20.2545685 C101.695125,20.2545685 109.426654,27.9459071 109.426654,37.4332772" id="Fill-28" fill="#0F264C"></path>
                    <polygon id="Fill-30" fill="#B3AEA9" points="162.862599 10.9092803 152.127587 120.256209 39.8634263 109.351139 50.5984391 0.00420944882"></polygon>
                    <polygon id="Fill-32" fill="#FFFFFF" points="159.6387 14.1258189 149.246927 119.976307 42.7515042 109.630937 53.1427542 3.7809685"></polygon>
                    <polygon id="Fill-34" fill="#B3AEA9" points="152.279197 118.713472 152.127691 120.256417 95.5515404 114.760748 108.971351 103.792795 127.453044 88.6730787"></polygon>
                    <polygon id="Fill-36" fill="#B3AEA9" points="39.8636353 109.351035 40.8954462 98.8409244 79.0766288 67.6187669 119.997465 117.135397"></polygon>
                    <polygon id="Fill-38" fill="#00D65B" points="112.79903 14.5287827 119.997152 124.162058 7.43886026 131.475066 0.240738462 21.8417906"></polygon>
                    <polygon id="Fill-40" fill="#FFFFFF" points="110.140929 18.2221843 117.109179 124.349665 10.3342522 131.28694 3.36600224 25.1594598"></polygon>
                    <path d="M94.6255228,51.0483496 C95.2472215,60.515452 88.0360388,68.6916567 78.5183016,69.3100819 C69.0010869,69.9285071 60.7816029,62.7547748 60.1599042,53.2876724 C59.5387279,43.8200504 66.7499106,35.6443654 76.2676478,35.0259402 C85.7848625,34.407515 94.0043465,41.5812472 94.6255228,51.0483496" id="Fill-42" fill="#00D65B"></path>
                    <polygon id="Fill-46" fill="#00D65B" points="119.286639 122.764365 119.387992 124.310948 62.6634692 127.996035 74.1215333 115.012743 89.9001423 97.1163496"></polygon>
                    <polygon id="Fill-48" fill="#00D65B" points="7.84144936 131.708145 7.14974423 121.170491 39.7471321 84.2125701 88.1852987 126.487909"></polygon>
                </g>
            </g>
        </g>
    </g>
</svg>