<?xml version="1.0" encoding="UTF-8"?>
<svg width="20px" height="20px" viewBox="0 0 20 20" version="1.1" xmlns="http://www.w3.org/2000/svg" xmlns:xlink="http://www.w3.org/1999/xlink">
    <title>BCF84DCD-62B7-4A46-B948-3EA9662A99BC</title>
    <g id="PC-(responsive-format)" stroke="none" stroke-width="1" fill="none" fill-rule="evenodd">
        <g id="02.Log-in" transform="translate(-431.000000, -223.000000)" fill-rule="nonzero">
            <g id="icons8-google" transform="translate(431.000000, 223.000000)">
                <path d="M19.8055,8.0415 L19,8.0415 L19,8 L10,8 L10,12 L15.6515,12 C14.827,14.3285 12.6115,16 10,16 C6.6865,16 4,13.3135 4,10 C4,6.6865 6.6865,4 10,4 C11.5295,4 12.921,4.577 13.9805,5.5195 L16.809,2.691 C15.023,1.0265 12.634,0 10,0 C4.4775,0 0,4.4775 0,10 C0,15.5225 4.4775,20 10,20 C15.5225,20 20,15.5225 20,10 C20,9.3295 19.931,8.675 19.8055,8.0415 Z" id="Path" fill="#FFC107"></path>
                <path d="M1,5.51437782 L4.35769034,8 C5.26622381,5.72946486 7.4665304,4.12637008 10.0413899,4.12637008 C11.6044967,4.12637008 13.0265713,4.72159897 14.109351,5.69387492 L17,2.77601547 C15.1747573,1.05892972 12.7332652,0 10.0413899,0 C6.11599387,0 2.71180378,2.23700838 1,5.51437782 Z" id="Path" fill="#FF3D00"></path>
                <path d="M10.1266739,20 C12.7747165,20 15.1808163,19.0081525 17,17.3952088 L13.8270648,14.7673398 C12.797783,15.5304152 11.5183571,15.9864543 10.1266739,15.9864543 C7.46017813,15.9864543 5.19606587,14.3223379 4.34311527,12 L1,14.5210084 C2.69667457,17.7704754 6.14230794,20 10.1266739,20 Z" id="Path" fill="#4CAF50"></path>
                <path d="M19.8055,8.04408272 L19,8.04408272 L19,8 L10,8 L10,12.2489367 L15.6515,12.2489367 C15.2555,13.4370457 14.536,14.4615706 13.608,15.2077901 C13.6085,15.207259 13.609,15.207259 13.6095,15.2067278 L16.7045,17.9887192 C16.4855,18.2001038 20,15.4356393 20,10.1244684 C20,9.41224035 19.931,8.71700808 19.8055,8.04408272 Z" id="Path" fill="#1976D2"></path>
            </g>
        </g>
    </g>
</svg>