<?xml version="1.0" encoding="UTF-8"?>
<svg width="10px" height="14px" viewBox="0 0 10 14" version="1.1" xmlns="http://www.w3.org/2000/svg" xmlns:xlink="http://www.w3.org/1999/xlink">
    <title>1CC1E38E-EB07-4989-9B26-3B7E69C43B8D</title>
    <defs>
        <filter id="filter-1">
            <feColorMatrix in="SourceGraphic" type="matrix" values="0 0 0 0 0.227451 0 0 0 0 0.815686 0 0 0 0 0.419608 0 0 0 1.000000 0"></feColorMatrix>
        </filter>
    </defs>
    <g id="PC-(responsive-format)-V2" stroke="none" stroke-width="1" fill="none" fill-rule="evenodd">
        <g id="icons8-marker" transform="translate(-333.000000, -568.000000)" filter="url(#filter-1)">
            <g transform="translate(333.000000, 568.000000)">
                <path d="M5,0 C2.23857143,0 0,2.25682175 0,5.04076332 C0,7.89671579 3.14571429,12.1122341 4.44714286,13.7331996 C4.73285714,14.0889335 5.26714286,14.0889335 5.55285714,13.7331996 C6.85428571,12.1122341 10,7.89671579 10,5.04076332 C10,2.25682175 7.76142857,0 5,0 Z M5,6.84103593 C4.01357143,6.84103593 3.21428571,6.03523391 3.21428571,5.04076332 C3.21428571,4.04629272 4.01357143,3.2404907 5,3.2404907 C5.98642857,3.2404907 6.78571429,4.04629272 6.78571429,5.04076332 C6.78571429,6.03523391 5.98642857,6.84103593 5,6.84103593 Z" id="Shape" fill="#FC3B1B" fill-rule="nonzero"></path>
            </g>
        </g>
    </g>
</svg>