<?xml version="1.0" encoding="UTF-8"?>
<svg width="18px" height="16px" viewBox="0 0 18 16" version="1.1" xmlns="http://www.w3.org/2000/svg" xmlns:xlink="http://www.w3.org/1999/xlink">
    <title>311197FF-F624-451B-B2DB-F0512182BF6E</title>
    <g id="PC-(responsive-format)-V2" stroke="none" stroke-width="1" fill="none" fill-rule="evenodd">
        <g id="UI-KIT" transform="translate(-289.000000, -114.000000)" stroke="#8C8E8E">
            <g id="icons8-user" transform="translate(290.000000, 115.000000)">
                <path d="M7.99999996,0 C6.92820322,0 5.93782215,0.57179675 5.40192375,1.5 C4.86602536,2.42820322 4.86602536,3.57179678 5.40192375,4.5 C5.93782215,5.42820325 6.92820322,6 7.99999996,6 C9.07179678,6 10.0621779,5.42820325 10.5980762,4.5 C11.1339746,3.57179678 11.1339746,2.42820322 10.5980762,1.5 C10.0621779,0.57179675 9.07179678,0 7.99999996,0 Z M16,14 L0,14 L0,12.5 C0,10.568 4.841,9 8,9 C11.159,9 16,10.568 16,12.5 L16,14 Z" id="Shape"></path>
            </g>
        </g>
    </g>
</svg>