<?xml version="1.0" encoding="UTF-8"?>
<svg width="18px" height="18px" viewBox="0 0 53 53" version="1.1" xmlns="http://www.w3.org/2000/svg" xmlns:xlink="http://www.w3.org/1999/xlink">
    <title>54B6F29B-400C-462A-92A3-C979E1856F54</title>
    <g id="PC-(responsive-format)-V2" stroke="none" stroke-width="1" fill="none" fill-rule="evenodd">
        <g id="UI-KIT" transform="translate(-75.000000, -219.000000)" fill="#FEFEFE" fill-rule="nonzero">
            <g id="icons8-user" transform="translate(75.000000, 219.000000)">
                <path d="M26.5,0 C19.9953129,0 14.7222222,5.27309072 14.7222222,11.7777778 C14.7222222,18.2824648 19.9953129,23.5555556 26.5,23.5555556 C33.0046871,23.5555556 38.2777778,18.2824648 38.2777778,11.7777778 C38.2777778,5.27309072 33.0046871,0 26.5,0 Z M26.5,32.3888889 C17.6548889,32.3888889 0,36.8291111 0,45.6388889 L0,50.0555556 C0,51.6808889 1.31911111,53 2.94444444,53 L50.0555556,53 C51.6808889,53 53,51.6808889 53,50.0555556 L53,45.6388889 C53,36.8291111 35.3451111,32.3888889 26.5,32.3888889 Z" id="Shape"></path>
            </g>
        </g>
    </g>
</svg>