<?xml version="1.0" encoding="UTF-8"?>
<svg width="78px" height="30px" viewBox="0 0 78 30" version="1.1" xmlns="http://www.w3.org/2000/svg" xmlns:xlink="http://www.w3.org/1999/xlink">
    <title>5D39D3DA-3960-4841-ABAE-9343EF7E2A5E</title>
    <g id="PC-(responsive-format)" stroke="none" stroke-width="1" fill="none" fill-rule="evenodd">
        <g id="01.homepage" transform="translate(-6.000000, -8.000000)">
            <g id="Group-24" transform="translate(6.000000, 8.000000)">
                <path d="M41.1770929,4.2109794 C41.2773667,5.40961338 41.37074,6.6091525 41.4822272,7.80688135 C41.5128485,8.13748438 41.5337658,8.52149077 41.9055336,8.64526891 C42.2378389,8.75592249 42.4049619,8.4214726 42.6305241,8.25311624 C43.5344979,7.57765419 44.3651532,6.82027682 45.1209805,5.96197614 C45.6372289,5.37589685 47.7643276,5.43088421 48.3073157,5.99388239 C48.7127238,6.41432074 48.3836532,6.6231822 48.0882228,6.87730075 C46.5916631,8.16463863 45.254679,9.63119457 43.9319272,11.1045391 C43.1349121,11.9927094 43.2832743,12.3169765 44.1408849,13.1064864 C45.8334637,14.6646879 47.3770335,16.3894356 48.707764,18.297927 C49.3038002,19.1523808 48.9555374,19.6022363 47.9590529,19.7393652 C46.5677268,19.931029 45.5548535,19.4533404 44.6782663,18.3296069 C43.9321429,17.3728721 43.0544775,16.5279223 42.2184311,15.6508399 C42.0299594,15.4530664 41.827471,15.1575376 41.4893434,15.3234048 C41.1658795,15.4822572 41.2070672,15.8257585 41.2128896,16.1156302 C41.2325131,17.0940884 41.2803857,18.0716415 41.3073411,19.0498735 C41.3273958,19.7757972 41.190894,20.1776801 40.3076219,19.9235616 C38.2812284,19.3406503 38.383443,19.3865862 38.3724452,17.1447764 C38.3469994,12.1092464 38.5975761,7.06240224 38.015341,2.0427123 C37.9387879,1.3837691 38.144511,1.12716141 38.7278242,1.08982431 C38.9781853,1.07375804 39.2272525,1.03212152 39.4778292,1.01741297 C41.0535297,0.924183364 41.2737008,1.15974651 41.2275533,2.85371932 C41.2154773,3.30470621 41.2258282,3.75637195 41.2258282,4.2078114 C41.209655,4.20894283 41.1932661,4.20984797 41.1770929,4.2109794" id="Fill-1" fill="#40CE6A"></path>
                <path d="M25.3049629,12.4727007 C25.19603,13.3379705 25.6712694,14.2411402 26.2127363,15.0818084 C27.6247523,17.2735741 30.9388677,17.204645 32.2673,14.9896075 C32.7564701,14.1737627 32.8950911,13.2535269 33.0837253,12.3519087 C33.3038746,11.2991342 33.0679677,10.2835947 32.6269839,9.33432455 C32.2663866,8.5581527 31.3750558,8.76538305 30.7166631,8.55083869 C27.9522359,7.65055027 25.2777867,9.49900064 25.3049629,12.4727007 M35.9751265,11.8033578 C36.0726408,13.7677242 35.350076,15.462137 34.4466415,17.0993676 C34.1525001,17.6324039 33.6231368,18.0003209 33.0725351,18.2013454 C30.9336152,18.9826149 28.670005,19.2647585 26.4806152,18.7117748 C24.0267721,18.0920785 22.8168642,16.2434065 22.2107684,13.880094 C21.2082211,9.97219507 23.8886079,6.15339412 27.9922008,6.00777878 C29.5725259,5.95148305 31.0879938,6.21035476 32.6192193,6.47410247 C34.3498123,6.77198225 36.2393514,9.78469039 35.9751265,11.8033578" id="Fill-3" fill="#40CE6A"></path>
                <path d="M56.2380091,10.8082124 C56.2386771,10.8250315 56.2395678,10.8416322 56.2404585,10.8584513 C57.0153564,10.8584513 57.7909224,10.8776731 58.564707,10.8494957 C58.9029455,10.8372636 59.3919328,11.0157209 59.5190784,10.5522124 C59.6264062,10.1607857 59.228269,9.90762526 58.9615081,9.67630783 C58.0180476,8.85894256 56.7880085,8.84124972 55.645034,8.62609612 C54.5664117,8.42317459 53.5499148,9.18025317 53.2457451,10.2322123 C53.0883161,10.7758847 53.2646722,10.9951885 53.8095502,10.9652636 C54.6194076,10.9204854 55.428597,10.8612909 56.2380091,10.8082124 M57.0398503,6.01978868 C60.2550088,5.69563848 63.1593174,9.41572077 62.9932042,12.6347245 C62.9502285,13.4686905 62.4015651,13.5036393 61.7480233,13.4627929 C59.1975403,13.3031205 56.6470572,13.1130863 54.0883353,13.1980556 C53.6349755,13.2131273 53.0310895,12.9815914 52.7872638,13.5270113 C52.5458876,14.0678441 52.8489439,14.5785336 53.1885185,15.0335234 C54.7505613,17.1282676 56.8209639,17.6564315 58.7423991,16.4448 C59.3560826,16.0575235 59.7991995,15.5389705 59.9913653,14.8375916 C60.3149075,13.6567587 61.172194,14.302438 61.8083674,14.3653458 C62.5638929,14.4400489 62.4572331,14.9955166 62.3289741,15.5282675 C61.9319503,17.1754485 59.8243615,18.679121 57.6016513,18.9397081 C54.7984357,19.2680085 52.5507863,18.2466295 50.9143711,16.0942197 C49.6950202,14.4902878 49.8831779,12.5923491 50.3984405,10.7640895 C50.6030759,10.0378096 50.982954,9.35608936 51.311395,8.66694254 C52.2820215,6.62877168 54.1898736,6.23516072 56.1916933,6.02350199 C56.4482113,5.99641667 56.710296,6.01978868 57.0398503,6.01978868" id="Fill-5" fill="#40CE6A"></path>
                <path d="M6.429367,18.8411588 C5.70109977,18.6748688 4.84415531,19.3398035 4.3121365,18.7528314 C3.7680216,18.1530157 4.37219977,17.2618546 4.36782016,16.4871866 C4.34884183,13.1532752 4.3778307,9.81936372 4.01265432,6.50054906 C4.00452076,6.42619174 3.98992204,6.35205976 3.98783651,6.27770245 C3.93361272,4.37302865 3.808898,4.26171801 2.04099385,4.5577953 C1.76737226,4.60353632 1.49354211,4.65153058 1.2222146,4.71146708 C0.524187563,4.86558951 0.175486874,4.59722721 0.160053949,3.7928163 C0.147749319,3.1585259 0.0363819939,2.52716473 0.00322205994,1.89242368 C-0.0266010253,1.32911072 0.144412471,0.916089652 0.77611964,1.01455676 C3.32651481,1.41270636 5.89567976,1.00216387 8.45066309,1.22410918 C8.95160751,1.26759694 9.59311667,1.02785094 9.80062695,1.72928825 C10.0314952,2.51004002 10.0905157,3.38069653 9.82335923,4.14747814 C9.65964509,4.61750648 9.07569657,4.38790011 8.67861157,4.38429491 C7.29903319,4.3716767 7.04897809,4.57559599 7.21519486,6.03953373 C7.50675202,8.60643824 7.63355227,11.1850597 7.74763078,13.7627798 C7.81144802,15.2062129 7.68318789,16.6458155 7.85107309,18.1052468 C7.99789444,19.380362 6.93260549,18.6406194 6.429367,18.8411588" id="Fill-7" fill="#40CE6A"></path>
                <path d="M75.1825314,11.4427621 C75.0122828,10.6593169 75.2457665,9.46086975 74.199954,8.91872572 C73.3897098,8.49879913 72.3853591,8.32039749 71.4514242,8.25749804 C69.9272943,8.15453096 67.9507896,9.37558615 67.4988781,10.6861779 C66.9012709,12.418487 67.0641073,14.1859392 68.4821504,15.438556 C70.8195357,17.5030459 73.3489428,17.333374 74.6208269,14.3448667 C74.9837922,13.4924784 75.1767406,12.5664462 75.1825314,11.4427621 M77.9977708,11.2856254 C78.0468765,13.8562207 77.2785575,15.5820384 76.301076,17.2516719 C76.0358588,17.704727 75.6318949,17.9840812 75.1628427,18.1416656 C73.1803157,18.8075939 71.1299208,19.2391603 69.046866,18.8563914 C65.5842188,18.2197862 63.8544008,15.3416327 64.0095934,11.954016 C64.2245467,7.2672234 67.8843116,5.58483095 72.2519399,6.08466894 C73.1622485,6.18875522 74.1086915,6.34119126 74.9386242,6.69217468 C77.2519199,7.67058572 77.779343,9.70821456 77.9977708,11.2856254" id="Fill-9" fill="#40CE6A"></path>
                <path d="M13.1826262,11.8187574 C13.0483713,9.85161268 13.1182818,7.8840296 13.0038423,5.91622731 C12.9684418,5.30398806 13.1721618,4.99929326 13.844104,5.19087833 C14.6825845,5.42981166 15.7230039,4.84541143 16.394946,5.82679172 C16.5176233,6.00610132 16.8262091,5.83292945 17.0020985,5.71609325 C17.8082955,5.18013729 18.7442944,5.14616054 19.656693,5.02406341 C20.5022981,4.91073449 21.0328608,5.18452139 20.9954565,6.12710242 C20.9825431,6.45459452 20.9858827,6.78340185 20.997015,7.11133237 C21.0250682,7.9423381 20.8727791,8.36277308 19.7891667,8.19157406 C18.4637619,7.98223339 17.5925526,9.01074273 17.1844446,10.027415 C16.2023582,12.4728647 15.615689,15.0191487 16.5781827,17.6471962 C16.6151417,17.7482496 16.683939,17.8867871 16.6447535,17.9589055 C16.0914811,18.9797427 14.9778115,18.7035445 14.109274,18.9589182 C13.4489094,19.1531337 13.190864,18.627042 13.1873017,18.0468067 C13.1750562,15.9707172 13.1826262,13.8948469 13.1826262,11.8187574" id="Fill-12" fill="#40CE6A"></path>
                <path d="M59,0.559947957 C58.9623257,0.986972307 58.7228585,1.2523219 58.4487781,1.48190489 C57.7247253,2.0877623 57.0206871,2.70715302 56.4819448,3.50706847 C56.1920882,3.93747615 55.8087523,4.20403407 55.3039169,3.80165969 C54.7795379,3.38381866 55.0312492,2.98603593 55.3314662,2.57012823 C55.8403045,1.86591264 56.3220645,1.14139707 56.8257226,0.433314817 C57.176329,-0.0596844321 58.4979901,-0.159009281 58.8594278,0.27574839 C58.9312444,0.361781593 58.9630321,0.482614742 59,0.559947957" id="Fill-14" fill="#40CE6A"></path>
                <path d="M28,21 C28,21 37.038487,29 51.4998896,29 C61.1409719,29 68.974342,26.3333333 75,21 L75,21" id="Stroke-22" stroke="#40CE6A" stroke-width="1.5"></path>
            </g>
        </g>
    </g>
</svg>