<?xml version="1.0" encoding="UTF-8"?>
<svg width="253px" height="117px" viewBox="0 0 253 117" version="1.1" xmlns="http://www.w3.org/2000/svg" xmlns:xlink="http://www.w3.org/1999/xlink">
    <title>37FA6C3B-6F44-4FEC-B74C-08104646785B</title>
    <defs>
        <polygon id="path-1" points="0.294870467 0.557949017 203.582483 0.557949017 203.582483 20 0.294870467 20"></polygon>
        <polygon id="path-3" points="0.587335741 0.00176470588 13.6806939 0.00176470588 13.6806939 9.48750806 0.587335741 9.48750806"></polygon>
    </defs>
    <g id="PC-(responsive-format)-V2" stroke="none" stroke-width="1" fill="none" fill-rule="evenodd">
        <g id="011.-Cas-d'erreur-technique" transform="translate(-386.000000, -362.000000)">
            <g id="Group-121" transform="translate(389.000000, 362.000000)">
                <g id="Group-3" transform="translate(30.000000, 97.000000)">
                    <mask id="mask-2" fill="white">
                        <use xlink:href="#path-1"></use>
                    </mask>
                    <g id="Clip-2"></g>
                    <path d="M203.249014,8.51606061 C201.771981,5.69424242 195.768812,3.4269697 193.081702,2.91363636 C178.741773,0.173030303 163.721441,0.555454545 149.195067,0.601515152 C133.374474,0.651212121 118.280895,3.1869697 102.591055,4.36090909 C94.4322659,4.96878788 85.8097852,3.87363636 77.6316249,3.58939394 C64.1652036,3.12212121 50.7018089,2.57363636 37.2414409,1.94454545 C25.6352332,1.40272727 13.5895478,2.61848485 3.35262196,9.02454545 C2.18915608,9.7530303 1.01418872,10.6324242 0.484515134,11.9390909 C-2.84122967,20.1475758 38.6052748,19.1160606 44.0049187,19.2566667 C71.2422481,19.9669697 98.498343,20.3336364 125.739304,19.5948485 C145.993417,19.0463636 167.102877,19.079697 187.189916,16.2178788 C191.63191,15.5851515 197.677453,15.3584848 201.514711,12.7409091 C203.638248,11.2930303 203.943945,9.84272727 203.249014,8.51606061" id="Fill-1" fill="#E2E2E2" mask="url(#mask-2)"></path>
                </g>
                <path d="M140.982631,110 C140.982631,110 136.996847,111.875668 137,112.814895 C137.001264,113.353087 142.479902,112.582351 142.809895,112.218914 C143.338641,111.635466 142.59663,110.080764 142.59663,110.080764 L140.982631,110 Z" id="Fill-4" fill="#606060"></path>
                <path d="M141,106.702449 L141.136686,109.494991 C141.136686,109.494991 141.207222,109.946514 141.505569,109.996843 C141.803915,110.046453 142,109.494991 142,109.494991 L141.894701,106" id="Fill-6" fill="#CED3D7"></path>
                <path d="M147.203129,54 C148.623274,59.6031912 148.095509,62.4489684 146.015967,66.6752682 C144.755265,80.8872077 143.874627,95.0428611 142.179476,108.899532 L140.386064,109 C136.311646,95.5088858 132.563528,75.3403026 133.041235,56.9044842" id="Fill-8" fill="#CED3D7"></path>
                <path d="M146.417965,55 C146.910678,56.3017756 147.03459,57.7657436 146.992307,59.1498259 C146.925946,61.276483 146.087925,63.2010049 145.544708,65.2175164 C144.820028,67.905795 144.764825,70.5843905 144.566918,73.340451 C144.256845,77.6530745 143.939136,81.965698 143.620253,86.2777162 C143.100527,93.3100885 142.575516,100.342461 142.046981,107.373623 C142.031125,107.58302 142.015269,107.791208 142,108" id="Fill-10" fill="#CED3D7"></path>
                <path d="M154.98281,110 C154.98281,110 150.996847,111.875609 151,112.814806 C151.001264,113.352982 156.480149,112.582966 156.810157,112.218844 C157.338295,111.635414 156.596882,110.080761 156.596882,110.080761 L154.98281,110 Z" id="Fill-12" fill="#606060"></path>
                <path d="M156,107.702449 L156.136686,110.494991 C156.136686,110.494991 156.207222,110.946514 156.505569,110.996843 C156.803915,111.046453 157,110.494991 157,110.494991 L156.894364,107" id="Fill-14" fill="#CED3D7"></path>
                <path d="M159.843801,53 C161.585229,58.5172354 161.26212,61.400334 159.526088,65.7668803 C159.237148,80.076109 158.265426,95.0180649 157.532887,109 L155.744101,109 C150.916659,95.7588779 145.745727,75.3154744 145,56.828546" id="Fill-16" fill="#CED3D7"></path>
                <path d="M159.311526,55 C159.311526,55 161.655776,59.8109746 157.692762,66.5680711 C157.23533,72.9448558 157,109 157,109" id="Fill-18" fill="#CED3D7"></path>
                <path d="M154,57 C154.371413,57.3162829 154.960129,57.5392711 155.592692,57.6788596 C156.225255,57.8177414 156.9036,57.8788776 157.578721,57.9251716 C158.381515,57.9799468 159.191402,58.0149323 160,57.993729" id="Fill-20" fill="#CED3D7"></path>
                <path d="M154,58 C154.659038,58.4231934 155.498593,58.6819559 156.3614,58.8230203 C157.224819,58.9640848 158.115163,58.9926439 159,59" id="Fill-22" fill="#CED3D7"></path>
                <path d="M139,26.0093997 C132.803653,36.6755772 126.133605,46.3356036 122.179317,58 L121,57.379469 C121.302231,46.5503793 124.85005,30.8040237 129.508721,21" id="Fill-24" fill="#FFB288"></path>
                <path d="M135.399905,16 C135.399905,16 133.596721,16.5058738 131.478126,17.9161711 C129.484767,19.2435098 127.974963,21.217694 126.950453,23.3839014 C125.924784,25.5489485 125.361217,27.906599 125,30.2752719 C125,30.2752719 127.438646,31.4952864 130.232711,31.844525 C133.026776,32.1943437 136,31.844525 136,31.844525" id="Fill-26" fill="#CED3D7"></path>
                <path d="M131.316797,21.3077323 C130.672414,32.8427411 131.163688,44.7084372 131.453027,55.929232 C131.453027,55.929232 135.426621,57 145.082116,57 C154.700841,57 161,54.0323557 161,54.0323557 C159.136172,42.4997875 157.653911,28.3510065 153.090186,18.8574734 C153.090186,18.8574734 147.939342,13.2351786 142.858423,13.0039415 C141.836693,12.956962 140.817375,13.3364592 139.843868,13.7946625 C139.126548,14.1314511 135.831696,14.9465771 135.831696,14.9465771 L131.316797,21.3077323 Z" id="Fill-28" fill="#CED3D7"></path>
                <path d="M140,59.1115886 C156.344928,57.3023854 163.200514,77.9771653 166.922101,85.9972756 C175.720021,104.956117 208.913175,102.841519 224.040174,102.841519 C243.850765,102.841519 252.546682,109.505336 243.299215,113" id="Stroke-30" stroke="#9E9E9E" stroke-width="5" stroke-linecap="round" stroke-linejoin="round"></path>
                <path d="M146,60.5 C146,68.9196113 139.551459,74 134.040584,74 L125,74 L125,47 L134.040584,47 C139.551459,47 146,52.0803887 146,60.5" id="Fill-32" fill="#606060"></path>
                <path d="M142,60.0003079 C142,68.2844737 137.066802,75 130.981596,75 L121,75 L121,45 L130.981596,45 C137.066802,45 142,51.7161421 142,60.0003079" id="Fill-34" fill="#AFABA7"></path>
                <path d="M133,60.0003079 C133,68.2844737 128.075042,75 122,75 C115.924958,75 111,68.2844737 111,60.0003079 C111,51.7161421 115.924958,45 122,45 C128.075042,45 133,51.7161421 133,60.0003079" id="Fill-36" fill="#00D65B"></path>
                <path d="M123,66 C123,67.1047251 122.104409,68 120.999672,68 C119.896247,68 119,67.1047251 119,66 C119,64.8952749 119.896247,64 120.999672,64 C122.104409,64 123,64.8952749 123,66" id="Fill-38" fill="#606060"></path>
                <path d="M123,55.0002763 C123,56.1048487 122.104409,57 120.999672,57 C119.896247,57 119,56.1048487 119,55.0002763 C119,53.8957038 119.896247,53 120.999672,53 C122.104409,53 123,53.8957038 123,55.0002763" id="Fill-40" fill="#606060"></path>
                <path d="M155.935263,29.6303821 C155.935263,29.6303821 156.630266,36.7755805 153.465848,42.7176975 C150.760869,47.7995833 145.38597,54.3764701 141.04312,58 L140,57.7434834 C141.511171,51.887079 146.282094,41.4872874 146.578547,37.5886077 C146.875615,33.6886859 146.803654,29.1720062 146.875615,27" id="Fill-42" fill="#FFB288"></path>
                <path d="M141.007025,57 C140.366332,57.0651749 139.744693,57.3873603 139.20463,57.8226795 C138.710415,58.2211072 138.103067,58.8876129 138.166184,59.1925823 C138.233468,59.5141528 139.04267,58.8968358 139.140918,59.0216519 C139.239761,59.1458531 137.75533,61.4601772 138.035187,61.633567 C138.315043,61.8075717 139.577375,59.7096775 139.577375,59.7096775 C139.577375,59.7096775 138.35077,61.9502187 138.82593,61.9994073 C139.222493,62.0406028 140.310361,59.9205737 140.310361,59.9205737 C140.310361,59.9205737 139.390407,61.8161797 139.704799,61.8868884 C140.020382,61.9582119 140.873051,60.070599 140.873051,60.070599 C140.873051,60.070599 140.178769,61.6839854 140.446121,61.7116539 C140.580095,61.7257957 141.266041,60.9227916 141.551852,59.9513166 C141.83409,58.9945981 142.162773,58.1651552 141.909115,57.418718" id="Fill-44" fill="#FFB288"></path>
                <path d="M131.044857,5.3178169 C131.012096,5.62686644 130.997681,5.93810781 131.000302,6.24880123 C131.006199,6.92224428 131.11038,7.62746902 131.573626,8.17816899 C131.892067,8.55571355 132.371039,8.83736508 132.905049,8.9595602 C133.282461,9.04558994 133.777158,9.00832865 133.939654,8.71078628 C133.997315,8.60557793 134.000591,8.48612261 133.999935,8.36995505 C133.995349,7.21869073 133.726705,6.06852233 133.213662,5" id="Fill-46" fill="#606060"></path>
                <path d="M138.807954,6.10813805 C138.34187,4.20239657 136.873506,1.5336364 134.483895,2.06979543 C132.983347,2.40617354 131.602338,3.47668636 131.160392,4.97504326 C130.63339,6.76464703 131.488547,8.84549769 132.512092,10.3065461 C132.890246,10.8451121 133.337364,11.3584047 133.921261,11.6743233 C135.303995,12.4229 137.171202,11.809717 138.110265,10.561688 C139.049328,9.3148625 139.177487,7.61672469 138.807954,6.10813805" id="Fill-48" fill="#FFB288"></path>
                <path d="M136.294844,12.389145 L137.11032,15.4962227 L136,16.0426528 C136,16.0426528 136.847302,17.2162569 138.52209,16.9646362 C141.928712,16.4520059 143,13.9921317 143,13.9921317 L141.077207,13.7824478 L138.947842,10" id="Fill-50" fill="#FFB288"></path>
                <path d="M141.9451,4.94550426 C141.70083,3.66212237 140.747129,2.57337101 139.583614,1.89570292 C137.517467,0.69312219 134.576991,0.596396717 132.737887,2.25370512 C131.690662,3.19677848 129.806026,6.54147456 132.05799,7.20498771 C132.761268,7.41200381 133.485465,7.00151034 134.097064,6.60989014 C134.719739,6.21119246 135.342413,5.81190499 135.964472,5.4132073 C136.188438,5.26988846 136.426556,5.12185131 136.694823,5.1112351 C137.135371,5.09472099 137.500239,5.46039046 137.657753,5.85495962 C137.815268,6.24893898 137.827573,6.68125466 137.929712,7.09233792 C138.002316,7.38251434 138.135219,7.68035802 138.397333,7.84078076 C138.659447,8.00238307 139.073538,7.95519991 139.20644,7.68507634 C139.298734,7.49752329 139.233513,7.2781216 139.229821,7.0711055 C139.225514,6.86349961 139.346727,6.60930035 139.563309,6.61873698 C139.640221,6.62227571 139.710979,6.66002224 139.771893,6.70543603 C140.31581,7.11121118 140.138606,7.92453086 140.319502,8.56150349 C140.342883,8.64525359 140.161987,9.93571295 140.22167,10 C141.958021,9.61486748 142.120458,5.86557583 141.9451,4.94550426" id="Fill-52" fill="#606060"></path>
                <path d="M139.00242,6.54774176 C138.97994,6.28014204 139.117723,6.03194331 139.263847,6.00384534 C139.40997,5.97507837 139.552105,6.11155422 139.66487,6.28482504 C139.856679,6.58052272 139.995551,7.01470326 139.999902,7.47631277 C140.003165,7.83824138 139.924846,8.18812801 139.81752,8.49118468 C139.744639,8.69723646 139.650366,8.89592925 139.523098,8.96951917 C139.360295,9.06451707 139.177913,8.92737222 139.06116,8.69790546" id="Fill-54" fill="#FFB288"></path>
                <path d="M77.0428101,110 C77.0428101,110 80.8933462,110.549121 80.9994981,111.271025 C81.0601564,111.68516 75.6028082,112.179208 75.2325401,111.935154 C74.6398583,111.544775 75.3671256,110.084231 75.3671256,110.084231 L77.0428101,110 Z" id="Fill-56" fill="#606060"></path>
                <path d="M76.6933006,107.352563 L77,109.5151 C77,109.5151 76.9219422,109.879452 76.388445,109.982751 C75.8555624,110.084927 75.4406884,109.699802 75.4406884,109.699802 L75,107" id="Fill-58" fill="#CED3D7"></path>
                <path d="M64.3668446,55 C63.7279942,60.6676524 63.6933825,63.390829 66.1778007,67.2749294 C67.3551861,72.7589633 69.1626223,78.3727862 70.5289057,83.9872072 C69.9405063,90.6919754 74.0634085,101.372354 76.2814924,109 L77.8847781,108.720684 C80.0395049,94.9923575 80.8355746,73.9384283 78.9014243,55.5089882" id="Fill-60" fill="#CED3D7"></path>
                <path d="M65,62 C65,62 71.1431463,82.0735826 71.1431463,83.1640531 C71.1431463,84.2533172 71.3113313,88.0006031 71.5832401,90.4300362 C72.0825209,94.8811821 76,108 76,108" id="Fill-62" fill="#CED3D7"></path>
                <polygon id="Fill-64" fill="#CED3D7" points="75.2369748 109 75 108.073021 76.9742297 108 77 108.85563"></polygon>
                <path d="M48.4000492,109.687562 C48.4000492,109.687562 51.2357742,112.081865 50.9841988,112.925154 C50.8402714,113.408325 46.2286499,111.410987 46.0442802,110.970224 C45.7504781,110.265977 47.0148975,109 47.0148975,109 L48.4000492,109.687562 Z" id="Fill-66" fill="#606060"></path>
                <path d="M49,107.227814 L48.3137479,109.753499 C48.3137479,109.753499 48.0952653,110.115343 47.6292071,109.962227 C47.1625784,109.809834 47,109.18076 47,109.18076 L47.8111808,106" id="Fill-68" fill="#CED3D7"></path>
                <path d="M51.5378132,53 C49.7238381,58.5374101 50.0610314,61.4310512 51.8693866,65.8135645 C51.9786623,71.0590508 52.0329878,76.3673098 52.0948066,81.6761783 C48.2657892,91.0299281 47.6588412,99.4244126 48.1434005,108.332049 L49.9898461,109 C49.9898461,109 60.9854704,90.2955478 63.0073814,82.9017707 C65.3271465,74.4201356 66.6434493,65.3522152 67,56.8425457" id="Fill-70" fill="#CED3D7"></path>
                <path d="M50.9703448,53 C50.9703448,53 49.3232937,58.7444201 51.4827036,64.281122 C51.4827036,65.8270603 52.2247759,78.6749538 51.9313387,80.6608381 C51.79053,81.6124204 50.3115244,86.1540356 49.3232937,90.5761668 C48.2307413,95.4670426 48,107 48,107" id="Fill-72" fill="#CED3D7"></path>
                <polygon id="Fill-74" fill="#CED3D7" points="48 108.144844 48.2200799 107 50 108.020278 49.6487186 109"></polygon>
                <path d="M81,10.5969866 L79.6045007,9.4307858 L79.6045007,7.01310858 C79.6045007,6.63858756 79.0850125,4.38800432 78.6172967,4.38800432 C78.1489925,4.38800432 78.0430946,3.8256466 77.8083542,4.0549687 C77.5747904,4.28371462 78.0001471,6.82584807 77.8083542,7.01310858 C77.6171496,7.20036908 77.3688778,5.80599852 77.1917929,5.97885437 C77.0152964,6.1528626 77,7.17616927 77,7.69877013 C77,8.22194719 77.4282983,9.18705905 77.8507133,9.60076073 C78.274305,10.0156148 80.1492867,12 80.1492867,12 L81,10.5969866 Z" id="Fill-76" fill="#E2866E"></path>
                <path d="M80.2629652,10 L79.0496726,11.3666402 C79.0496726,11.3666402 83.844688,17.6485813 85.3634462,19.7518502 C83.9781379,19.2714665 81.9898563,18.0677812 80.8396158,17.3220657 C78.5844343,15.8585007 76.3225191,15.0824962 74.7584614,15.0824962 C71.4362926,15.0824962 73.1748147,25.9162699 77.0283346,27.5028083 C84.3374733,28.5901839 92.5305647,27.9020175 93.7854838,25.3589521 C95.6452128,21.5916048 84.9306521,12.7145012 80.2629652,10" id="Fill-78" fill="#86E4AE"></path>
                <path d="M85,19 C85,19 85.72,22.0153624 87,23" id="Fill-80" fill="#86E4AE"></path>
                <path d="M58.5400042,17.4648585 C49.8691327,27.04777 50,43.5250306 50,54.7234774 C50,54.7234774 56.3663466,59 66.0874944,59 C75.8458039,59 79.8617096,56.6423376 79.8617096,56.6423376 C80.1541299,45.2958251 78.0980495,40.4018623 80,21.6328795 C80,21.6328795 76.8966894,14.6276309 75.242687,14.6276309 C73.5880754,14.6276309 67.1176668,14 67.1176668,14 L58.5400042,17.4648585 Z" id="Fill-82" fill="#86E4AE"></path>
                <path d="M79,27 C79,27 79.1957576,23.7810477 80,23" id="Fill-84" fill="#86E4AE"></path>
                <path d="M70.0718269,6.4245474 C70.3725648,4.48268609 71.6789841,1.71040377 74.0780655,2.02451954 C75.5840291,2.22129321 76.7511652,3.32250369 77.5936862,4.61146152 C78.3173902,5.71748603 78.0439404,6.77597195 77.0149505,9.57593497 C76.6874929,10.1476016 75.979707,11.1711858 75.4311019,11.5394594 C74.1303677,12.412605 72.2395277,11.9733243 71.2105378,10.8173542 C70.1815479,9.66138409 69.8336243,7.96082628 70.0718269,6.4245474" id="Fill-86" fill="#E2866E"></path>
                <g id="Group-90" transform="translate(67.000000, 0.000000)">
                    <mask id="mask-4" fill="white">
                        <use xlink:href="#path-3"></use>
                    </mask>
                    <g id="Clip-89"></g>
                    <path d="M3.07890435,6.26823529 C3.44838261,6.21470588 3.08133913,5.98235294 3.24446957,6.30705882 C3.34916522,6.51529412 3.3802087,6.57529412 3.5896,6.64352941 C3.79473043,6.71 3.7996,6.89176471 3.97064348,7.01529412 C4.23786087,7.20764706 4.46429565,6.94588235 4.57751304,6.72411765 C4.78690435,6.31294118 4.7802087,5.81764706 4.73090435,5.37294118 C4.69194783,5.02294118 4.57142609,4.46941176 4.92629565,4.22647059 C5.21603478,4.02764706 5.85638261,4.31647059 6.15525217,4.39941176 C6.61664348,4.52823529 7.07255652,4.67235294 7.53090435,4.80764706 C8.63751304,5.13235294 9.8062087,5.41941176 10.9700348,5.26764706 C11.9877739,5.13470588 13.0377739,4.62294118 13.5253391,3.71176471 C14.109687,2.62 12.9416,1.19294118 11.7522087,1.19117647 C11.4405565,1.19117647 11.1447304,1.31235294 10.8397739,1.37352941 C10.7271652,1.39588235 10.6084696,1.41 10.4982957,1.37823529 C10.2389913,1.30470588 10.1239478,1.02235294 9.97786087,0.802352941 C9.53655652,0.139411765 8.7836,-0.0635294118 8.00629565,0.0188235294 C7.12490435,0.111764706 6.37255652,0.520588235 5.53377391,0.741764706 C5.08942609,0.859411765 4.70473043,0.748235294 4.26038261,0.762352941 C3.80142609,0.776470588 3.33273043,1.06705882 3.13064348,1.47529412 C2.77090435,1.11117647 1.96864348,2.00352941 1.7689913,2.23823529 C0.890643478,3.27058824 0.613078261,4.75882353 0.588730435,6.06352941 C0.568034783,7.20529412 0.764643478,8.86588235 2.05994783,9.32529412 C2.60777391,9.51941176 2.95290435,9.62352941 2.97603478,9.13823529 C2.7362087,8.63411765 2.6802087,7.63647059 2.63029565,7.21705882 C2.58038261,6.79764706 2.70881739,6.29705882 3.11116522,6.13352941" id="Fill-88" fill="#606060" mask="url(#mask-4)"></path>
                </g>
                <path d="M74.316188,11.1335129 L74.0384644,14.1072088 L75,14.3841438 C75,14.3841438 74.4913399,15.7194094 72.8160006,15.9463253 C69.4077379,16.4074769 67,13.7454854 67,13.7454854 L68.1372872,13.5216195 L69.8588138,8" id="Fill-91" fill="#E2866E"></path>
                <path d="M69.9523098,6.49571525 C69.9632551,6.22767183 69.8022029,6.0054081 69.6438869,6.00010031 C69.485571,5.995456 69.340155,6.15269929 69.2275748,6.34311627 C68.6068201,7.39273184 69.3874543,9.95108684 70,8.62944702" id="Fill-93" fill="#E2866E"></path>
                <path d="M76.9273945,9.50673243 C76.7693818,9.84564672 76.1423077,9.98053234 75.79891,10.0151039 C74.1366659,10.182294 72.7568539,9.20352316 71.1649068,9.02386458 C70.8495035,8.98872631 70.4899312,8.96492296 70.2547784,9.15988369 C70.0320676,9.34407624 70.0115384,9.65125274 70.0059395,9.9249912 C69.9984743,10.2639055 69.9922534,10.6039533 70.0252245,10.9411673 C70.053841,11.2336084 70.1160507,11.52945 70.2815286,11.7810854 C71.0006731,12.8715053 73.3982363,13.0551311 74.6144366,12.9876882 C75.1058935,12.9604844 75.6160133,12.874339 76.0017137,12.6096685 C76.5491594,12.2333489 76.6673578,11.5759232 76.8714058,10.997842 C77.1233552,10.2848751 76.9273945,9.50673243 76.9273945,9.50673243" id="Fill-95" fill="#606060"></path>
                <path d="M75.888418,11.23908 C75.8323145,11.21123 75.7661924,11.1887545 75.6994025,11.1887545 C74.865864,11.1887545 74.4036777,11.0426638 73.7531436,11.0050418 C73.6422723,10.9991786 73.5280615,10.993804 73.4218655,11.0172567 C73.1907724,11.0690481 73.0578604,11.2449432 73.0104395,11.413998 C72.9630187,11.5854958 73.080569,11.7174171 73.2936289,11.7955927 C73.6796747,11.9358203 74.1164809,11.9856572 74.5432686,11.9949406 C74.9179602,12.0022696 75.4055268,12.0257222 75.7140963,11.8415209 C75.8910896,11.7359838 76.1509025,11.376376 75.888418,11.23908" id="Fill-97" fill="#E2866E"></path>
                <path d="M69,54.0679591 C49.9393078,53.0868975 38.8434546,62.7696018 30.9619785,80.4051804 C20.7346937,103.292395 6.43917454,105.119969 0,104.994471" id="Stroke-99" stroke="#9E9E9E" stroke-width="5" stroke-linecap="round" stroke-linejoin="round"></path>
                <path d="M61.0569521,55.3537527 C61.7617741,63.8410656 68.5779261,68.4265284 74.0404505,67.9687245 L83,67.2176786 L80.7414918,40 L71.7813267,40.7510458 C66.3188023,41.2088497 60.3521301,46.8664397 61.0569521,55.3537527" id="Fill-101" fill="#606060"></path>
                <path d="M65.071539,55.8197791 C65.7560764,64.1421238 71.1711461,70.4782569 77.1666644,69.9716146 L87,69.1396285 L84.5208483,39 L74.6875127,39.8313652 C68.6919944,40.3386284 64.3870017,47.4968135 65.071539,55.8197791" id="Fill-103" fill="#AFABA7"></path>
                <path d="M74.0720186,54.9120382 C74.7611428,63.1808516 80.2124976,69.4751427 86.2475738,68.9717968 C92.2832665,68.4684509 96.6171058,61.3562227 95.9279816,53.0880262 C95.2388574,44.8192128 89.7875026,38.5243049 83.75181,39.0282676 C77.7167338,39.5316135 73.3828944,46.6432248 74.0720186,54.9120382" id="Fill-105" fill="#00D65B"></path>
                <path d="M85.0098571,59.1399991 C85.1185621,60.2417547 86.0975616,61.0719431 87.1970533,60.9950635 C88.296545,60.9170778 89.0993901,59.961338 88.9900303,58.8595824 C88.8813253,57.7578267 87.9023258,56.9270853 86.8028341,57.005071 C85.7039972,57.0819506 84.9011522,58.0382435 85.0098571,59.1399991" id="Fill-107" fill="#606060"></path>
                <path d="M84.0098488,48.1399991 C84.1191938,49.2417547 85.0980606,50.0719431 86.1974034,49.9950635 C87.2967461,49.9170778 88.0988276,48.9607849 87.9901374,47.8595824 C87.8814471,46.7578267 86.9025803,45.9270853 85.8032376,46.005071 C84.7045496,46.0819506 83.9011586,47.0382435 84.0098488,48.1399991" id="Fill-109" fill="#606060"></path>
                <path d="M86.9412072,49.9980788 C88.0420827,49.9102887 100.612418,48.9113178 100.612418,48.9113178 C101.445904,48.844758 102.064996,48.140716 101.994535,47.3379818 C101.924676,46.5358214 101.191763,45.9385045 100.357675,46.0050643 C100.357675,46.0050643 87.7325367,47.0080517 86.6864641,47.0918253 C85.6409938,47.1744512 85.8403317,50.0852951 86.9412072,49.9980788" id="Fill-111" fill="#E2E2E2"></path>
                <path d="M87.9410812,59.9980787 C89.041928,59.9108607 101.611937,58.9112964 101.611937,58.9112964 C102.446003,58.8453091 103.064476,58.1412531 102.994619,57.3379293 C102.92416,56.5357531 102.191266,55.9389982 101.3572,56.0049856 C101.3572,56.0049856 88.7323901,57.0079927 87.686947,57.0917679 C86.6409016,57.1743955 86.8402344,60.0852968 87.9410812,59.9980787" id="Fill-113" fill="#E2E2E2"></path>
                <path d="M54.0647372,29.6303821 C54.0647372,29.6303821 53.3697336,36.7755805 56.5341524,42.7176975 C59.2397459,47.7995833 64.61403,54.3764701 68.9568796,58 L70,57.7434834 C68.4888286,51.887079 63.717906,41.4872874 63.4214531,37.5886077 C63.1243852,33.6886859 63.1963458,29.1720062 63.1243852,27" id="Fill-115" fill="#86E4AE"></path>
                <path d="M53.1068273,29.7239521 C52.9821479,30.8641818 52.9785341,32.0400629 53.0351517,33.1839807 C53.1592288,35.7053943 53.6031354,38.2335694 54.4776977,40.6000839 C55.3859897,43.0588003 56.8357635,45.3036083 58.3234832,47.4328567 C59.9093803,49.7022518 61.6428448,51.870225 63.5015909,53.9134183 C64.4917978,55.0014003 65.5199507,56.0561896 66.6023119,57.0488963 C66.8366127,57.264034 67.0727204,57.4754836 67.3130444,57.6838598 C67.4804881,57.8295387 67.6220323,58.0219333 67.8515146,57.9979608 C68.1815835,57.9635388 68.5249035,57.8319975 68.8477447,57.7514745 C68.9579684,57.7244286 69.0212116,57.5984194 68.993505,57.4896212 C67.974387,53.505886 66.3710227,49.678894 64.9664226,45.8273149 C64.2978522,43.9943418 63.6371119,42.1527633 63.1004487,40.2736893 C62.9028891,39.5815607 62.7203875,38.8802118 62.6053452,38.1677988 C62.4318783,37.0988718 62.4222412,35.9887614 62.3770676,34.9081556 C62.2674461,32.3135951 62.3096082,29.7135026 62.181315,27.1207862 C62.1740872,26.9609696 61.9349679,26.9585109 61.9367748,27.1207862 C61.9674929,29.4006309 61.9403887,31.679861 61.9988133,33.9597057 C62.0488055,35.9008623 62.0735005,37.8377161 62.5493298,39.7260103 C63.0076921,41.5466897 63.6395212,43.3224976 64.2713503,45.0866266 C65.0128009,47.1537924 65.7885834,49.2080499 66.5354549,51.2739863 C67.2889517,53.356519 68.0364255,55.4531894 68.5911582,57.6021075 C68.6393434,57.5154377 68.688131,57.4275386 68.7369186,57.3408689 C68.3966102,57.4250799 68.0556996,57.5105203 67.7153912,57.5959607 C67.7828506,57.6137864 67.8503099,57.6316121 67.9177693,57.6506671 C66.1204594,56.1324098 64.4767399,54.4279047 62.9239702,52.6551702 C61.2374863,50.7281512 59.6552031,48.7027837 58.2102478,46.5815261 C56.8375705,44.5666081 55.5317501,42.4564148 54.7011568,40.1427627 C53.9169418,37.9563492 53.4959232,35.640853 53.3248656,33.3222835 C53.2369275,32.1304208 53.1700704,30.9176589 53.2670433,29.7239521 C53.2748734,29.6182273 53.1182713,29.6213007 53.1068273,29.7239521" id="Fill-117" fill="#65B77E"></path>
                <path d="M67.9931947,56 C68.6338682,56.0651749 69.2554882,56.3867454 69.7955355,56.8226795 C70.2897353,57.2204924 70.8970652,57.8876129 70.8339505,58.1925823 C70.7666679,58.513538 69.9574901,57.8968358 69.8586502,58.021037 C69.7604056,58.1458531 71.2441959,60.4601772 70.9649433,60.633567 C70.6850952,60.8075717 69.4228016,58.7096775 69.4228016,58.7096775 C69.4228016,58.7096775 70.6487745,60.9502187 70.1742235,60.9994073 C69.7776728,61.0406028 68.6898378,58.9205737 68.6898378,58.9205737 C68.6898378,58.9205737 69.609764,60.8161797 69.2953814,60.8868884 C68.9798081,60.9582119 68.1265691,59.070599 68.1265691,59.070599 C68.1265691,59.070599 68.8208305,60.6839854 68.5540817,60.7116539 C68.4201119,60.7257957 67.7341863,59.9227916 67.448384,58.9513166 C67.1661542,57.9945981 66.8374816,57.1651552 67.0905357,56.418718" id="Fill-119" fill="#E2866E"></path>
            </g>
        </g>
    </g>
</svg>