<?xml version="1.0" encoding="UTF-8"?>
<svg width="116px" height="140px" viewBox="0 0 116 140" version="1.1" xmlns="http://www.w3.org/2000/svg" xmlns:xlink="http://www.w3.org/1999/xlink">
    <title>7F1157ED-4CD8-4E95-BC18-7B9994A22D1D</title>
    <defs>
        <polygon id="path-1" points="9.19732442e-05 0.201481188 66.4397241 0.201481188 66.4397241 8.25742574 9.19732442e-05 8.25742574"></polygon>
        <polygon id="path-3" points="9.19732442e-05 0.201481188 66.4397241 0.201481188 66.4397241 8.25742574 9.19732442e-05 8.25742574"></polygon>
        <path d="M0,-1.00311916e-14 L4.34115865,12 L15,12 C13.7234949,9.79098061 8.43761833,-1.00311916e-14 8.43761833,-1.00311916e-14 L0,-1.00311916e-14 Z" id="path-5"></path>
    </defs>
    <g id="PC-(responsive-format)" stroke="none" stroke-width="1" fill="none" fill-rule="evenodd">
        <g id="04.2-Home-asso" transform="translate(-454.000000, -362.000000)">
            <g id="Illus-no-result" transform="translate(454.000000, 362.000000)">
                <g id="Group-83">
                    <g id="Group-45">
                        <g id="Group-3" transform="translate(0.000000, 130.283828)">
                            <mask id="mask-2" fill="white">
                                <use xlink:href="#path-1"></use>
                            </mask>
                            <g id="Clip-2"></g>
                            <path d="M66.4397241,4.22972871 C66.4397241,6.45418746 51.5667308,8.25751749 33.219908,8.25751749 C14.8730853,8.25751749 9.19732442e-05,6.45418746 9.19732442e-05,4.22972871 C9.19732442e-05,2.00481122 14.8730853,0.201481188 33.219908,0.201481188 C51.5667308,0.201481188 66.4397241,2.00481122 66.4397241,4.22972871" id="Fill-1" fill="#AAFF00" mask="url(#mask-2)"></path>
                        </g>
                        <g id="Group-6" transform="translate(0.000000, 130.283828)">
                            <mask id="mask-4" fill="white">
                                <use xlink:href="#path-3"></use>
                            </mask>
                            <g id="Clip-5"></g>
                            <path d="M66.4397241,4.22972871 C66.4397241,6.45418746 51.5667308,8.25751749 33.219908,8.25751749 C14.8730853,8.25751749 9.19732442e-05,6.45418746 9.19732442e-05,4.22972871 C9.19732442e-05,2.00481122 14.8730853,0.201481188 33.219908,0.201481188 C51.5667308,0.201481188 66.4397241,2.00481122 66.4397241,4.22972871" id="Fill-4" fill="#FFFFFF" mask="url(#mask-4)"></path>
                        </g>
                        <path d="M39.8366472,1.82177162 C39.8366472,1.82177162 37.2673746,-0.192122772 34.3311288,0.814824422 C31.3948829,1.82177162 29.146597,6.71888383 28.3671237,10.700798 C27.5867308,14.6827122 24.5129849,17.703095 25.2469314,22.3712931 C25.9813378,27.0399498 31.3029097,27.7721083 37.7263211,28.4583921 C44.1492726,29.1451347 47.6359783,28.3671017 50.6641973,24.1562733 C53.6919565,19.9459036 52.4075502,14.8198772 50.6182107,10.2888442 C48.8288712,5.75781122 45.8466388,1.54698284 43.3693395,0.769408581 C40.8920401,-0.00862442244 39.8366472,1.82177162 39.8366472,1.82177162" id="Fill-7" fill="#606060"></path>
                        <path d="M21.6775418,89.6769739 L21.1050084,98.504162 C21.1050084,98.504162 18.6585201,110.343017 17.8776672,115.224073 C17.0972742,120.105129 15.6914632,127.53039 15.4311789,127.53039 C15.1713545,127.53039 10.9548411,130.075053 9.60145485,132.151796 C8.24806856,134.228538 9.9656689,135.111624 11.8396237,134.43635 C13.7135786,133.761535 16.2644565,131.892146 17.0972742,129.659429 C17.930092,127.426713 18.3462709,126.595924 18.3982358,126.232598 C18.4502007,125.868812 27.3513712,102.03467 28.2361538,99.4909244 C29.1213963,96.9462611 30.9948913,89.469162 30.9948913,89.469162 L35.3672993,74.6704789 C35.3672993,74.6704789 40.0519565,89.8843271 40.1039214,90.559601 C40.1563462,91.2348749 44.9449331,130.126891 45.1532525,131.580657 C45.361112,133.034882 45.3091472,134.073023 46.1943896,134.384512 C47.0791722,134.696 49.1614465,134.696 50.2545485,134.696 C51.3476505,134.696 55.1470652,135.267139 57.0210201,134.799677 C58.8949749,134.332674 59.1032943,134.021185 57.8018729,133.086261 C56.5004515,132.151796 49.2713545,131.553132 48.588913,128.828641 C48.5364883,128.620829 48.4845234,88.586535 48.4845234,88.586535 C48.4845234,88.586535 47.8600251,75.3452941 46.818888,71.6065152 L22.7706438,71.6065152 L21.6775418,89.6769739 Z" id="Fill-11" fill="#DD5737"></path>
                        <path d="M11.8398077,134.436488 C13.7137625,133.761214 16.2641806,131.892283 17.0969983,129.659567 C17.1577007,129.495336 17.2161037,129.342115 17.2726672,129.193022 C16.2108361,130.321537 14.4941555,131.892283 14.4941555,131.892283 C14.4941555,131.892283 14.3382609,131.009197 13.8176923,130.438059 C13.2971237,129.86692 12.6206605,130.074732 12.6206605,130.074732 L14.4403512,128.058085 C13.0441973,128.911811 10.5779348,130.653211 9.6016388,132.151933 C8.24825251,134.228676 9.96585284,135.111762 11.8398077,134.436488" id="Fill-15" fill="#606060"></path>
                        <path d="M57.8019649,133.086261 C56.911204,132.446311 53.2437709,131.964169 50.7991221,130.849416 C50.699791,130.938413 50.6156355,131.043007 50.5668896,131.165492 C50.3581104,131.684334 50.2022157,132.515122 50.2022157,132.515122 L45.1340301,131.43707 C45.1418478,131.498542 45.1487458,131.55038 45.1533445,131.580657 C45.361204,133.034423 45.3092391,134.073023 46.1940217,134.384512 C47.0792642,134.696 49.1610786,134.696 50.2541806,134.696 C51.3472826,134.696 55.1471572,135.267139 57.021112,134.799677 C58.8950669,134.332674 59.1033863,134.021185 57.8019649,133.086261" id="Fill-19" fill="#606060"></path>
                        <path d="M23.4119732,56.3767026 C20.2545318,62.0256993 20.796714,65.1639799 20.7507274,71.9832373 C20.7052007,78.8029535 20.5672408,90.1069106 20.5672408,90.1069106 C20.5672408,90.1069106 29.2844649,92.4414683 35.5699164,92.0749304 C41.8553679,91.7088512 49.7926589,90.2904089 49.7926589,90.2904089 C49.7926589,90.2904089 48.0948328,67.2237488 46.4889799,60.587531 C44.8831271,53.9508545 43.9201672,50.9763462 43.9201672,50.9763462 C43.9201672,50.9763462 39.8825418,51.66263 34.56051,51.1135112 C29.2384783,50.5643924 28.6880184,50.106564 28.6880184,50.106564 C28.6880184,50.106564 26.3022324,51.2048017 23.4119732,56.3767026 Z" id="Fill-23" fill="#CED5D9"></path>
                        <path d="M87.2675251,45.7038881 C86.9920652,45.5208485 82.4743395,44.8134624 82.4743395,44.8134624 L81.5895569,44.4496769 C81.5895569,44.4496769 87.061505,44.886403 87.1070318,44.6574888 C87.1530184,44.4285746 87.336505,44.1542446 86.9699916,44.1079112 C86.6025585,44.0624954 79.5597074,42.6321257 79.5597074,42.6321257 C79.5597074,42.6321257 81.3490468,40.9443997 81.5785201,40.5778617 C81.8079933,40.2117825 82.1289799,39.4796241 81.7620067,39.4796241 C81.3950334,39.4796241 81.3030602,39.7085383 80.798587,40.0287429 C80.2941137,40.3494063 78.3212876,41.1269805 77.7708278,41.5848089 C77.219908,42.0426373 75.5685284,43.2326241 75.5685284,43.2326241 L56.4482107,40.6072215 C56.4482107,40.6072215 49.733704,32.3511719 48.276388,30.5854591 C46.818612,28.820205 44.8407274,27.4701158 44.8407274,27.4701158 C43.4353763,26.8471389 43.4870947,27.8857396 43.4870947,27.8857396 L46.4024331,40.9187099 C46.4024331,40.9187099 54.0021823,45.4364393 54.4703261,45.4364393 C54.9389298,45.4364393 75.4765552,46.1158419 75.4765552,46.1158419 C75.4765552,46.1158419 76.8533946,46.7567099 77.7248411,47.3058287 C78.5967475,47.8549475 84.101806,49.5940531 84.101806,49.5940531 C84.101806,49.5940531 84.4687793,49.4110135 84.0562793,49.0908089 C83.6428595,48.7706043 80.9820736,47.4888683 80.9820736,47.4888683 L86.487592,48.6788551 C86.487592,48.6788551 86.8090385,48.4499409 86.6710786,48.2210267 C86.5335786,47.9921125 81.6245067,46.1158419 81.6245067,46.1158419 L87.1300251,46.3906307 C87.1300251,46.3906307 87.5429849,45.8869277 87.2675251,45.7038881" id="Fill-27" fill="#FFFFFF"></path>
                        <path d="M87.2675251,45.7038881 C86.9920652,45.5208485 82.4743395,44.8134624 82.4743395,44.8134624 L81.5895569,44.4496769 C81.5895569,44.4496769 87.061505,44.886403 87.1070318,44.6574888 C87.1530184,44.4285746 87.336505,44.1542446 86.9699916,44.1079112 C86.6025585,44.0624954 79.5597074,42.6321257 79.5597074,42.6321257 C79.5597074,42.6321257 81.3490468,40.9443997 81.5785201,40.5778617 C81.8079933,40.2117825 82.1289799,39.4796241 81.7620067,39.4796241 C81.3950334,39.4796241 81.3030602,39.7085383 80.798587,40.0287429 C80.2941137,40.3494063 78.3212876,41.1269805 77.7708278,41.5848089 C77.219908,42.0426373 75.5685284,43.2326241 75.5685284,43.2326241 L56.4482107,40.6072215 C56.4482107,40.6072215 49.733704,32.3511719 48.276388,30.5854591 C46.818612,28.820205 44.8407274,27.4701158 44.8407274,27.4701158 C43.4353763,26.8471389 43.4870947,27.8857396 43.4870947,27.8857396 L46.4024331,40.9187099 C46.4024331,40.9187099 54.0021823,45.4364393 54.4703261,45.4364393 C54.9389298,45.4364393 75.4765552,46.1158419 75.4765552,46.1158419 C75.4765552,46.1158419 76.8533946,46.7567099 77.7248411,47.3058287 C78.5967475,47.8549475 84.101806,49.5940531 84.101806,49.5940531 C84.101806,49.5940531 84.4687793,49.4110135 84.0562793,49.0908089 C83.6428595,48.7706043 80.9820736,47.4888683 80.9820736,47.4888683 L86.487592,48.6788551 C86.487592,48.6788551 86.8090385,48.4499409 86.6710786,48.2210267 C86.5335786,47.9921125 81.6245067,46.1158419 81.6245067,46.1158419 L87.1300251,46.3906307 C87.1300251,46.3906307 87.5429849,45.8869277 87.2675251,45.7038881 Z" id="Stroke-29" fill="#DD5737"></path>
                        <path d="M55.2958319,39.1902931 C53.3110493,36.7516 49.3552801,31.892105 48.2764339,30.5855967 C46.818658,28.8203426 44.8407734,27.4702535 44.8407734,27.4702535 C43.4354222,26.8468178 43.4873871,27.8854185 43.4873871,27.8854185 L46.4024791,40.9188475 C46.4024791,40.9188475 49.8317015,42.9570554 52.2253052,44.2952172 L55.2958319,39.1902931 Z" id="Fill-31" fill="#86E4AE"></path>
                        <path d="M34.9734699,26.3532531 C34.9734699,26.3532531 30.9818311,26.5362927 28.5505184,29.236471 C26.1187458,31.9366492 26.3942057,37.8865832 27.403612,41.4565436 C28.4125585,45.026504 29.6974247,46.9945238 29.4219649,48.2299264 C29.1469649,49.4657878 28.1375585,49.8777416 28.6880184,51.0218538 C29.2384783,52.165966 32.4041973,53.4018274 38.0012291,53.2187878 C43.5987207,53.0357482 44.6541137,51.8457614 44.6996405,50.7929396 C44.7456271,49.7401178 44.3331271,48.8707944 44.4701672,48.2299264 C44.6081271,47.5895172 48.6452926,44.0195568 48.6452926,40.0835172 C48.6452926,36.1474776 46.9019398,34.7744512 46.4894398,31.9366492 C46.0764799,29.0993059 46.2139799,28.6873521 44.5161538,27.4514908 C42.8187876,26.2160881 37.2217559,25.5752201 34.9734699,26.3532531" id="Fill-35" fill="#FFFFFF"></path>
                        <path d="M34.9734699,26.3532531 C34.9734699,26.3532531 30.9818311,26.5362927 28.5505184,29.236471 C26.1187458,31.9366492 26.3942057,37.8865832 27.403612,41.4565436 C28.4125585,45.026504 29.6974247,46.9945238 29.4219649,48.2299264 C29.1469649,49.4657878 28.1375585,49.8777416 28.6880184,51.0218538 C29.2384783,52.165966 32.4041973,53.4018274 38.0012291,53.2187878 C43.5987207,53.0357482 44.6541137,51.8457614 44.6996405,50.7929396 C44.7456271,49.7401178 44.3331271,48.8707944 44.4701672,48.2299264 C44.6081271,47.5895172 48.6452926,44.0195568 48.6452926,40.0835172 C48.6452926,36.1474776 46.9019398,34.7744512 46.4894398,31.9366492 C46.0764799,29.0993059 46.2139799,28.6873521 44.5161538,27.4514908 C42.8187876,26.2160881 37.2217559,25.5752201 34.9734699,26.3532531 Z" id="Stroke-37" fill="#86E4AE"></path>
                        <path d="M35.9827843,18.5726937 C35.9827843,18.5726937 36.671204,21.1815815 36.5792308,23.4239314 C36.4877174,25.6667399 36.2582441,26.581938 36.2582441,26.581938 L40.9378428,33.9961888 L42.2682358,27.1310568 L43.1396823,22.3715683 C43.1396823,22.3715683 37.8181104,22.0513637 35.9827843,18.5726937" id="Fill-39" fill="#FFFFFF"></path>
                        <path d="M35.9827843,18.5726937 C35.9827843,18.5726937 36.671204,21.1815815 36.5792308,23.4239314 C36.4877174,25.6667399 36.2582441,26.581938 36.2582441,26.581938 L40.9378428,33.9961888 L42.2682358,27.1310568 L43.1396823,22.3715683 C43.1396823,22.3715683 37.8181104,22.0513637 35.9827843,18.5726937 Z" id="Stroke-41" fill="#DD5737"></path>
                        <polygon id="Fill-43" fill="#019F44" points="70.7370819 61.6627855 109.463796 61.6627855 109.463796 29.6345178 70.7370819 29.6345178"></polygon>
                    </g>
                    <g id="Group-54" transform="translate(62.051282, 29.634518)">
                        <polygon id="Fill-51" fill="#AAFF00" points="0 31.751269 38.7820513 31.751269 38.7820513 0 0 0"></polygon>
                        <polygon id="Stroke-52" fill="#1FD461" points="0 31.751269 38.7820513 31.751269 38.7820513 0 0 0"></polygon>
                    </g>
                    <g id="Group-82" transform="translate(27.500000, 5.644670)">
                        <path d="M28.18247,66.1761948 C29.4270582,64.203951 34.5807701,55.4624249 34.5807701,55.4624249 L42.8074196,55.4624249 L38.5748045,66.1761948 L28.18247,66.1761948 Z" id="Fill-60" fill="#019F44"></path>
                        <polygon id="Fill-64" fill="#1FD461" points="34.5809085 54.8869929 31.0031212 66.176333 71.5886025 66.176333 73.4695597 54.8869929"></polygon>
                        <g id="Group-71" transform="translate(0.000000, 25.793006)">
                            <path d="M0.27000688,5.65976856 C0.27000688,5.65976856 2.24971892,8.00324741 5.01208635,9.65768452 C7.77445379,11.311661 17.9494353,17.0556714 18.7316292,17.3771628 C19.5147461,17.6991148 43.7775247,13.7472578 43.7775247,13.7472578 C43.7775247,13.7472578 45.1582469,14.3907012 46.0331966,14.9420267 C46.9081462,15.4933522 52.4328811,17.2394466 52.4328811,17.2394466 C52.4328811,17.2394466 47.6903401,9.79540075 47.6903401,9.79540075 C47.6903401,9.79540075 49.6700522,8.55457292 49.9003264,8.18702258 C50.1306006,7.81947224 50.453169,7.08437157 50.0849149,7.08437157 C49.7161993,7.08437157 49.6243665,7.31374509 49.117671,7.63569707 C48.6114369,7.95718847 46.6317249,8.73834809 46.0793437,9.19801631 C45.5269625,9.65768452 43.8693575,10.8519928 43.8693575,10.8519928 L21.6785852,10.8980518 L7.91289519,0.0539350183" id="Fill-68" fill="#DD5737"></path>
                            <path d="M0.27000688,5.65976856 C0.27000688,5.65976856 2.24971892,8.00324741 5.01208635,9.65768452 C7.77445379,11.311661 17.9494353,17.0556714 18.7316292,17.3771628 C19.5147461,17.6991148 43.7775247,13.7472578 43.7775247,13.7472578 C43.7775247,13.7472578 45.1582469,14.3907012 46.0331966,14.9420267 C46.9081462,15.4933522 52.4328811,17.2394466 52.4328811,17.2394466 C52.4328811,17.2394466 52.8006737,17.0556714 52.386734,16.7337194 C51.9723327,16.412228 49.3017981,15.1258018 49.3017981,15.1258018 L54.8265329,16.3205707 C54.8265329,16.3205707 55.1486399,16.0907366 55.0111215,15.8609025 C54.8726801,15.6310684 49.9464735,13.7472578 49.9464735,13.7472578 C49.7621926,12.491077 49.6700522,11.8629866 49.6700522,11.8629866 C49.6700522,11.8629866 55.7014826,11.35772 55.7471682,11.1278859 C55.7937768,10.8980518 55.9774424,10.6221587 55.6091883,10.5765604 C55.2413957,10.5305014 47.6903401,9.79540075 47.6903401,9.79540075 C47.6903401,9.79540075 49.6700522,8.55457292 49.9003264,8.18702258 C50.1306006,7.81947224 50.453169,7.08437157 50.0849149,7.08437157 C49.7161993,7.08437157 49.6243665,7.31374509 49.117671,7.63569707 C48.6114369,7.95718847 46.6317249,8.73834809 46.0793437,9.19801631 C45.5269625,9.65768452 43.8693575,10.8519928 43.8693575,10.8519928 L21.6785852,10.8980518 L7.91289519,0.0539350183" id="Stroke-70"></path>
                        </g>
                        <path d="M47.6905247,35.5883148 C47.6905247,35.5883148 49.6702368,34.347487 49.900511,33.9799367 C50.1307852,33.6123863 50.4528922,32.8772857 50.084638,32.8772857 C49.7159224,32.8772857 49.6240896,33.1071198 49.1178556,33.4286112 C48.6116215,33.7501026 46.6319095,34.5312622 46.0795283,34.9909304 C45.5266856,35.4505986 43.8695421,36.6453675 43.8695421,36.6453675 L21.6783083,36.6909659 L19.2066678,34.7440545 C18.2652663,36.3598021 16.5568994,39.3914015 15.4341396,41.3898989 C17.1618883,42.3506884 18.4706211,43.0632202 18.7318138,43.1705375 C19.5144692,43.4920289 43.7772478,39.5401719 43.7772478,39.5401719 C43.7772478,39.5401719 45.1584315,40.1836152 46.0333812,40.7349408 C46.9083308,41.2862663 52.4326042,43.0323607 52.4326042,43.0323607 C52.4326042,43.0323607 55.6932068,36.6909659 55.2970886,36.6453675 C54.9288345,36.5993086 47.6905247,35.5883148 47.6905247,35.5883148 Z" id="Fill-72" fill="#DD5737"></path>
                        <path d="M12.7874169,0.286486605 C12.7874169,0.286486605 12.6969686,3.71142936 10.0781187,6.23499866 C7.45973033,8.75856796 5.11176416,9.9298468 5.11176416,9.9298468 C5.11176416,9.9298468 5.38264784,11.3719522 5.92441519,11.8224086 C6.46618254,12.2733256 7.54971724,12.1830501 7.54971724,12.1830501 C7.54971724,12.1830501 8.36282974,14.7066194 10.5298991,16.6894568 C12.6969686,18.6722941 15.22537,18.4922037 16.6702368,15.5177174 C18.1151035,12.5436916 18.8373062,9.56966589 18.6568709,7.85719451 L18.4764356,6.14472314 C18.4764356,6.14472314 13.7805033,3.53087831 12.7874169,0.286486605" id="Fill-76" fill="#DD5737"></path>
                        <path d="M18.3543764,8.95178522 C18.3543764,8.81406899 19.2750117,8.35440077 19.5052859,9.22767826 C19.7355601,10.1004952 19.2750117,11.5711571 18.7687777,12.0764237 C18.2620822,12.5816902 17.8019952,12.7198671 17.8019952,12.0764237 C17.8019952,11.4329803 18.3543764,8.95178522 18.3543764,8.95178522" id="Fill-80" fill="#DD5737"></path>
                    </g>
                </g>
                <g id="Group-57" transform="translate(101.000000, 61.000000)">
                    <mask id="mask-6" fill="white">
                        <use xlink:href="#path-5"></use>
                    </mask>
                    <g id="Clip-56"></g>
                    <path d="M19.2857143,10.5882353 C17.4313948,8.07418962 10.2983985,-2.82352941 10.2983985,-2.82352941 L-2.14285714,-2.82352941 L3.80211183,10.5882353 L19.2857143,10.5882353 Z" id="Fill-55" fill="#019F44" mask="url(#mask-6)"></path>
                </g>
            </g>
        </g>
    </g>
</svg>