<?xml version="1.0" encoding="UTF-8"?>
<svg width="295px" height="180px" viewBox="0 0 295 180" version="1.1" xmlns="http://www.w3.org/2000/svg" xmlns:xlink="http://www.w3.org/1999/xlink">
    <title>0131EF29-B513-4E1C-909C-2278019157E6</title>
    <defs>
        <polygon id="path-1" points="7.39894352e-05 0.0645358827 294.906021 0.0645358827 294.906021 32.5217369 7.39894352e-05 32.5217369"></polygon>
        <polygon id="path-3" points="0.157821814 0.0309878091 5.33465767 0.0309878091 5.33465767 7.34530731 0.157821814 7.34530731"></polygon>
    </defs>
    <g id="PC-(responsive-format)-V2" stroke="none" stroke-width="1" fill="none" fill-rule="evenodd">
        <g id="07.5-Fiche-profil_apropos" transform="translate(-105.000000, -207.000000)">
            <g id="Group-103" transform="translate(105.000000, 207.000000)">
                <g id="Group-7" transform="translate(0.000000, 0.000000)">
                    <g id="Group-3" transform="translate(0.000000, 146.041556)">
                        <mask id="mask-2" fill="white">
                            <use xlink:href="#path-1"></use>
                        </mask>
                        <g id="Clip-2"></g>
                        <path d="M135.300221,0.067835689 C126.663666,0.0923804882 118.027111,0.301011282 109.406484,1.26132655 C106.157024,1.62336234 102.974465,2.42106832 99.7154476,2.74015071 C93.2069703,3.38138359 86.8163656,4.57794255 80.285588,5.13020054 C75.0259228,5.57507502 69.7439573,5.83586352 64.5002208,6.4003939 C59.5846161,6.92810708 54.1401776,6.80845119 49.2628018,5.93404271 C45.6501668,5.28667363 42.0216031,4.92156974 38.472683,3.88424516 C34.5000589,2.7214353 30.1865599,1.88998022 26.0450913,1.92096803 C20.1419055,1.96392143 14.3948213,1.97005763 8.74649514,4.02261647 C6.76496166,4.74361995 4.33742387,5.92790651 2.83056641,7.44047977 C-0.616409827,10.9012965 -1.08152862,19.5379977 2.35907613,23.1276746 C8.15394654,29.1687633 20.5273807,31.5404045 28.6510308,31.6539242 C37.5551884,31.7766482 46.2013008,31.1136318 55.1182014,30.72429 C63.4043245,30.3622542 71.6681474,29.8468134 79.9670135,29.865222 C96.9151776,29.9020392 113.866528,29.865222 130.78602,28.730025 C146.679702,27.6653944 162.6148,28.0304982 178.546711,28.0304982 C194.882894,28.0304982 211.108212,28.1593584 227.323336,30.3343345 C234.389638,31.2826842 241.589422,31.6137321 248.690448,32.2764417 C255.049195,32.8719599 261.16264,32.2641693 267.495901,31.7149794 C272.816096,31.2547644 278.101247,29.8863919 282.930836,27.5730446 C286.756916,25.7416957 293.574092,20.0534385 294.749951,15.6841574 C298.03764,3.43354129 248.400545,3.72807888 240.780242,3.75569178 C232.255188,3.78637278 223.659729,4.06863797 215.141366,3.74311257 C211.557402,3.60535488 208.027597,2.9058281 204.529648,2.13573503 C201.047629,1.36871005 197.536619,1.56506844 194.003947,1.24291795 C179.272742,-0.0978417061 164.507132,0.098516688 149.728461,0.098516688 C144.924357,0.0954485881 140.110696,0.0524951894 135.300221,0.067835689" id="Fill-1" fill="#E2E2E2" mask="url(#mask-2)"></path>
                    </g>
                    <g id="Group-6" transform="translate(254.541037, 0.000000)">
                        <mask id="mask-4" fill="white">
                            <use xlink:href="#path-3"></use>
                        </mask>
                        <g id="Clip-5"></g>
                        <polygon id="Fill-4" fill="#DD5737" mask="url(#mask-4)" points="4.1492419 7.34530731 5.33465767 5.00127898 4.50954968 0.0309571281 1.87780562 0.721279607 1.45410151 4.51958729 0.157821814 5.21604597 0.540111231 7.10292742"></polygon>
                    </g>
                </g>
                <polygon id="Fill-8" fill="#C1755D" points="204 68.8635851 204.142511 71.7688839 207.174651 76 209 73.8218715 207.544269 69.9763247 208.275318 68.5659526 207.065191 67"></polygon>
                <polygon id="Fill-9" fill="#BCBEC0" points="220 29 214.867989 30.6176471 196.112993 50.9661064 195 57.6708683 203.963258 73 206.383359 67.3798319 202.589858 56.0501401 208.616323 51.6593838 216.653726 32.9316527"></polygon>
                <polygon id="Fill-10" fill="#CED5D9" points="239.999672 93.323065 241 117.524779 238.070914 158.675657 233.688538 159 228.364604 121.625778 221 90"></polygon>
                <polygon id="Fill-11" fill="#606060" points="234.162371 161.855817 238.883162 164 241 161.323329 238.558419 159 234 159.355817"></polygon>
                <polygon id="Fill-12" fill="#CED5D9" points="208.978486 84.8855872 208 103.228604 210.906773 157.77244 215.381673 158 222.087649 122.228813 228 83"></polygon>
                <polygon id="Fill-13" fill="#606060" points="214.885048 159.750309 210.181072 162 208 159.376391 210.410977 157 215 157.250309"></polygon>
                <g id="Group-102" transform="translate(64.000000, 3.000000)">
                    <path d="M169.080867,9.3659499 C165.567329,8.56749133 161.952268,7.8491869 158.435547,8.56749133 C157.66537,8.72471676 156.837588,9.00217341 156.420992,9.68964933 C156.258363,9.95477457 156.172434,10.2630597 156.09287,10.5651792 C155.204938,13.9717303 154.078315,19.0245241 156.251998,22.1628671 C156.66573,22.7609403 157.222677,23.2356994 157.820996,23.6210559 C158.619817,24.1358921 159.504567,24.4873372 160.421142,24.6753911 C160.233371,25.5231753 159.969219,26.3524624 159.635051,27.150921 C160.440555,28.4025588 164.192785,28.5536185 164.886263,27.3513064 C164.924454,26.3123854 164.962963,25.2734644 165.004017,24.2345434 C165.462305,24.0434066 165.901816,23.8121927 166.315547,23.5316532 C167.919554,22.4403237 168.975843,20.7848324 169.590394,18.9351214 C170.258412,16.9189364 171.197265,15.0014027 171.808315,12.9482235 C172.031412,12.1990906 172.206134,11.3451407 171.824227,10.6669133 C171.416861,9.94552601 170.541659,9.70198073 169.755568,9.52009249 C169.526425,9.46768401 169.303646,9.41527553 169.080867,9.3659499" id="Fill-14" fill="#DD5737"></path>
                    <path d="M157.388424,11.3144046 C159.126098,10.1614181 161.729426,9.665079 163.362075,9.78531021 C168.297896,10.1552524 170.105904,13.8978343 170.370056,18.5868516 C171.729005,16.8018805 174.281413,14.5575645 174.437039,12.2608401 C174.56466,10.3803006 174.310056,7.81845087 173.291639,6.19378805 C172.336873,4.6739422 169.895855,3.8384894 168.444611,2.95987669 C167.075795,2.1305896 165.707616,1.3013025 164.339119,0.468932563 C164.055871,0.296292871 163.762758,0.120570328 163.438456,0.0619961464 C163.053367,-0.0058265896 162.661595,0.0959075145 162.28319,0.194558767 C159.049716,1.05775723 155.816243,1.92095568 152.582451,2.78415414 C151.962172,2.95062813 151.252463,3.19109056 151.026501,3.81074374 C150.886151,4.18685164 150.969216,4.60920231 151.051962,5.00072447 C151.417955,6.73328709 152.124482,8.50592678 152.299522,10.2631522 C152.496841,11.2835761 153.085295,16.5120925 154.835699,15.9078536 C155.348408,15.0415723 155.427972,13.9718227 155.825791,13.0438844 C156.121768,12.3564085 156.68508,11.7829981 157.388424,11.3144046" id="Fill-16" fill="#606060"></path>
                    <path d="M171.773307,27.2835145 L157.833727,25.7420886 C157.833727,25.7420886 150.077846,26.5991214 144.817405,45.6172331 C141.889457,56.19758 140.998342,72.8696416 140.785111,85.5771561 C141.112596,87.3898728 143.025628,95.3312987 151.112176,93.9840925 C165.001153,91.6719538 172.390722,89.3567322 178.440754,90.5128015 C183.593625,91.6688709 183.157615,84.3440154 182.590803,78.7548054 L180.538056,61.4569249 L171.773307,27.2835145 Z" id="Fill-18" fill="#BCBEC0"></path>
                    <polygon id="Fill-20" fill="#FD886D" points="99.1986658 15.2573719 99.6824137 10.2415723 97.4800874 9.94870135 96.3630115 13.3120925 95.3888321 12.7047707 95.51327 17.0454258 97.7598338 17.6496647"></polygon>
                    <polygon id="Fill-22" fill="#BCBEC0" points="66.4628352 40.4688709 89.5363409 32.0557688 95.303126 16.4287938 98.2087964 17.4553834 97.7823344 36.8434374 76.1887157 52.0603931"></polygon>
                    <polygon id="Fill-24" fill="#CED5D9" points="64.5946451 97.4832832 44.8087162 91.6471368 50.7346289 124.313033 50.0885708 152.813996 50.0376499 153.005441 50.0822057 153.008216 50.0822057 153.070181 53.9267291 153.211992 53.9267291 153.208909 54.0699439 153.214767 61.1192977 127.467098 64.0567937 100.291453"></polygon>
                    <polygon id="Fill-26" fill="#606060" points="53.8025459 152.974613 49.8307204 153.097618 49.0096218 156.393495 49.1114635 156.414767 49.0860031 156.421241 55.8616574 159.821626 58.9996541 159.984709 59.1906073 156.513418 58.3154053 155.345017"></polygon>
                    <polygon id="Fill-28" fill="#CED5D9" points="77.3375853 153.893148 73.5121572 154.272339 67.8726742 124.081973 59.4134496 94.1693719 79.8454367 97.2645549"></polygon>
                    <path d="M77.4808638,153.862412 L82.4201853,156.22696 C82.5570351,156.291699 82.6365989,156.436593 82.614321,156.58457 L82.3565342,158.360293 C82.3310738,158.542181 82.159216,158.671661 81.9714454,158.656247 L73.5058557,157.894782 C73.31172,157.876285 73.1685052,157.712894 73.1844179,157.521757 L73.4676651,154.183029 C73.4835779,154.004224 73.6363404,153.868578 73.8177459,153.865495 L77.3217362,153.828501 C77.3758396,153.828501 77.4331255,153.840832 77.4808638,153.862412" id="Fill-30" fill="#606060"></path>
                    <path d="M69.0055992,36.4643391 C70.2722551,36.1807168 71.4084263,35.4963237 72.2772632,34.5591368 C74.5082325,32.1575954 74.9633375,28.9915067 74.8869562,25.9425665 C74.7055507,18.4820655 65.1642583,18.2385202 61.4884102,23.6705048 C58.2071985,28.5167476 62.0294441,38.0180963 69.0055992,36.4643391" id="Fill-32" fill="#FD886D"></path>
                    <path d="M69.3429816,22.5236224 C71.3861803,23.4330636 73.5598637,25.8623507 73.4962126,28.1806551 C73.4675696,29.2966474 72.853337,30.1814258 72.8724323,31.3775723 C72.8978927,33.9640848 68.5473435,36.8033911 72.4523354,39.1463584 C73.7380866,39.9201541 75.307085,40.2931792 76.7774242,39.9324855 C76.8156149,39.923237 76.8538055,39.9109056 76.8919961,39.8954913 C77.1975212,39.7598459 77.3343709,39.4022351 77.3184582,39.0816185 C77.3025454,38.7579191 77.1625131,38.4557996 77.0543063,38.1475145 C75.9022223,34.9505973 77.3916569,31.1432755 77.4839509,27.85079 C77.5762449,24.5644701 76.6724,21.0438536 73.8335632,18.9814258 C71.9876827,19.5825819 70.6223677,20.3810405 69.7567134,22.0704432 L69.3429816,22.5236224 Z" id="Fill-34" fill="#606060"></path>
                    <path d="M44.6241281,91.4193141 C47.5170683,91.829025 45.2479084,88.8078304 44.7068745,87.590104 C45.2033527,87.5346127 45.6839181,87.4976185 46.1517533,87.3530328" id="Fill-36" fill="#F4D0C1"></path>
                    <polygon id="Fill-38" fill="#BCBEC0" points="54.1017058 35.5425048 28.9213504 66.4542582 39.8947914 86.1413487 44.9741452 84.8095568 39.5415281 68.2268979 46.4731275 59.5764162 60.2981355 49.1656262"></polygon>
                    <path d="M56.9914635,37.783738 C58.1658254,37.4261272 59.3242745,37.034605 60.2122066,36.0388439 C61.6475378,34.4326782 62.0008011,31.4762235 62.6436767,29.5093642 C63.3183779,27.434605 64.1235637,25.190289 66.0171824,24.0249711 C67.2551953,23.2635067 68.5250338,23.2850867 69.9094441,23.4854721 C70.8578447,23.6242004 70.8355669,23.9756455 71.7203165,23.6149518 C72.3982002,23.3374952 73.117457,22.2954913 73.3720612,21.6604239 C73.8017058,20.5875915 73.5439191,19.3421195 72.9360515,18.3525241 C72.0003811,16.8326782 70.7305426,15.9478998 68.9801388,15.6242004 C62.8346299,14.4927938 57.5929659,17.2889403 54.8464231,22.8442389 C53.5256638,25.5139884 53.6052276,28.7386513 52.2494603,31.2974181 C51.4124489,32.8758382 50.1171501,33.8068593 49.3628851,35.5116763 C47.4087979,39.9324855 43.7647753,45.3983815 43.1441775,50.1952987 C43.1155346,50.4203468 43.1028044,50.6793064 43.3478609,50.8087861 C43.5547268,50.9166859 43.8125136,50.8642775 43.9907365,50.7193834 C45.7538706,49.2981888 47.5138221,47.8739114 49.2769562,46.4527168 C49.9389271,45.9193834 50.6104457,45.3737187 51.0941937,44.6831599 C52.3003811,42.9629287 52.2590079,40.4781503 53.9075701,39.1463584 C54.8050499,38.4188054 55.9030305,38.1136031 56.9914635,37.783738" id="Fill-40" fill="#606060"></path>
                    <polygon id="Fill-42" fill="#E4D2B8" points="86.8883617 54.5822582 86.6369401 57.0886166 81.8758415 58.1244547 79.511205 55.8708902 79.8962939 52.9668439 82.4455184 53.1456493 82.6110111 52.5167476 83.508491 52.1036455"></polygon>
                    <polygon id="Fill-44" fill="#606060" points="11.0736596 152.518197 10.7235788 155.1602 15.8252105 158.480432 18.9027388 156.180624 16.5253721 153.199507 11.4237404 149.876193"></polygon>
                    <polygon id="Fill-46" fill="#CED5D9" points="10.9018018 151.633387 14.8354367 117.944293 10.0997985 80.2283776 11.1659536 72.2067977 32.3171976 71.4268362 33.0778276 84.4857958 29.5292816 117.996701 16.1721087 153.353618"></polygon>
                    <polygon id="Fill-48" fill="#CED5D9" points="47.8352599 75.2033603 47.8925459 109.201048 40.8272793 152.96521 35.7415604 152.915884 32.9472793 112.444208 26.4071339 71.9355376"></polygon>
                    <polygon id="Fill-50" fill="#606060" points="35.7512036 154.993819 41.2220113 157.709811 43.9971971 155.07089 41.2761147 152.382644 35.776664 152.329927"></polygon>
                    <path d="M30.6303811,35.9310058 C29.9174893,36.2701195 28.2371016,36.3934335 26.4866977,35.7275376 C26.1334344,35.594975 25.894743,35.2651098 25.9011081,34.8951676 C25.9138383,33.8654952 25.9997672,32.8327399 26.1557123,31.812316 C24.8413181,31.3653025 23.3232405,30.6932408 23.0940968,29.3614489 C23.0208981,28.9421811 23.0972793,28.5136647 23.170478,28.0943969 C23.4791856,26.3618343 23.7878932,24.6292717 24.0966008,22.8997919 C24.2048076,22.3017187 24.3161969,21.6851484 24.6535475,21.1703121 C25.2423197,20.2701195 26.3880386,19.8755145 27.473289,19.6936262 C30.2421097,19.2281156 33.2591695,19.8076917 35.4042099,21.5649171 C35.9770693,22.0335106 36.4926428,22.5945896 36.7440645,23.2758998 C37.1323359,24.3271522 36.8427236,25.4863044 36.5499288,26.5683854 C36.2794118,27.5641464 36.0088948,28.5629904 35.7383779,29.5587514 C35.4264877,30.7055723 34.9777478,32.0096185 33.838394,32.4381349 C33.233709,32.6662659 32.5176347,32.5984432 31.9702357,32.9375568 C31.0059223,33.5387129 31.1332244,34.9321618 30.6303811,35.9310058" id="Fill-52" fill="#FD886D"></path>
                    <path d="M46.6101045,18.6576956 C46.8806215,18.2260963 47.1734163,17.8068285 47.5012192,17.4153064 C48.2109284,16.5675222 49.0861304,15.8399692 49.6558073,14.8996994 C50.2254842,13.9594297 50.4291675,12.6831291 49.7417362,11.8168478 C49.2993614,11.2588516 48.5801045,10.9783121 47.8831255,10.7779268 C45.5853226,10.1212794 43.1026134,10.0781195 40.7796683,10.6515299 C38.5674761,11.1971946 36.5882467,12.1004701 34.3604599,11.2958459 C32.2692047,10.5405472 30.7574922,10.8488324 28.5713969,11.604131 C26.2035779,12.4210867 23.0273905,12.6153064 20.8855326,13.7682929 C19.9912354,14.2492177 19.2783436,15.0045164 18.7213969,15.8368863 C16.7927701,18.7193526 16.7832225,22.6962312 18.6959365,25.5910289 C19.1255811,26.2415106 19.6379721,26.8334181 20.179006,27.4006628 C21.2960819,28.5721464 22.6295714,30.0210867 24.166426,30.4557688 C24.2017523,29.1239769 22.9510092,24.9282158 24.0072984,23.8368863 C25.6816393,22.1074066 29.4688767,22.7085626 31.543901,23.137079 C33.8098784,23.6025896 35.8276166,25.1563468 38.0744987,25.4892948 C39.6912354,25.7297572 41.7535294,24.9590443 43.1283921,24.1513372 C44.8278751,23.1524933 45.6171481,20.2391985 46.6101045,18.6576956" id="Fill-54" fill="#606060"></path>
                    <path d="M7.91335315,86.7640539 C7.96109144,85.2904509 8.04702036,84.0603931 8.05975057,83.6226281 C8.16795735,79.6704123 8.53076834,75.7274451 9.04315929,71.802975 C9.50144685,68.2854412 10.0774889,59.5578882 10.7012691,56.0619345 C11.2136601,53.1763854 13.0022546,45.9748439 14.2943709,43.2989287 C17.5055664,36.643052 16.51261,36.0295645 30.6208653,34.0534566 C36.8045648,33.1871753 38.2653564,36.9205087 43.3192498,41.2118382 C43.8189105,41.6341888 43.7902675,44.1559615 43.9048394,44.8218574 C44.1085228,45.9964239 44.3281189,47.1709904 44.576358,48.3393911 C44.7736763,49.2580809 44.9900898,50.1736879 45.2319638,51.0831291 C45.2319638,51.0831291 49.4743063,69.7898728 52.2813176,73.7636686 C55.0883289,77.7374644 60.883757,83.2896802 51.1865195,86.680817 C49.4679412,87.220316 47.7398152,87.7323776 45.9512207,88.0036686 C45.9512207,88.0036686 38.0202998,87.1494104 33.9402675,87.1805472 C30.1848556,87.2079846 26.4103483,87.5748439 22.7185874,88.1914143 C20.2489267,88.592185 17.7283451,89.1720694 15.5196536,90.2908362 C13.4128039,91.3575029 11.8915438,92.9266744 9.7528685,94.0303353 C9.54918514,94.1351522 9.32958901,94.243052 9.09726268,94.2122235 C7.86879742,94.0457495 7.80832892,89.865711 7.91335315,86.7640539" id="Fill-56" fill="#86E4AE"></path>
                    <polygon id="Fill-58" fill="#86E4AE" points="18.9028024 36.612316 10.0998622 44.0820655 0.281687722 64.0712755 12.6840948 78.3664586 14.816405 70.3726243"></polygon>
                    <path d="M131.743384,149.358274 C132.220767,148.849911 132.774531,148.572146 133.401494,148.667715 C134.002996,148.760509 134.547213,149.154805 134.795452,149.685364 C134.964127,150.04575 135.002318,150.449603 135.034143,150.841434 C135.209184,152.87889 135.193271,157.718967 132.389124,158.415692 C131.211898,158.708563 130.238037,157.897773 129.922646,156.874266 C129.448764,155.33284 130.152108,151.056925 131.743384,149.358274" id="Fill-60" fill="#606060"></path>
                    <path d="M130.747277,118.60985 L130.893674,131.04299 C130.721816,136.564378 131.612931,142.119985 131.441073,147.641372 C131.402883,148.911198 131.058849,150.249464 131.390153,151.510351 C131.714773,152.7401 132.745602,152.959291 133.805392,152.336247 C135.22481,151.500794 134.995984,149.549349 135.234676,148.128154 C135.883917,144.219098 136.647729,140.325457 137.325613,136.419792 C137.659781,134.505341 136.97235,131.820177 137.121611,129.883838 L139.196954,119.464108 L130.747277,118.60985 Z" id="Fill-62" fill="#FD886D"></path>
                    <polygon id="Fill-64" fill="#CED5D9" points="145.409074 98.5222351 139.823694 122.556146 138.63692 145.255183 129.779876 145.064046 127.370366 81.5696339 144.543419 81.8717534"></polygon>
                    <path d="M119.073452,148.908177 C119.570248,148.427252 120.136424,148.180624 120.757022,148.313187 C121.355342,148.439584 121.877599,148.8681 122.100059,149.410682 C122.252821,149.780624 122.271917,150.187561 122.288148,150.582166 C122.370576,152.632262 122.14175,157.475422 119.318826,158.011838 C118.131416,158.236886 117.196064,157.370605 116.928411,156.325827 C116.524227,154.756347 117.412159,150.514343 119.073452,148.908177" id="Fill-66" fill="#606060"></path>
                    <path d="M123.742256,120.354775 L122.991492,132.766335 C122.930705,136.216046 122.456505,139.638012 122.087647,143.066143 C121.743931,146.247645 122.278282,149.564794 120.559704,152.459592 C120.02217,153.36595 118.933737,153.970189 118.172789,152.869611 C117.5872,152.018744 117.934098,150.600632 117.822708,149.638782 C117.364421,145.701981 116.791561,141.780593 116.304949,137.846875 C116.066258,135.920092 116.880673,133.269148 116.826888,131.326644 L115.263936,120.826451 L123.742256,120.354775 Z" id="Fill-68" fill="#FD886D"></path>
                    <polygon id="Fill-70" fill="#CED5D9" points="112.53337 97.0515607 111.81093 120.382582 115.591803 143.978728 124.601609 144.240771 124.20379 118.705511 128.971253 97.5263198 130.572077 83.6658189 116.276052 82.0319075"></polygon>
                    <polygon id="Fill-72" fill="#86E4AE" points="123.844193 34.2816493 139.244565 33.9240385 148.174807 50.0134412 145.001802 65.08242 144.435308 83.1140193 122.466148 83.4038073 115.235389 82.2662351 117.154468 62.9984123 116.056487 37.259684"></polygon>
                    <polygon id="Fill-74" fill="#83E5AC" points="121.415937 44.8804624 115.856018 61.3952987 107.555921 64.2808478 84.8452267 58.3556069 87.9004771 53.7806551 107.870994 54.4126397 116.085162 37.9810405"></polygon>
                    <path d="M124.80857,21.7805934 C127.131834,15.2418651 136.042981,17.6927322 137.878995,23.5131561 C139.079136,27.3112293 136.049027,32.2407091 131.988409,33.3320385 C131.969313,33.4800154 131.956583,33.6218266 131.956583,33.738975 C131.953401,34.3493796 131.877019,34.9505356 131.781543,35.5578574 C131.746535,35.7859884 128.191624,35.1231753 127.793805,35.046104 C127.653454,35.0183584 127.50101,34.984447 127.424628,34.8703815 C127.281414,34.6545819 127.51374,34.0164316 127.5392,33.7759692 C127.571026,33.4923468 127.599669,33.2087245 127.631494,32.9251021 C125.626168,31.9786667 124.363013,29.9593988 124.00975,27.9062197 C123.656486,25.8437919 124.108409,23.7443699 124.80857,21.7805934" id="Fill-76" fill="#FD886D"></path>
                    <path d="M130.622966,15.8707977 C131.100349,16.3393911 131.28812,16.9960385 131.425288,17.6249403 C131.507716,18.0010482 131.577732,18.3894875 131.494986,18.7625125 C131.164,20.248447 129.64274,20.1682929 128.468378,20.6492177 C127.020635,21.2380424 125.769574,22.326289 124.958023,23.5779268 C123.688184,25.5355376 124.257861,28.0573102 124.773435,30.2183892 C124.95484,30.9798536 125.320834,32.1112601 124.709784,32.7925703 C124.089186,33.4831291 122.657037,33.3752293 121.915503,33.0207013 C121.237619,32.6970019 120.680672,32.0958459 119.935955,31.9756146 C119.146682,31.8492177 118.084028,32.1821657 117.717716,31.4823584 C117.615874,31.2881387 117.606645,31.0507592 117.475842,30.8719538 C117.039832,30.2677148 115.957764,30.9736879 115.343532,30.5513372 C114.964808,30.2892948 114.968309,29.7312987 115.095293,29.2904509 C115.222595,28.8496031 115.439008,28.4025896 115.349897,27.9555761 C115.273834,27.5702197 114.987086,27.2650173 114.809181,26.9135723 C114.458782,26.2199306 114.579719,25.319738 115.101658,24.7339961 C116.072336,23.6457495 117.950042,23.8523006 118.990737,22.8287938 C119.531771,22.2954605 119.741819,21.5278304 119.945503,20.8002775 C120.149186,20.0727245 120.391378,19.3050944 120.970285,18.8118382 C121.686359,18.2014335 122.717506,18.3062505 123.424033,17.5848632 C123.837764,17.1594297 124.114647,16.6075992 124.579299,16.237657 C125.193532,15.7505665 126.390172,15.3775414 127.154302,15.1278304 C128.363354,14.7301426 129.715939,14.9798536 130.622966,15.8707977" id="Fill-78" fill="#606060"></path>
                    <path d="M136.895746,27.2311368 C136.937119,29.3829672 135.832773,31.7105202 136.857555,33.6033911 C137.891884,35.5147592 140.466888,35.8600385 142.659348,35.9586898 C143.018977,35.974104 147.653091,36.3625434 147.671868,36.2762235 C148.018767,34.7779576 148.378395,33.2488632 149.186763,31.9324855 C149.995132,30.6161079 151.347716,29.5247784 152.89762,29.4322929 C152.452062,29.3583044 152.226101,28.8280539 152.277022,28.3810405 C152.327943,27.934027 152.566634,27.5301734 152.706985,27.101657 C153.0472,26.0473218 152.716214,24.817264 151.895116,24.0742967 C150.256101,22.5945279 147.286779,23.2080154 145.883274,21.5093642 C145.011254,20.4550289 145.116279,18.9290173 144.661174,17.6403854 C143.779607,15.1525241 140.969413,14.634605 138.865746,13.5093642 C136.647825,12.3224663 134.559752,11.6750674 132.00098,12.0881696 C128.827975,12.5999229 126.469704,15.7290173 127.691804,18.6731407 C129.260802,22.4496339 135.536796,22.1228516 136.711158,25.9579191 C136.832413,26.3771869 136.886516,26.7995376 136.895746,27.2311368" id="Fill-80" fill="#606060"></path>
                    <polygon id="Fill-82" fill="#83E5AC" points="134.690332 34.195237 129.910138 40.7370482 127.663256 40.5582428 123.920574 33.9239461"></polygon>
                    <path d="M175.487632,94.7887784 C175.926824,96.1329017 176.340556,97.4862736 176.741239,98.84242" id="Fill-84" fill="#3B455A"></path>
                    <path d="M108.800395,37.7990906 C99.3895871,35.9462967 86.8439651,39.0014027 83.0439974,45.8761618 C81.1376485,38.3015954 67.1439651,32.0711522 57.5517519,31.5963931 C32.2405935,30.3478382 20.4941105,54.2121927 28.9310572,72.2592062 C33.4725596,81.9732717 40.6616275,90.8611329 48.7074384,99.0371638 C55.4449021,105.884177 73.1749021,120.823676 73.2385532,120.786554 C73.2926565,120.836008 94.3134158,110.640709 102.600783,105.634158 C112.498203,99.6565087 121.749883,92.7820578 128.653157,84.4672987 C141.475661,69.0222119 133.633534,42.6854104 108.800395,37.7990906" id="Fill-86" fill="#1FD461"></path>
                    <path d="M89.1639822,95.6707514 C81.8091034,99.9494412 73.3880695,103.433064 64.5692165,103.858497 C60.3332391,104.065048 56.2882149,103.470058 52.5614459,102.129017 C58.904273,108.337881 65.8422375,114.740963 65.8804281,114.719741 C65.9281664,114.768709 84.5874717,104.62921 91.9550808,99.6750674 C100.754838,93.7590751 108.997331,86.9798844 115.181349,78.8288247 C117.183174,76.1899037 118.634418,73.2396146 119.554176,70.1413487 C116.76626,73.6557996 113.637493,76.9421195 110.302496,80.0188054 C99.0617205,90.3895183 90.0837399,95.134027 89.1639822,95.6707514 Z" id="Fill-88" fill="#019F44"></path>
                    <path d="M128.783674,85.8762235 C129.079651,83.4315222 127.281191,81.2149518 124.757745,80.9159152 C122.227297,80.6168786 119.92663,82.3617726 119.617604,84.8126397 L119.617604,84.8188054 L114.175758,103.503969 C112.892871,107.903198 109.793065,111.593372 105.611191,113.705434 L90.2938838,121.433834 L101.547389,108.64 C101.73516,108.464586 101.903835,108.270058 102.056598,108.060424 L102.062963,108.054258 C102.448052,107.520925 102.708703,106.892023 102.79495,106.201464 C103.077879,103.9479 101.422952,101.900886 99.0968241,101.626513 C98.0398984,101.503198 97.0313475,101.768324 96.2166141,102.301657 L96.2131132,102.298882 L80.9658225,112.851175 C74.3747562,117.410713 70.0655801,124.442697 69.0885365,132.229981 L68.0001036,140.905125 C67.2614331,146.78104 71.5804751,152.120539 77.6461019,152.835761 C79.9916431,153.113526 82.2483911,152.651098 84.1830648,151.649171 C84.7116868,151.374489 85.2173943,151.063121 85.6947772,150.708593 L117.02096,131.237303 C121.19615,128.641541 123.958924,124.38104 124.557244,119.611869 L128.783674,85.8762235 Z" id="Fill-90" fill="#AFABA7"></path>
                    <path d="M18.858183,68.162158 C19.1764383,65.7205395 21.4710586,63.984894 23.9948228,64.2808478 C26.524952,64.5798844 28.3262767,66.8087861 28.0175691,69.2596532 L28.0175691,69.2658189 L28.6763575,88.6692871 C28.8323026,93.2380732 30.9264221,97.5417341 34.4686031,100.562929 L47.4279569,111.6242 L39.6688939,96.5891329 C39.5320441,96.3733333 39.4142897,96.1482852 39.3188131,95.9109056 L39.3156305,95.9047399 C39.0737565,95.2974181 38.97828,94.6253565 39.0642089,93.9347977 C39.3474561,91.6812331 41.4606709,90.0781503 43.7871168,90.3525241 C44.8437242,90.4758382 45.7571168,90.9690944 46.4159052,91.6781503 L46.4190877,91.6750674 L58.6114464,105.458189 C63.8817533,111.414566 66.3227711,119.241618 65.3457275,127.02921 L64.2572945,135.704355 C63.5189423,141.58027 58.0035788,145.760617 51.9408163,145.048478 C49.5952751,144.771021 47.5202509,143.799923 45.8876015,142.375645 C45.4420441,141.987206 45.0283123,141.564855 44.6527711,141.111676 L19.0618664,114.935183 C15.6501701,111.445395 14.0238858,106.666975 14.6222057,101.897803 L18.858183,68.162158 Z" id="Fill-92" fill="#AFABA7"></path>
                    <polygon id="Fill-94" fill="#FD886D" points="127.023627 86.1291098 129.286103 87.3684162 128.325291 92.005025 125.238215 93.1795915 122.657165 91.6566628 123.863352 89.4740039 123.335048 89.0732331 123.312771 88.1113834"></polygon>
                    <polygon id="Fill-96" fill="#86E4AE" points="139.90644 37.3059576 145.17993 45.9348593 144.935191 67.1726243 131.163968 88.3888092 126.234195 85.9256108 137.087017 67.1695414 135.097922 52.5691561"></polygon>
                    <polygon id="Fill-98" fill="#BCBEC0" points="170.525778 27.4253256 183.800204 21.1794682 192.129263 2.12436224 196.718503 2.4326474 191.282704 24.8233988 186.457954 30.4896802 170.099316 38.9644393"></polygon>
                    <polygon id="Fill-100" fill="#FD886D" points="16.8785717 79.047738 21.3882486 81.5540963 22.5785233 79.732131 19.8829013 77.3552524 20.8567624 76.7448478 16.7289918 75.0554451 15.226827 76.7880077"></polygon>
                </g>
            </g>
        </g>
    </g>
</svg>