<?xml version="1.0" encoding="UTF-8"?>
<svg width="149px" height="157px" viewBox="0 0 149 157" version="1.1" xmlns="http://www.w3.org/2000/svg" xmlns:xlink="http://www.w3.org/1999/xlink">
    <title>2E554097-9C2E-42BF-8F41-2AE82577A399</title>
    <defs>
        <polygon id="path-1" points="0 0.249939853 148.711558 0.249939853 148.711558 89.890158 0 89.890158"></polygon>
        <path d="M29.1370038,0.654985714 C29.6987681,0.3306 30.388654,0.329357143 30.9512395,0.651671429 L30.9512395,0.651671429 L38.2755285,4.84921429 C38.8964259,5.20467143 39.5173232,5.56095714 40.1386312,5.91682857 C40.7886844,6.28968571 40.7977186,7.23094286 40.155057,7.61581429 C37.556076,9.17311429 34.9566844,10.7295857 32.3577034,12.2868857 C31.8702662,12.5785429 31.3832395,12.8706143 30.8958023,13.1622714 C25.4567909,16.4210429 20.0177795,19.6789857 14.5787681,22.9369286 C15.1089125,24.9507714 15.639057,26.9642 16.1696122,28.9772143 C12.8458403,26.9335429 9.52288973,24.8894571 6.19952852,22.8457857 C4.43662357,21.7611857 2.67412928,20.6774143 0.911224335,19.5932286 C0.568745247,19.3923 0.343711027,19.0890429 0.235711027,18.7543 C0.0266920152,18.1059429 0.2558327,17.3382714 0.920669202,16.9542286 C3.18990114,15.6438429 5.45831179,14.3330429 7.72713308,13.0226571 C9.18739163,12.1787571 10.6476502,11.3352714 12.1074981,10.4922 L12.1074981,10.4922" id="path-3"></path>
        <path d="M18.1292167,0.357528571 C18.3595894,0.218328571 18.5599848,0.580828571 18.3394677,0.713814286 L18.3394677,0.713814286 L13.7714373,3.46135714 C9.41160456,6.08461429 5.05136122,8.70787143 0.691117871,11.3307143 C0.598311787,11.3866429 0.464851711,11.3518429 0.409414449,11.2586286 C0.351513308,11.1600286 0.383543726,11.0332571 0.48086692,10.9744286 L0.48086692,10.9744286 L5.04889734,8.22647143" id="path-5"></path>
        <polygon id="path-7" points="0.291569496 0.346831858 37.9619587 0.346831858 37.9619587 45.6725044 0.291569496 45.6725044"></polygon>
    </defs>
    <g id="PC-(responsive-format)" stroke="none" stroke-width="1" fill="none" fill-rule="evenodd">
        <g id="07.4.3-Fiche-profil_Paramètres" transform="translate(-691.000000, -638.000000)">
            <g id="Group-172" transform="translate(691.000000, 638.000000)">
                <path d="M146.588406,130.517825 L104.120976,156.106918 C102.152738,157.293006 99.6952091,157.297951 97.7224597,156.120106 L2.73519041,99.4252489 C1.18693073,98.5008583 0.220652638,96.8408292 0.177998596,95.0316118 L0,87.4617472 L48.2638682,62 L149,118.311583 L149,126.238758 C149,127.991926 148.084169,129.616101 146.588406,130.517825" id="Fill-1" fill="#606060"></path>
                <path d="M112.573762,51.6428858 L111.325515,51.6531429 C108.194742,51.6785807 105.635649,49.1877298 105.609532,46.0888339 L105.556883,39.8262168 C105.53118,36.7277312 108.048401,34.195031 111.179175,34.1691829 L123,34.0723552 C122.69654,34.0268134 122.387692,33.9976831 122.070966,34 L109.796195,34.100665 C106.568829,34.1273337 103.97367,36.7383986 104.000202,39.932481 L104.054509,46.3887535 C104.081456,49.5832462 106.719315,52.571775 109.947096,52.5451064 L111.446153,52.5348492 L116.25383,57 L120.753902,52.451561 L117.140578,56.0879325 L112.573762,51.6428858 Z" id="Fill-3" fill="#CED7DB"></path>
                <path d="M127.94824,39.5599036 C127.922456,36.4637538 125.396047,33.9743706 122.305259,34 L122.22054,34.0006092 L110.550276,34.0977738 C107.459488,34.1231924 104.974415,36.6543933 105,39.7505431 L105.052176,46.0084392 C105.07755,49.104589 107.603959,51.5939722 110.695157,51.5685536 L111.927052,51.5583041 L116.435543,56 L120.003129,52.3663697 L120.869548,51.4836882 L122.449321,51.4709789 C125.540519,51.4451503 128.025182,48.9143595 128,45.8182096 L127.94824,39.5599036 Z" id="Fill-5" fill="#B3AEA9"></path>
                <path d="M146.588406,127.51771 L104.120976,153.106914 C102.152738,154.293007 99.6952091,154.297953 97.7224597,153.120102 L2.73519041,96.4249991 C1.18693073,95.5006045 0.220652638,93.8405682 0.177998596,92.0313429 L0,84.4614455 L48.2638682,59 L149,115.311827 L149,123.238624 C149,124.991801 148.084169,126.615982 146.588406,127.51771" id="Fill-7" fill="#B3AEA9"></path>
                <g id="Group-11" transform="translate(0.000000, 54.000000)">
                    <mask id="mask-2" fill="white">
                        <use xlink:href="#path-1"></use>
                    </mask>
                    <g id="Clip-10"></g>
                    <path d="M146.899387,63.3355596 L105.447505,88.4616606 C102.325873,90.3537248 98.426903,90.3673486 95.2929909,88.4959266 L1.88431786,32.7306055 C-0.645816758,31.2200092 -0.623712363,27.5196881 1.92443324,26.040055 L44.7590679,1.16702752 C46.8700376,-0.0591192661 49.4689415,-0.0554036697 51.5770459,1.17611009 L146.8474,56.8427615 C149.309994,58.2819358 149.338238,61.8571651 146.899387,63.3355596" id="Fill-9" fill="#CED7DB" mask="url(#mask-2)"></path>
                </g>
                <polygon id="Fill-12" fill="#FFFFFF" points="9 88.2213698 53.8781186 62 133 107.599389 86.7689162 134"></polygon>
                <path d="M119,121.403575 C115.931304,121.403575 113.434783,122.792678 113.434783,124.500202 C113.434783,126.207322 115.931304,127.596425 119,127.596425 C122.068696,127.596425 124.565217,126.207322 124.565217,124.500202 C124.565217,122.792678 122.068696,121.403575 119,121.403575 M119,128 C115.691739,128 113,126.429692 113,124.500202 C113,122.570308 115.691739,121 119,121 C122.308261,121 125,122.570308 125,124.500202 C125,126.429692 122.308261,128 119,128" id="Fill-14" fill="#CCCCCC"></path>
                <path d="M132.06163,130.439873 L123.707583,135.296109 C123.534025,135.396608 123.430665,135.570087 123.430665,135.759918 L123.430665,137.196809 C123.430665,137.347557 123.516368,137.480358 123.659349,137.551744 C123.801899,137.621934 123.968997,137.615553 124.105087,137.532203 L132.289452,132.507273 C132.472484,132.39481 132.579289,132.198997 132.568953,131.995607 L132.496602,130.649245 C132.491003,130.553931 132.435447,130.473771 132.343715,130.429504 C132.251984,130.384838 132.149055,130.388826 132.06163,130.439873 M123.866499,138 C123.726532,138 123.586566,137.968096 123.456075,137.903091 C123.170113,137.760718 123,137.497108 123,137.196809 L123,135.759918 C123,135.432101 123.178726,135.132599 123.478469,134.957923 L131.832946,130.101687 C132.050432,129.975665 132.315291,129.966493 132.542683,130.075765 C132.770505,130.185436 132.913916,130.392814 132.926406,130.630102 L132.998757,131.976465 C133.016845,132.319436 132.836397,132.650045 132.527609,132.839875 L124.343245,137.864805 C124.196388,137.954935 124.031874,138 123.866499,138" id="Fill-16" fill="#CCCCCC"></path>
                <path d="M19.2181852,76 C19.1419583,76 19.0679094,75.9606268 19.0278358,75.8908679 C18.9690323,75.7872994 19.0064923,75.6571968 19.111032,75.599421 L34.6756834,67.0276294 C34.7810942,66.9694256 34.9135111,67.0062309 34.9718791,67.1093715 C35.0311183,67.212512 34.9936582,67.3430426 34.888683,67.4008184 L19.3244672,75.97261 C19.2909274,75.9910127 19.2543385,76 19.2181852,76" id="Fill-18" fill="#CCCCCC"></path>
                <path d="M11.4263608,98.9614134 C11.41487,99.1820805 11.5370129,99.3902937 11.7446983,99.5039353 L24.5752332,106.524807 C24.7744069,106.633389 25.0161392,106.639616 25.2212711,106.538428 C25.426403,106.438019 25.5553553,106.250822 25.5664205,106.038327 L25.5736554,105.891605 C25.5851462,105.667825 25.461301,105.459222 25.2502109,105.346359 L12.4120155,98.4722097 C12.2124162,98.3655734 11.9723863,98.3612924 11.7685311,98.4628693 C11.5651015,98.564057 11.4370004,98.7500867 11.4263608,98.9614134 M24.9110197,107 C24.7195064,107 24.5288444,106.95252 24.3564825,106.858337 L11.5259477,99.8374656 C11.1837774,99.6502683 10.9824757,99.3077868 11.0012014,98.9431218 C11.019076,98.5948025 11.2301661,98.2873475 11.5655271,98.1207769 C11.9004624,97.9542063 12.2975332,97.9604333 12.6269359,98.1363443 L25.4651313,105.010494 C25.8132597,105.196523 26.0175405,105.54134 25.9988148,105.909897 L25.9911543,106.05623 C25.9732797,106.407273 25.7604872,106.715507 25.4221472,106.881688 C25.2612761,106.960692 25.0859351,107 24.9110197,107" id="Fill-20" fill="#CCCCCC"></path>
                <path d="M28.4225875,107.993015 C28.4154117,108.219001 28.5399324,108.429471 28.7476075,108.542066 L41.5981389,115.518984 C41.7982161,115.627998 42.0379712,115.628396 42.2397368,115.523361 C42.4410804,115.417131 42.565601,115.22377 42.5723547,115.006537 L42.57742,114.856543 C42.5845957,114.627772 42.4579645,114.416507 42.2464905,114.303912 L29.3908938,107.477783 C29.1916608,107.371554 28.95275,107.371554 28.7522506,107.478181 C28.5530176,107.58441 28.4293411,107.776976 28.4225875,107.993015 M41.9227368,116 C41.7386995,116 41.5550843,115.954644 41.3879311,115.863931 L28.5369776,108.887013 C28.1942293,108.700813 27.9886647,108.353877 28.0004836,107.981477 C28.0114583,107.624595 28.2153344,107.306702 28.5454197,107.131643 C28.8746608,106.956185 29.2680616,106.956185 29.5981469,107.131245 L42.4541656,113.957373 C42.8024013,114.14238 43.0113428,114.491305 42.9995239,114.868479 L42.9944586,115.018075 C42.9830618,115.377345 42.7779193,115.695635 42.4453014,115.870695 C42.2815251,115.957031 42.102131,116 41.9227368,116" id="Fill-22" fill="#CCCCCC"></path>
                <g id="Group-68" transform="translate(19.000000, 67.000000)">
                    <path d="M106.729994,43.0471857 L100.769872,39.8310857 L90.1246859,33.7307286 C89.5621004,33.408 88.8726251,33.4092429 88.3108608,33.7340429 L60.0945262,50.0328714 C59.0855681,50.6157714 59.0802297,52.0819286 60.0846707,52.6718714 L68.2323057,57.4589429 C69.2018418,58.0285857 70.4009293,58.0232 71.3655376,57.4456857 L96.1804882,42.5802857 L106.729994,43.0471857 Z" id="Fill-24" fill="#B3AEA9"></path>
                    <path d="M107.629925,39.3845686 L101.670214,36.1684686 L91.0250281,30.0681114 C90.4620319,29.7453829 89.7725567,29.7466257 89.2107924,30.0714257 L60.9948684,46.3702543 C59.9859103,46.9531543 59.9805719,48.4193114 60.9850129,49.0092543 L69.1326479,53.7963257 C70.1017734,54.3659686 71.3012715,54.3609971 72.2658798,53.7830686 L97.0808304,38.9180829 L107.629925,39.3845686 Z" id="Fill-26" fill="#00D65B"></path>
                    <path d="M65.5631042,47.6128214 C65.4937049,47.6128214 65.4259483,47.5771929 65.3869369,47.5125643 C65.3290357,47.4143786 65.3602449,47.2871929 65.4571574,47.22795 L80.1488532,38.2996786 C80.2449445,38.2416786 80.3718342,38.2719214 80.4305567,38.3701071 C80.4888684,38.4682929 80.4576593,38.5954786 80.3603361,38.6547214 L65.669051,47.5834071 C65.6361992,47.6032929 65.5992411,47.6128214 65.5631042,47.6128214" id="Fill-28" fill="#FFFFFF"></path>
                    <path d="M68.1617567,49.3343029 C68.0919468,49.3343029 68.0237795,49.29826 67.9851787,49.2332171 C67.9272776,49.1350314 67.959308,49.0078457 68.0566312,48.9490171 L85.7053916,38.3321171 C85.8014829,38.2737029 85.9283726,38.3051886 85.9866844,38.4042029 C86.0449962,38.5023886 86.0129658,38.6295743 85.9152319,38.6884029 L68.2668821,49.3053029 C68.2340304,49.3251886 68.1978935,49.3343029 68.1617567,49.3343029" id="Fill-30" fill="#FFFFFF"></path>
                    <path d="M70.9548502,50.9109086 C70.8858616,50.9109086 70.8185156,50.8756943 70.7795042,50.8118943 C70.7207817,50.7141229 70.7507589,50.5869371 70.8476715,50.5268657 L87.0916106,40.4866514 C87.1872913,40.4278229 87.3145916,40.4576514 87.3737247,40.5554229 C87.4328578,40.65278 87.4028806,40.78038 87.3055574,40.8400371 L71.0620289,50.8806657 C71.0287665,50.90138 70.9918084,50.9109086 70.9548502,50.9109086" id="Fill-32" fill="#FFFFFF"></path>
                    <path d="M91.3560502,33.0970371 C89.3849475,33.0970371 87.7797308,34.25828 87.7714833,35.6950229 C87.7674114,36.3827371 88.1296015,37.0356514 88.7911529,37.5336229 C89.4715939,38.0452657 90.3824076,38.3307086 91.3548183,38.3360943 C92.3210692,38.3360943 93.2417384,38.0680514 93.9283392,37.56428 C94.5956395,37.0745943 94.9656319,36.4262371 94.9697729,35.7385229 C94.9738449,35.0508086 94.6116548,34.3983086 93.9496928,33.8999229 C93.2692517,33.3878657 92.358438,33.1028371 91.3860274,33.0970371 L91.3560502,33.0970371 Z M91.3860274,38.75038 L91.3523544,38.75038 C90.2928867,38.7441657 89.2958373,38.4297229 88.5455863,37.8654657 C87.7764456,37.2867086 87.3559437,36.5153086 87.3608287,35.6929514 C87.370727,34.0279371 89.1599133,32.6827514 91.3564608,32.6827514 L91.3884913,32.6827514 C92.4479589,32.68938 93.4450084,33.0034086 94.1952593,33.56808 C94.9644,34.1464229 95.3853125,34.9182371 95.3804276,35.7410086 C95.375457,36.5633657 94.9455103,37.3302086 94.1697992,37.8994371 C93.4207802,38.44878 92.4331757,38.75038 91.3860274,38.75038 L91.3860274,38.75038 Z" id="Fill-34" fill="#FFFFFF"></path>
                    <path d="M70.2951878,21.8575071 L64.3350662,18.6409929 L53.6898798,12.54105 C53.1272943,12.2183214 52.437819,12.2195643 51.8760548,12.5443643 L23.6597202,28.8431929 C22.650762,29.4260929 22.6454236,30.89225 23.6502753,31.4821929 L31.7974996,36.2692643 C32.7670357,36.8389071 33.9661232,36.8335214 34.9307316,36.2560071 L59.7456821,21.3906071 L70.2951878,21.8575071 Z" id="Fill-36" fill="#B3AEA9"></path>
                    <path d="M52.7761506,8.88154 L24.559816,25.1807829 C23.5508578,25.7632686 23.5455194,27.2294257 24.5503711,27.8197829 L32.6975954,32.6068543 C33.6671316,33.1764971 34.8666297,33.1711114 35.8308274,32.5931829 L65.2355726,14.9789971 L54.5903863,8.87822571 C54.0273901,8.55591143 53.3379148,8.55715429 52.7761506,8.88154" id="Fill-38" fill="#00D65B"></path>
                    <polygon id="Fill-40" fill="#CED7DB" points="71.1950783 18.19489 65.2353673 14.97879 60.6459833 17.7284043"></polygon>
                    <path d="M29.1286677,26.4231429 C29.0588578,26.4231429 28.9911011,26.3875143 28.9525004,26.3228857 C28.8941886,26.2247 28.9249871,26.0975143 29.0227209,26.0382714 L43.7135954,17.11 C43.810508,17.0515857 43.9369871,17.0818286 43.9957095,17.1804286 C44.0540213,17.2786143 44.0228122,17.4058 43.925489,17.4650429 L29.2342038,26.3937286 C29.2013521,26.4136143 29.1643939,26.4231429 29.1286677,26.4231429" id="Fill-42" fill="#FFFFFF"></path>
                    <path d="M31.7272791,28.1446243 C31.6574692,28.1446243 31.5893019,28.1085814 31.5507011,28.0435386 C31.4928,27.9453529 31.5244198,27.8181671 31.621743,27.7593386 L49.2700928,17.1424386 C49.3678266,17.0840243 49.4938951,17.1163386 49.5513856,17.2145243 C49.6096973,17.31271 49.5776669,17.4398957 49.4799331,17.4987243 L31.8319939,28.1156243 C31.7991422,28.13551 31.7630053,28.1446243 31.7272791,28.1446243" id="Fill-44" fill="#FFFFFF"></path>
                    <path d="M34.520003,29.7212714 C34.4510144,29.7212714 34.3832578,29.6860571 34.344657,29.6222571 C34.285524,29.5244857 34.3159118,29.3973 34.4124137,29.3372286 L50.6563529,19.2966 C50.7532654,19.2365286 50.8793338,19.2680143 50.9384669,19.3653714 C50.9980106,19.4627286 50.9676228,19.5903286 50.8707103,19.6499857 L34.6271817,29.6910286 C34.5935087,29.7117429 34.5561399,29.7212714 34.520003,29.7212714" id="Fill-46" fill="#FFFFFF"></path>
                    <path d="M54.9207924,11.9073586 C52.9501004,11.9073586 51.3448837,13.0686014 51.3362321,14.5053443 C51.3325643,15.1930586 51.6947544,15.8459729 52.3563057,16.34353 C53.0367468,16.8555871 53.9475605,17.14103 54.9199711,17.1464157 C55.8989521,17.14393 56.8068913,16.8783729 57.493492,16.3746014 C58.1607924,15.8849157 58.5307848,15.2361443 58.5349258,14.5488443 C58.5389977,13.86113 58.1768076,13.2082157 57.514435,12.7102443 C56.8339939,12.1981871 55.9235909,11.9131586 54.9507696,11.9073586 L54.9207924,11.9073586 Z M54.9511802,17.5607014 L54.9175072,17.5607014 C53.8580395,17.5544871 52.8609901,17.2400443 52.1107392,16.6757871 C51.3415985,16.09703 50.9210966,15.32563 50.9255777,14.5028586 C50.9354692,12.8303871 52.7283513,11.46573 54.9532335,11.4930729 C56.0131118,11.4992871 57.0101612,11.81373 57.7604122,12.3784014 C58.5295529,12.9567443 58.9504654,13.7285586 58.9455804,14.55133 L58.7402144,14.5500871 L58.9455804,14.55133 C58.9406099,15.3736871 58.5106631,16.14053 57.7349521,16.7097586 C56.9855224,17.2591014 55.9983285,17.5607014 54.9511802,17.5607014 L54.9511802,17.5607014 Z" id="Fill-48" fill="#FFFFFF"></path>
                    <g id="Group-52" transform="translate(34.904943, 25.685714)">
                        <mask id="mask-4" fill="white">
                            <use xlink:href="#path-3"></use>
                        </mask>
                        <g id="Clip-51"></g>
                        <path d="M0.911224335,19.5932286 C2.67412928,20.6774143 4.43662357,21.7611857 6.19952852,22.8457857 C9.52288973,24.8894571 12.8458403,26.9335429 16.1696122,28.9772143 C15.639057,26.9642 15.1089125,24.9507714 14.5787681,22.9369286 C20.0177795,19.6789857 25.4567909,16.4210429 30.8958023,13.1622714 C31.3832395,12.8706143 31.8702662,12.5785429 32.3577034,12.2868857 C34.9566844,10.7295857 37.556076,9.17311429 40.155057,7.61581429 C40.7977186,7.23094286 40.7886844,6.28968571 40.1386312,5.91682857 C39.5173232,5.56095714 38.8964259,5.20467143 38.2755285,4.84921429 C35.8342357,3.45017143 33.3925323,2.05071429 30.9512395,0.651671429 C30.388654,0.329357143 29.6987681,0.3306 29.1370038,0.654985714 L12.1074981,10.4922 C10.6476502,11.3352714 9.18739163,12.1787571 7.72713308,13.0226571 C5.45831179,14.3330429 3.18990114,15.6438429 0.920669202,16.9542286 C0.2558327,17.3382714 0.0266920152,18.1059429 0.235711027,18.7543 C0.343711027,19.0890429 0.568745247,19.3923 0.911224335,19.5932286" id="Fill-50" mask="url(#mask-4)"></path>
                    </g>
                    <path d="M75.4382875,28.3270757 L66.2381658,23.0544614 C65.6755802,22.7317329 64.9856943,22.7329757 64.42393,23.0573614 L36.2075954,39.3566043 C35.1986373,39.9395043 35.1932989,41.4052471 36.1977399,41.9956043 L44.3453749,46.78309 C44.5170251,46.8837614 44.6972989,46.95999 44.8804471,47.0246186 L44.8718236,47.0275186 L51.4565384,51.3804186 L49.8656943,45.3397186 L75.4543027,30.0107329 C76.0916259,29.62959 76.082181,28.6962043 75.4382875,28.3270757" id="Fill-53" fill="#606060"></path>
                    <g id="Group-57" transform="translate(46.403042, 27.342857)">
                        <mask id="mask-6" fill="white">
                            <use xlink:href="#path-5"></use>
                        </mask>
                        <g id="Clip-56"></g>
                        <path d="M0.409414449,11.2586286 C0.464851711,11.3518429 0.598311787,11.3866429 0.691117871,11.3307143 C5.05136122,8.70787143 9.41160456,6.08461429 13.7714373,3.46135714 L18.3394677,0.713814286 C18.5599848,0.580828571 18.3595894,0.218328571 18.1292167,0.357528571 C13.7689734,2.98037143 9.40914068,5.60362857 5.04889734,8.22647143 L0.48086692,10.9744286 C0.383543726,11.0332571 0.351513308,11.1600286 0.409414449,11.2586286" id="Fill-55" mask="url(#mask-6)"></path>
                    </g>
                    <path d="M49.7820867,40.27868 C49.7130981,40.27868 49.6457521,40.2434657 49.6067407,40.1796657 C49.5476076,40.0818943 49.5779954,39.9547086 49.6744973,39.8946371 L65.9188471,29.8544229 C66.0145278,29.79518 66.1418281,29.8254229 66.2009612,29.9231943 C66.2600943,30.0205514 66.2301171,30.1481514 66.1327939,30.2078086 L49.8892654,40.2484371 C49.856003,40.2691514 49.8186342,40.27868 49.7820867,40.27868" id="Fill-58" fill="#FFFFFF"></path>
                    <path d="M40.0573232,8.94244 L30.8699316,3.67728286 C30.3069354,3.35496857 29.6174601,3.35621143 29.0556958,3.68059714 L0.839361217,19.9794257 C-0.169186312,20.5623257 -0.174935361,22.0284829 0.82991635,22.6184257 L16.0878935,32.00324 L14.4974601,25.96254 L40.073749,10.6414257 C40.716,10.2565543 40.7073764,9.31488286 40.0573232,8.94244" id="Fill-60" fill="#B3AEA9"></path>
                    <path d="M40.4519133,5.66680714 L31.2517916,0.394192857 C30.6887954,0.0718785714 29.9989095,0.0731214286 29.4375559,0.397507143 L1.22122129,16.69675 C0.212263118,17.2792357 0.206924715,18.7453929 1.21136578,19.33575 L9.35900076,24.1228214 C9.53065095,24.2234929 9.71092471,24.2997214 9.894073,24.36435 L9.88544943,24.3676643 L16.4697536,28.72015 L14.8793202,22.67945 L40.4679285,7.35087857 C41.1048411,6.96932143 41.0958068,6.03593571 40.4519133,5.66680714" id="Fill-62" fill="#606060"></path>
                    <path d="M12.0030297,16.0421371 C11.9328091,16.0421371 11.8646418,16.0060943 11.8264517,15.9410514 C11.7685506,15.8428657 11.8001703,15.71568 11.8979042,15.6568514 L29.546254,5.03995143 C29.6435772,4.98195143 29.7696456,5.01343714 29.8275468,5.11203714 C29.8854479,5.21022286 29.8538281,5.33740857 29.7560943,5.39623714 L12.1077445,16.0131371 C12.0748928,16.0330229 12.0387559,16.0421371 12.0030297,16.0421371" id="Fill-64" fill="#FFFFFF"></path>
                    <path d="M14.7957536,17.6187843 C14.726765,17.6187843 14.659419,17.58357 14.6208183,17.51977 C14.5612745,17.4219986 14.5916624,17.2948129 14.6885749,17.2347414 L30.9321034,7.19452714 C31.0294266,7.13445571 31.1554951,7.16552714 31.2142175,7.26288429 C31.2737612,7.36024143 31.2433734,7.48784143 31.1468715,7.54749857 L14.9029323,17.5885414 C14.8692593,17.6092557 14.8323011,17.6187843 14.7957536,17.6187843" id="Fill-66" fill="#FFFFFF"></path>
                </g>
                <path d="M139,98.4036849 L132.964215,95.2389949 L122.183147,89.2373338 C121.612965,88.919805 120.914689,88.9210279 120.345754,89.2401871 L91.7696639,105.27641 C90.7478267,105.850326 90.7424202,107.292861 91.7596826,107.873298 L100.011319,112.583241 C100.992815,113.143706 102.207624,113.138407 103.184546,112.570197 L128.31625,97.9443076 L139,98.4036849 Z" id="Fill-69" fill="#B3AEA9"></path>
                <path d="M140,94.4036543 L133.964242,91.2393652 L123.182804,85.2372839 C122.61304,84.9197544 121.914767,84.9209773 121.345834,85.2405448 L92.7694526,101.276802 C91.7480358,101.850311 91.7422133,103.292849 92.7598872,103.873288 L101.011072,108.58324 C101.99298,109.143706 103.207368,109.138407 104.184701,108.570197 L129.31588,93.9446836 L140,94.4036543 Z" id="Fill-71" fill="#606060"></path>
                <path d="M97.2174525,102 C97.1439248,102 97.0721375,101.965677 97.0308054,101.903416 C96.9694598,101.808828 97.0025255,101.686303 97.1052032,101.629231 L112.67044,93.0281034 C112.772248,92.9726277 112.906686,93.0013633 112.968902,93.0959514 C113.030682,93.1905394 112.997616,93.3130649 112.894504,93.370137 L97.3297018,101.971663 C97.2948958,101.990821 97.255739,102 97.2174525,102" id="Fill-73" fill="#FFFFFF"></path>
                <path d="M99.204747,104 C99.1351654,104 99.067221,103.960792 99.0287465,103.890037 C98.9710347,103.78323 99.0029604,103.644875 99.0999653,103.58088 L116.690606,92.0316561 C116.786383,91.9685628 116.912858,92.0023628 116.970979,92.110072 C117.0291,92.2168799 116.997174,92.3552345 116.89976,92.4192291 L99.3095288,103.968453 C99.2767845,103.990085 99.2407658,104 99.204747,104" id="Fill-75" fill="#FFFFFF"></path>
                <path d="M102.209605,105 C102.139185,105 102.070442,104.966318 102.030621,104.905294 C101.970681,104.811777 102.00128,104.690126 102.100203,104.632668 L118.681127,95.028948 C118.778793,94.9722831 118.908315,95.00121 118.969094,95.094727 C119.029454,95.1878477 118.998855,95.3098953 118.899512,95.3669565 L102.319007,104.971073 C102.285055,104.990886 102.24733,105 102.209605,105" id="Fill-77" fill="#FFFFFF"></path>
                <path d="M122.985451,88.3413901 C121.019593,88.3413901 119.418313,89.2983067 119.409683,90.4822477 C119.406024,91.0489553 119.767326,91.5869862 120.427254,91.9973372 C121.106026,92.418954 122.014606,92.6541718 122.984632,92.6586099 L123.014945,92.6586099 C123.973911,92.6586099 124.873478,92.4332924 125.551431,92.0222586 C126.217504,91.6187355 126.58618,91.0844599 126.590311,90.5180937 C126.594373,89.951386 126.233071,89.4136966 125.572732,89.0030042 C124.89396,88.581046 123.98579,88.3461696 123.015355,88.3413901 L122.985451,88.3413901 Z M123.014536,93 L122.982174,93 C121.925305,92.9948791 120.930701,92.735764 120.18229,92.2707907 C119.415036,91.7938686 118.995565,91.1582002 119.000035,90.4805408 C119.010312,89.1084938 120.79511,88 122.985861,88 L123.017813,88 C124.075091,88.0054622 125.069286,88.264236 125.817697,88.7295507 C126.584951,89.2061314 127.004831,89.8421412 126.999958,90.520142 C126.995,91.1978014 126.566107,91.8293732 125.792709,92.2984433 C125.044707,92.751468 124.059525,93 123.014536,93 L123.014536,93 Z" id="Fill-79" fill="#FFFFFF"></path>
                <path d="M102,77.403514 L95.9642155,74.2392721 L85.1831473,68.2372803 C84.6133806,67.9197556 83.9146885,67.9209784 83.3457536,68.2405412 L54.7696639,84.2765589 C53.7478267,84.8500599 53.7424202,86.2921683 54.7596826,86.8730063 L63.0113191,91.583296 C63.9932309,92.1437537 65.2076243,92.1384548 66.1845455,91.569845 L91.3162497,76.9445502 L102,77.403514 Z" id="Fill-81" fill="#B3AEA9"></path>
                <path d="M83.6715958,63.2401871 L55.7519718,79.2768178 C54.7536234,79.8503262 54.7483411,81.2928607 55.7422199,81.8732985 L63.8041779,86.583241 C64.7635188,87.1437058 65.9499972,87.1384069 66.9044622,86.5701974 L96,69.2394025 L85.4663475,63.2373338 C84.9096778,62.919805 84.2270464,62.9210279 83.6715958,63.2401871" id="Fill-83" fill="#606060"></path>
                <polygon id="Fill-85" fill="#606060" points="102 71 95.7857921 68 91 70.5648589"></polygon>
                <path d="M61.2177416,80 C61.1442153,80 61.0719942,79.9656803 61.0310979,79.9034259 C60.9693184,79.8088472 61.0023835,79.6867329 61.1054943,79.6296664 L76.6700112,71.028987 C76.772687,70.9715214 76.9066876,71.0022495 76.9689021,71.0968283 C77.0306816,71.1910079 76.9976165,71.3135213 76.8945057,71.3705878 L61.3295537,79.9716663 C61.2943133,79.9912205 61.2560274,80 61.2177416,80" id="Fill-87" fill="#FFFFFF"></path>
                <path d="M64.2051393,83 C64.1355581,83 64.0676142,82.960791 64.0287306,82.8900347 C63.9710192,82.7832241 64.0029446,82.644866 64.1003582,82.5808698 L81.6904733,71.031354 C81.7862497,70.9687098 81.9127237,71.0025106 81.9712537,71.1097719 C82.0289651,71.2165825 81.9970397,71.3549405 81.9000353,71.4189368 L64.309511,82.9684526 C64.2767669,82.9900851 64.2403391,83 64.2051393,83" id="Fill-89" fill="#FFFFFF"></path>
                <path d="M66.2098112,85 C66.1389713,85 66.0702273,84.9663171 66.0308253,84.9052915 C65.9704647,84.8117718 66.0014834,84.690117 66.0999885,84.6326579 L82.6811233,75.0290585 C82.7792092,74.9723919 82.9083138,75.0009233 82.9690936,75.094443 C83.0294541,75.1875664 82.9988547,75.3096175 82.8995112,75.3666804 L66.3192147,84.9710723 C66.2848427,84.9908858 66.2471174,85 66.2098112,85" id="Fill-91" fill="#FFFFFF"></path>
                <path d="M66.2047424,104 C66.1351624,104 66.0672195,103.960792 66.0287458,103.890036 C65.9710353,103.783228 66.0029603,103.644872 66.099963,103.580877 L83.6906129,92.0315537 C83.7863877,91.9684599 83.9128597,92.0027109 83.9709794,92.1099703 C84.0290992,92.2167792 83.9971743,92.3551349 83.8997622,92.41913 L66.3095217,103.968453 C66.2767782,103.990085 66.2407603,104 66.2047424,104" id="Fill-99" fill="#FFFFFF"></path>
                <path d="M86.9844345,66.3413901 C86.0255166,66.3413901 85.1264031,66.5667076 84.4488934,66.9777414 C83.782853,67.3812645 83.4137864,67.9155401 83.4096623,68.4822477 C83.4060036,69.0489553 83.7672875,69.5866448 84.4271836,69.9969958 C85.1059221,70.418954 86.0144569,70.6538304 86.9844345,70.6586102 L87.0151559,70.6586102 C87.9740738,70.6589512 88.8735969,70.4332924 89.5515162,70.0226 C90.217147,69.6190769 90.5862136,69.0844599 90.5903443,68.5177523 C90.594406,67.951386 90.2331221,67.4133552 89.5728164,67.0030042 C88.8936682,66.581046 87.9855431,66.3461696 87.0151559,66.3413901 L86.9844345,66.3413901 Z M87.0147463,71 L86.9819768,71 C85.92516,70.9948791 84.9306052,70.7361054 84.1822315,70.2707907 C83.4150152,69.7938686 82.9955655,69.1578588 83.0000354,68.4801994 C83.0049867,67.8021986 83.4338577,67.1706268 84.2080375,66.7015567 C84.9621459,66.244094 85.9546525,66.0010242 87.0176136,66 C88.07484,66.0051209 89.0693948,66.264236 89.8177685,66.7295507 C90.5849848,67.2061314 91.0044345,67.8421412 90.9999646,68.5198006 C90.9950133,69.1978014 90.5661423,69.8293732 89.7919625,70.2984433 C89.0448176,70.751468 88.0600938,71 87.0147463,71 L87.0147463,71 Z" id="Fill-93" fill="#FFFFFF"></path>
                <path d="M106.513061,87.3968448 L97.4324887,82.2360827 C96.8760383,81.9201592 96.1945794,81.9213774 95.6393466,82.2393313 L67.751076,98.2154004 C66.7538487,98.7863369 66.7485724,100.223424 67.741741,100.802076 L82.8223176,110 L81.2503757,104.079478 L106.52889,89.0621438 C107.164079,88.6849035 107.15515,87.761903 106.513061,87.3968448" id="Fill-95" fill="#00A03F"></path>
                <path d="M107.517423,83.4043172 L98.425766,78.2362831 C97.8698378,77.9203618 97.1881157,77.9211739 96.6334049,78.2391256 L68.7509701,94.2150794 C67.7539515,94.7864178 67.7486763,96.2230882 68.7412313,96.8017359 L76.7924507,101.494264 C76.9616638,101.592938 77.1402101,101.667655 77.3207853,101.731002 L77.3122638,101.733844 L83.819058,106 L82.247445,100.079521 L107.533249,85.0545796 C108.162624,84.6809966 108.153697,83.7661242 107.517423,83.4043172" id="Fill-97" fill="#00D65B"></path>
                <path d="M78.2047424,93 C78.1351624,93 78.0672195,92.9607917 78.0287458,92.8900365 C77.9710353,92.7832277 78.0029603,92.6448719 78.099963,92.5808768 L95.6906129,81.0315537 C95.7863877,80.9684599 95.9128597,81.0027109 95.9709794,81.1099703 C96.0290992,81.2167792 95.9971743,81.3551349 95.8997622,81.41913 L78.3095217,92.9684531 C78.2767782,92.9900853 78.2407603,93 78.2047424,93" id="Fill-99" fill="#FFFFFF"></path>
                <path d="M81.2096051,95 C81.1391853,95 81.0704422,94.9663161 81.0306215,94.9052888 C80.9706808,94.8117665 81.0012799,94.6901081 81.1002029,94.6326474 L97.6811273,85.0287738 C97.779212,84.9725018 97.908315,85.0010341 97.9690939,85.0945564 C98.0294538,85.1876825 97.9988547,85.3097371 97.8995125,85.3668016 L81.3190072,94.9710715 C81.2850549,94.9908855 81.24733,95 81.2096051,95" id="Fill-101" fill="#FFFFFF"></path>
                <path d="M72.5130609,63.3967665 L63.4320828,58.2360793 C62.8760383,57.9201603 62.1945794,57.9213785 61.6393466,58.2393278 L33.751076,74.2151653 C32.7538487,74.7860934 32.7485724,76.2231595 33.741741,76.8018029 L48.8223176,86 L47.2499698,80.079158 L72.5288899,65.0620414 C73.1640795,64.6844004 73.1551503,63.7618195 72.5130609,63.3967665" id="Fill-103" fill="#00A03F"></path>
                <path d="M72.5174238,60.4040757 L63.425778,55.2360793 C62.8698505,54.9201603 62.1881292,54.9213785 61.6330134,55.2393278 L33.7506136,71.2151653 C32.754002,71.7860934 32.7487268,73.2231595 33.7412805,73.8018029 L41.7924898,78.4938905 C41.9617028,78.5925644 42.139843,78.6672805 42.3208238,78.7306267 L42.3123023,78.7334691 L48.8190883,83 L47.2470715,77.079158 L72.5332495,62.0543262 C73.1626243,61.6807459 73.153697,60.7658801 72.5174238,60.4040757" id="Fill-105" fill="#00D65B"></path>
                <path d="M44.2048566,71 C44.1352747,71 44.06733,70.9607907 44.0288553,70.8900337 C43.9711433,70.7832222 44.0026598,70.644863 44.0996651,70.5808662 L61.6907864,59.031252 C61.7877918,58.9686073 61.9130392,59.0028591 61.9711605,59.1096706 C62.0288726,59.2164821 61.9973561,59.3548413 61.8999414,59.4188381 L44.3092294,70.9684523 C44.276485,70.9896343 44.2404661,71 44.2048566,71" id="Fill-107" fill="#FFFFFF"></path>
                <path d="M47.2098087,71 C47.1393888,71 47.0702265,70.9663173 47.0308249,70.9052923 C46.9704651,70.8121697 47.0014833,70.6901196 47.0999873,70.6330572 L63.6809236,61.029141 C63.7802658,60.9720786 63.9085305,61.0014023 63.9688904,61.0945249 C64.0296694,61.1876476 63.9986512,61.3096977 63.8997281,61.3667601 L47.3192109,70.9706763 C47.2848393,70.9904896 47.2466953,71 47.2098087,71" id="Fill-109" fill="#FFFFFF"></path>
                <path d="M114.495,40.5 L114.505,40.5 L114.495,40.5 Z" id="Fill-111" fill="#FFFFFF"></path>
                <path d="M98.2199089,57.7351083 L97.8,57.4928238 C95.1635696,57.5144121 92.3772403,55.6846204 92.3556535,53.096824 L92.3112582,47.866061 C92.2892642,45.2782645 94.4092426,43.1630118 97.0452657,43.1414235 L107,43.0606673 C106.744625,43.0226879 106.484363,42.9979014 106.217583,43.0003 L95.8808049,43.0842545 C93.1629152,43.1062426 90.9777694,45.2870598 91.0001707,47.9548128 L91.0457879,53.3470882 C91.0681892,56.0148413 93.2899918,58.5106876 96.0078815,58.4886995 L97.2705007,58.4799043 L100.814453,62 L103.964551,58.6519571 L103.337012,56.9798897 L98.2199089,57.7351083 Z" id="Fill-113" fill="#00A139"></path>
                <path d="M110.956847,47.8018632 C110.935941,45.1279654 108.848927,42.9782723 106.295677,43 L106.225465,43.0009919 L96.5848062,43.0844351 C94.0319505,43.1067416 91.9792526,45.2923732 92,47.9662709 L92.0431529,53.3710721 C92.064453,56.0449699 94.1514677,58.194663 96.7043234,58.1723565 L97.722389,58.1636817 L101.44675,62 L104.399574,58.8560118 L105.109971,58.0996536 L106.414799,58.0880872 C108.968049,58.0661937 111.020747,55.8805621 111,53.2062513 L110.956847,47.8018632 Z" id="Fill-115" fill="#00D65B"></path>
                <path d="M100.472022,55 C100.421491,55 100.389963,54.9745208 100.352389,54.9448647 C99.2238701,54.0480809 98.1238557,53.0807073 97.0596878,52.1454959 L96.8640433,51.973407 C95.9462849,51.1668446 94.905007,50.0566204 95.0069321,48.6180907 C95.1127443,47.1248434 96.3526899,46 97.8915008,46 L97.8953878,46 C98.9643064,46.0012531 99.9464159,46.5722374 100.467271,47.4594143 C100.989421,46.5743259 101.972395,46.0058477 103.040018,46.0058477 L103.043473,46.0058477 C104.227273,46.0071008 105.328583,46.7184295 105.783359,47.7760245 C105.937543,48.1348216 106.0101,48.5090732 105.998871,48.887084 C105.958273,50.2424932 104.916132,51.2754444 103.94266,52.1371421 L103.798842,52.2653734 C101.211843,54.5706131 100.680623,55 100.472022,55" id="Fill-117" fill="#FFFFFF"></path>
                <path d="M115.024805,71.6047923 L113.71072,71.615663 C110.415248,71.6422359 107.721005,69.0429246 107.693919,65.8094876 L107.638926,60.0798098 C107.593372,54.6992032 110.279407,54.2035786 113.556822,54.1766031 L126,54.0755456 C125.680713,54.0280365 125.35568,53.9978401 125.022029,54.0002558 L112.101151,54.1053395 C108.70349,54.1327176 105.971901,56.8576462 106.000218,60.1905302 L106.056853,66.1227255 C106.08517,69.4556095 108.861903,72.5743 112.259974,72.5465192 L113.837532,72.5356485 L118.898524,78 L124.160937,70.8000362 L120.009651,76.4000081 L115.024805,71.6047923 Z" id="Fill-119" fill="#5F5F5F"></path>
                <path d="M130.945581,60.0064971 C130.919074,56.769417 128.282479,54.9732493 125.05752,55.0003012 L124.968763,55.000699 L112.791831,55.1021437 C109.584542,55.1287978 106.95598,55.62528 107.000559,61.0117941 L107.054375,66.7587351 C107.080882,69.9958152 109.717477,72.5979709 112.942436,72.5713168 L114.228404,72.5605756 L118.932507,78 L122.662295,73.3987872 L123.5595,72.4830003 L125.208125,72.4694743 C128.433486,72.4424224 131.026305,69.7965062 131,66.5598239 L130.945581,60.0064971 Z" id="Fill-121" fill="#CED7DB"></path>
                <g id="Group-125" transform="translate(20.000000, 0.000000)">
                    <mask id="mask-8" fill="white">
                        <use xlink:href="#path-7"></use>
                    </mask>
                    <g id="Clip-124"></g>
                    <path d="M17.2573283,35.1153009 L14.7873283,35.1352478 C8.59167609,35.1861327 3.52735,30.2767522 3.47613261,24.1705575 L3.3724587,11.8283097 C3.32082826,5.72211504 7.44164836,1.88931936 13.6373005,1.83884149 L12.6458091,1.08955249 C6.25850474,1.14165869 0.238697826,5.74328319 0.291980435,12.0379558 L0.398958696,24.7612301 C0.451415217,31.0563097 5.67228478,36.9459381 12.0595891,36.8934248 L15.0264804,36.8726637 L24.5401109,45.6725044 L33.4597848,36.6959912 L26.2943065,43.8756549 L17.2573283,35.1153009 Z" id="Fill-123" fill="#00A03F" mask="url(#mask-8)"></path>
                </g>
                <path d="M35.3111106,37.2952205 L44.5457899,46 L46,44.5087624 L37.3354326,35.9478635 L34.999552,35.9673727 C34.9683961,35.9677792 34.9368356,35.9677792 34.9056798,35.9677792 C28.7768761,35.9677792 23.7656373,30.9860132 23.714655,24.8182479 L23.613095,12.495317 C23.5884131,9.49251965 24.729446,6.65961526 26.8257906,4.51888249 C28.3584973,2.95326589 31.4156211,2.46578313 33.4998271,2 C25.1501868,7.14404202 20.9835778,10.7111698 21,12.7013834 L21.1048455,25.4051509 C21.1574464,31.7712601 26.3544065,37.3167619 32.2461019,37.3167619 C32.2719977,37.3167619 32.2982981,37.3167619 32.3241938,37.3163555 L35.3111106,37.2952205 Z" id="Fill-126" fill="#00A139"></path>
                <path d="M69.8937464,12.1198449 C69.8414425,5.92751116 64.6787162,0.948855178 58.3623984,1 L58.2623569,1.00121472 L34.3420431,1.1955177 C28.0261404,1.24665006 22.9480966,6.308345 23,12.5006788 L23.1062536,25.0170632 C23.1585575,31.209397 28.3212838,36.188053 34.6371865,36.1365116 L37.1552453,36.1164677 L46.3682025,45 L53.6720676,37.7195695 L55.4292293,35.9675702 L58.6579569,35.9413905 C64.9738596,35.8902581 70.0519034,30.8285632 70,24.6362294 L69.8937464,12.1198449 Z" id="Fill-128" fill="#00D65B"></path>
                <path d="M38.7754346,20.533976 C38.2042513,21.790725 36.7226236,22.3464255 35.4658796,21.7755919 C34.2091355,21.2044064 33.6534372,19.7227729 34.2246205,18.466024 C34.7954519,17.209275 36.2774315,16.6535745 37.5341755,17.2244081 C38.7905676,17.7955936 39.3466179,19.2772271 38.7754346,20.533976" id="Fill-130" fill="#FFFFFF"></path>
                <path d="M35.9944946,22 C35.5802424,22 35.1592832,21.9139658 34.7580503,21.7312419 C33.2529339,21.0469152 32.5842125,19.2646665 33.268715,17.7586741 C33.9528229,16.2526818 35.734502,15.5841412 37.2400129,16.2688626 C37.9690969,16.5999756 38.5257729,17.1959003 38.8070699,17.9465285 C39.0887614,18.6963675 39.0611446,19.5117187 38.7297428,20.2410357 C38.2279059,21.3460615 37.135069,22 35.9944946,22" id="Fill-132" fill="#FFFFFF"></path>
                <path d="M48.7754472,19.533976 C48.204279,20.790725 46.7226905,21.3464255 45.4659796,20.7755919 C44.2092687,20.2044064 43.653585,18.7227729 44.2244013,17.466024 C44.7955696,16.209275 46.2771581,15.6535745 47.533869,16.2244081 C48.7905799,16.7955936 49.3466155,18.2772271 48.7754472,19.533976" id="Fill-134" fill="#FFFFFF"></path>
                <path d="M46.9977486,22 C46.5756008,22 46.154242,21.9096776 45.7581332,21.7298217 C44.2526041,21.045896 43.5842691,19.2646914 44.2687799,17.7595814 C44.6001856,17.0302973 45.1955324,16.4737694 45.9459298,16.1925474 C46.6959326,15.9113253 47.511033,15.9389348 48.2397312,16.2702483 C48.969613,16.6015618 49.5259012,17.1971373 49.8075961,17.9469313 C50.088502,18.6967254 50.0612794,19.5112044 49.7294791,20.2404886 C49.3980733,20.9697727 48.802332,21.5259061 48.0523291,21.8075226 C47.7098765,21.9361038 47.3532208,22 46.9977486,22" id="Fill-136" fill="#FFFFFF"></path>
                <path d="M59.7754346,19.5341184 C59.2042513,20.7908642 57.7226236,21.3465633 56.4658796,20.7753792 C55.2091355,20.2045471 54.6534372,18.7225655 55.2246205,17.4661717 C55.7954519,16.2094259 57.2774315,15.6533749 58.5341755,16.224559 C59.7905676,16.7957431 60.3466179,18.2773727 59.7754346,19.5341184" id="Fill-138" fill="#FFFFFF"></path>
                <path d="M56.9965477,22 C56.5822881,22 56.1613214,21.913965 55.7600814,21.7312392 C55.0309846,21.399728 54.4742986,20.8041919 54.1926021,20.053556 C53.9113001,19.3033146 53.9389174,18.4883497 54.2703251,17.7586305 C54.9548397,16.2530174 56.7365505,15.5840753 58.2420881,16.2688036 C59.7472313,16.9531374 60.4155701,18.7354045 59.73145,20.2414123 C59.2296041,21.3460548 58.1375369,22 56.9965477,22" id="Fill-140" fill="#FFFFFF"></path>
                <path d="M67.5735342,38.1044927 L66.3252603,38.1144369 C63.1944186,38.1390984 60.6352705,35.7242587 60.6095671,32.7203269 L61.3346637,26.7514445 C61.3089603,23.7475128 63.0480749,21.1890794 66.1793312,21.1644179 L78,21.0701472 C77.6965339,21.0259952 77.3880929,20.9977538 77.0709459,21 L64.7959071,21.0979909 C61.5684703,21.1234479 58.9736691,23.6548332 59.0002017,26.7514445 L59.0545105,33.0110942 C59.0810431,36.1077055 61.7193742,39.0050358 64.9472256,38.9795788 L66.4459005,38.9692369 L71.5078762,44 L75.7613155,38.8825238 L75.7613155,38.882126 L72.1404506,42.4142915 L67.5735342,38.1044927 Z" id="Fill-142" fill="#606060"></path>
                <path d="M71.9361615,44 L67.2265705,39.3723203 L66.0502058,39.3822616 C64.4635389,39.4013158 62.9628164,38.7890968 61.8302503,37.6764986 C60.697271,36.5639004 60.066323,35.0768461 60.0531007,33.4899646 L60,27.0914891 C59.9869896,25.5046075 60.5931459,24.007612 61.7075315,22.8759596 C62.8215039,21.7443072 64.3098305,21.1142767 65.8989766,21.1010216 L77.9497944,21.0011943 C79.5389404,20.968885 81.0371837,21.5935306 82.1697498,22.7065431 C83.302316,23.8195556 83.933264,25.3066098 83.9464862,26.8934914 L83.9464862,26.8934914 L84,33.2915526 C84.0130105,34.8788484 83.406441,36.3758439 82.2924686,37.5074963 C81.1784962,38.6391487 79.6901696,39.2691793 78.1014367,39.2824343 L76.5688983,39.294861 L71.9361615,44 Z" id="Fill-148" fill="#CED7DB"></path>
                <path d="M51.5735376,46.6350437 L50.3252642,46.6452963 C47.1944235,46.6707228 44.6352763,44.180979 44.6091583,41.0834606 L44.5569223,34.8236271 C44.5308043,31.7265187 47.0480799,29.1949443 50.1789206,29.1691077 L62,29.0723231 C61.696534,29.0268015 61.3876785,28.9976841 61.0709462,29 L48.7959115,29.1006203 C45.5684757,29.1272771 42.9732608,31.7367713 43.000208,34.9298441 L43.0541022,41.3832469 C43.0810493,44.5763197 45.718965,47.5635201 48.9468154,47.5368633 L50.4459043,47.5266107 L54.9782609,52 L58.6956522,47.5368633 L51.5735376,46.6350437 Z" id="Fill-150" fill="#CED7DB"></path>
                <path d="M67.9482396,34.5599036 C67.922865,31.4637538 65.3960465,28.9743706 62.3052571,29 L62.2205387,29.0006092 L50.5506806,29.0977738 C47.459482,29.1231924 44.974818,31.6543933 45,34.7501331 L45.0521696,41.0084392 C45.0775442,44.104589 47.6043628,46.5939722 50.6951521,46.5685536 L51.9270478,46.5583041 L56.4355403,51 L60.0031265,47.3663697 L60.8699554,46.4836882 L62.4497286,46.470569 C65.540518,46.4451503 68.025182,43.9143595 68,40.8182096 L67.9482396,34.5599036 Z" id="Fill-152" fill="#B3AEA9"></path>
                <path d="M116.327881,38.0065282 C114.711475,38.2717381 113.666667,39.4166289 113.666667,41.1462055 C113.666667,45.1708677 112,45.0215341 112,45.6698703 C112,46.7343821 114.500213,47 117,47 C119.500213,47 122,46.7343821 122,45.6698703 C122,45.0215341 120.333333,45.1708677 120.333333,41.1462055 C120.333333,39.4166289 119.271914,38.2517454 117.632507,38" id="Stroke-154" stroke="#FFFFFF" stroke-width="2"></path>
                <path d="M116.916897,46.1748 C116.970255,46.3344 117,46.5104 117,46.696 C117,47.4164 116.552591,48 116,48 C115.447715,48 115,47.4164 115,46.696 C115,46.5228 115.025759,46.358 115.072677,46.2068 L116.916897,46.1748 Z M116,36 C115.668813,36 115.400184,36.3504 115.400184,36.7828 C115.400184,37.2152 115.668813,37.5656 116,37.5656 C116.331493,37.5656 116.600123,37.2152 116.600123,36.7828 C116.600123,36.3504 116.331493,36 116,36 Z" id="Stroke-156" stroke="#FFFFFF" stroke-width="2"></path>
                <path d="M54.8950074,34.0064804 C53.4402652,34.2717454 52.5002029,35.4166187 52.5002029,37.1460253 C52.5002029,41.1707949 51,41.0213134 51,41.6697869 C51,42.733871 53.2498985,43 55.4997971,43 C57.7501015,43 60,42.733871 60,41.6697869 C60,41.0213134 58.4997971,41.1707949 58.4997971,37.1460253 C58.4997971,35.4166187 57.5443106,34.2518721 56.0692734,34" id="Fill-158" fill="#FFFFFF"></path>
                <path d="M55.9171943,42.1745023 C55.9707745,42.3341804 56,42.510377 56,42.695468 C56,43.4159255 55.5525248,44 55.0001624,44 C54.4478,44 54,43.4159255 54,42.695468 C54,42.5226599 54.0259782,42.3574756 54.0730638,42.2062685 M55.0001624,32 C54.668615,32 54.4000649,32.3502753 54.4000649,32.7827192 C54.4000649,33.2147395 54.668615,33.5650148 55.0001624,33.5650148 C55.331385,33.5650148 55.6002598,33.2147395 55.6002598,32.7827192 C55.6002598,32.3502753 55.331385,32 55.0001624,32" id="Fill-160" fill="#FFFFFF"></path>
                <path d="M71.5,23 C69.0143057,23 67,25.0148328 67,27.5 C67,29.9851672 69.0143057,32 71.5,32 C73.9852749,32 76,29.9851672 76,27.5 C76,25.0148328 73.9852749,23 71.5,23 Z" id="Stroke-162" stroke="#FFFFFF" stroke-width="2" stroke-linecap="round"></path>
                <line x1="74" y1="31" x2="78" y2="35" id="Stroke-164" stroke="#FFFFFF" stroke-width="4"></line>
                <path d="M116.5,58 C114.014306,58 112,60.0148328 112,62.5 C112,64.9851672 114.014306,67 116.5,67 C118.985275,67 121,64.9851672 121,62.5 C121,60.0148328 118.985275,58 116.5,58" id="Fill-166" fill="#FFFFFF"></path>
                <path d="M116.5,58 C114.014306,58 112,60.0148328 112,62.5 C112,64.9851672 114.014306,67 116.5,67 C118.985275,67 121,64.9851672 121,62.5 C121,60.0148328 118.985275,58 116.5,58 Z" id="Stroke-168" stroke="#FFFFFF"></path>
                <line x1="120" y1="65" x2="125" y2="69" id="Stroke-170" stroke="#FFFFFF" stroke-width="4"></line>
            </g>
        </g>
    </g>
</svg>