<?xml version="1.0" encoding="UTF-8"?>
<svg width="44px" height="44px" viewBox="0 0 44 44" version="1.1" xmlns="http://www.w3.org/2000/svg" xmlns:xlink="http://www.w3.org/1999/xlink">
    <title>E0594E6A-57D3-4FAE-B692-778C2AE2847B</title>
    <g id="Android-" stroke="none" stroke-width="1" fill="none" fill-rule="evenodd">
        <g id="UI-KIT" transform="translate(-979.000000, -585.000000)">
            <g id="icons8-cleansing" transform="translate(980.000000, 586.000000)">
                <path d="M9,23 C9,25.4102857 9.66830769,28.7370952 10.9033846,31.9345238 L10.9864615,32.1570952 M26.1913846,39.8882857 L26.0003077,40.077381 C24.5261538,41.278 22.8498462,42 21,42 C19.1658462,42 17.5024615,41.2182857 16.0384615,39.9470952 L15.9193846,39.830381 M33,23 C33,25.1650952 32.6150769,27.6649524 31.8895385,30.125 L31.7667692,30.4615714" id="Shape" stroke="#FFFFFF" stroke-linecap="round" stroke-linejoin="round"></path>
                <path d="M26.6071429,24 C25.8378891,24 25.2142857,24.6715729 25.2142857,25.5 C25.2142857,26.3284271 25.8378891,27 26.6071429,27 C27.3763966,27 28,26.3284271 28,25.5 C28,24.6715729 27.3763966,24 26.6071429,24 L26.6071429,24 Z M16.3928571,24 C15.6236034,24 15,24.6715729 15,25.5 C15,26.3284271 15.6236034,27 16.3928571,27 C17.1621109,27 17.7857143,26.3284271 17.7857143,25.5 C17.7857143,24.6715729 17.1621109,24 16.3928571,24 L16.3928571,24 Z" id="Shape" fill="#FFFFFF" fill-rule="nonzero"></path>
                <path d="M9,12.65 C9,5.91744 14.1514138,0 21.1034483,0 C24.8275862,0 26.6896552,1.84 26.6896552,1.84 M21.1034483,15.64 C31.0347931,17.56372 33.2068966,23 33.2068966,23 C33.2068966,23 36,21.16 36,16.35116 C36,10.58 31.3448276,8.28 31.3448276,8.28" id="Shape" stroke="#FFFFFF" stroke-linecap="round" stroke-linejoin="round"></path>
                <path d="M9.09090909,22.7560976 C9.09090909,22.7560976 11.0909091,17.4235854 20.9090909,15.5365854 C26.3636364,14.6341463 30.9090909,11.9268293 30.9090909,7.41463415 C30.9090909,2.69758537 26.3636364,2 26.3636364,2 C26.3636364,2 26.9818182,5.85612195 22.0727273,7.74312195 C16.7836364,9.77541463 6.36363636,10.8475122 6.36363636,18.1211707 C6.36363636,21.8536585 9.09090909,22.7560976 9.09090909,22.7560976 Z M1.81818182,35.3902439 C0.814027728,35.3902439 0,36.1983153 0,37.195122 C0,38.1919286 0.814027728,39 1.81818182,39 C2.82233591,39 3.63636364,38.1919286 3.63636364,37.195122 C3.63636364,36.1983153 2.82233591,35.3902439 1.81818182,35.3902439 L1.81818182,35.3902439 Z M38.1818182,29.0731707 C37.1776641,29.0731707 36.3636364,29.8812422 36.3636364,30.8780488 C36.3636364,31.8748554 37.1776641,32.6829268 38.1818182,32.6829268 C39.1859723,32.6829268 40,31.8748554 40,30.8780488 C40,29.8812422 39.1859723,29.0731707 38.1818182,29.0731707 Z" id="Shape" stroke="#FFFFFF" stroke-linecap="round" stroke-linejoin="round"></path>
                <path d="M3.90909091,29 C3.40701386,29 3,29.4029437 3,29.9 C3,30.3970563 3.40701386,30.8 3.90909091,30.8 C4.41116795,30.8 4.81818182,30.3970563 4.81818182,29.9 C4.81818182,29.4029437 4.41116795,29 3.90909091,29 Z M42.0909091,36.2 C41.588832,36.2 41.1818182,36.6029437 41.1818182,37.1 C41.1818182,37.5970563 41.588832,38 42.0909091,38 C42.5929861,38 43,37.5970563 43,37.1 C43,36.6029437 42.5929861,36.2 42.0909091,36.2 Z" id="Shape" fill="#FFFFFF" fill-rule="nonzero"></path>
                <path d="M17.3076923,33.5833333 C17.3076923,32.3815833 16.5267692,31.3705 15.4449231,30.9965 C15.4495385,30.9424167 15.4615385,30.88925 15.4615385,30.8333333 C15.4615385,29.8204167 14.6353846,29 13.6153846,29 C12.5953846,29 11.7692308,29.8204167 11.7692308,30.8333333 C11.7692308,31.1798333 11.7692308,31.75 11.7692308,31.75 C10.2396923,31.75 9,32.9810833 9,34.5 C9,36.0189167 10.2396923,37.25 11.7692308,37.25 C11.7692308,38.7689167 13.0089231,40 14.5384615,40 C16.068,40 17.3076923,38.7689167 17.3076923,37.25 C17.3076923,36.5423333 17.0307692,35.9043333 16.5886154,35.4166667 C17.0307692,34.929 17.3076923,34.291 17.3076923,33.5833333 Z M31.3855385,32.92425 C31.812,32.509 32.0769231,31.9315 32.0769231,31.2916667 C32.0769231,30.02575 31.044,29 29.7692308,29 C28.4944615,29 27.4615385,30.02575 27.4615385,31.2916667 C27.4615385,31.4731667 27.4615385,31.75 27.4615385,31.75 C27.4615385,31.75 27.1827692,31.75 27,31.75 C25.7252308,31.75 24.6923077,32.77575 24.6923077,34.0416667 C24.6923077,34.62925 24.9212308,35.16 25.2876923,35.5651667 C24.9203077,36.03175 24.6923077,36.612 24.6923077,37.25 C24.6923077,38.7689167 25.932,40 27.4615385,40 C28.6707692,40 29.688,39.2254167 30.0655385,38.1529167 C30.1209231,38.1565833 30.1744615,38.1666667 30.2307692,38.1666667 C31.7603077,38.1666667 33,36.9355833 33,35.4166667 C33,34.3084167 32.3363077,33.3596667 31.3855385,32.92425 Z" id="Shape" stroke="#FFFFFF" stroke-linecap="round" stroke-linejoin="round"></path>
            </g>
        </g>
    </g>
</svg>