<?xml version="1.0" encoding="UTF-8"?>
<svg width="39px" height="42px" viewBox="0 0 39 42" version="1.1" xmlns="http://www.w3.org/2000/svg" xmlns:xlink="http://www.w3.org/1999/xlink">
    <title>431515C8-B365-4513-A21B-B2D76E005218</title>
    <g id="Android-" stroke="none" stroke-width="1" fill="none" fill-rule="evenodd" stroke-linecap="round">
        <g id="UI-KIT" transform="translate(-1415.000000, -677.000000)" stroke="#FFFFFF">
            <g id="icons8-wedding_dress" transform="translate(1416.000000, 678.000000)">
                <path d="M23.6410256,5.15505618 L23.6410256,0 M11.4358974,5.15505618 L11.4358974,0 M28,37 C28,30.847191 24.5128205,24.9438202 24.5128205,24.9438202" id="Shape"></path>
                <path d="M18.5,7.0783848 C18.5,7.0783848 16.8181818,5 14.1272727,5 C11.4363636,5 10.0909091,6.66270784 10.0909091,6.66270784 C10.0909091,9.90498812 14.2954545,12.6484561 14.2954545,12.6484561 C14.2954545,12.6484561 0,22.6247031 0,34.7624703 C0,34.7624703 1.68181818,37.0902613 8.40909091,37.0902613 C8.40909091,37.0902613 11.6045455,40 18.5,40 C25.3954545,40 28.5909091,37.0902613 28.5909091,37.0902613 C35.3181818,37.0902613 37,34.7624703 37,34.7624703 C37,22.6247031 22.7045455,12.7315914 22.7045455,12.7315914 C22.7045455,12.7315914 26.9090909,9.98812352 26.9090909,6.74584323 C26.9090909,6.74584323 25.6477273,5.08313539 22.8727273,5.08313539 C20.0977273,5.08313539 18.5,7.0783848 18.5,7.0783848 Z M8.40909091,37.0071259 C8.40909091,30.8551069 11.7727273,24.9524941 11.7727273,24.9524941" id="Shape"></path>
            </g>
        </g>
    </g>
</svg>